<svg width="110" height="110" viewBox="0 0 110 110" xmlns="http://www.w3.org/2000/svg" xmlns:xlink="http://www.w3.org/1999/xlink">
    <defs>
        <linearGradient x1="52.474%" y1="-33.839%" x2="49.25%" y2="78.935%" id="dps2ujaxvc">
            <stop stop-color="#EFA4AE" offset="0%"/>
            <stop stop-color="#B15ED4" offset="59.39%"/>
            <stop stop-color="#460FE1" offset="98.09%"/>
        </linearGradient>
        <linearGradient x1="18.365%" y1="7.841%" x2="56.249%" y2="55.269%" id="6gkh6lkjjd">
            <stop stop-color="#EFA4AE" offset="0%"/>
            <stop stop-color="#B15ED4" offset="52.18%"/>
            <stop stop-color="#460FE1" offset="100%"/>
        </linearGradient>
        <linearGradient x1="61.632%" y1="18.306%" x2="16.845%" y2="72.158%" id="1bcgnt0xce">
            <stop stop-color="#EFA4AE" offset="0%"/>
            <stop stop-color="#B15ED4" offset="49.11%"/>
            <stop stop-color="#460FE1" offset="98.09%"/>
        </linearGradient>
        <linearGradient x1="52.958%" y1="-12.368%" x2="52.958%" y2="73.87%" id="ia1f7cmo0f">
            <stop stop-color="#F9A1AF" offset="0%"/>
            <stop stop-color="#B15ED4" offset="45.954%"/>
            <stop stop-color="#460FE1" offset="100%"/>
        </linearGradient>
        <rect id="f2wwiec1na" x="0" y="0" width="110" height="110" rx="55"/>
    </defs>
    <g fill="none" fill-rule="evenodd">
        <mask id="f6mw324isb" fill="#fff">
            <use xlink:href="#f2wwiec1na"/>
        </mask>
        <g mask="url(#f6mw324isb)">
            <g fill-rule="nonzero">
                <path d="M110.568 137.12H6.625c-12.439 0-22.496-10.056-22.496-22.495V10.616c0-12.439 10.057-22.496 22.496-22.496h103.943c12.438 0 22.495 10.057 22.495 22.496v103.943c.066 12.438-10.057 22.561-22.495 22.561z" fill="#BEBEBE" opacity=".1"/>
                <g transform="translate(14.709 30.35)">
                    <path d="M62.21.008c-4.455-.241-6.743 5.177-7.907 8.63-.682 1.966-1.164 4.013-1.605 6.06a135.104 135.104 0 0 0-1.245 7.024 162.576 162.576 0 0 0-.883 7.586c-.24 2.569-.441 5.138-.642 7.706-.16 2.489-.28 4.977-.401 7.466l-.24 6.783c-.041 1.004-.041 2.007-.081 3.01 0 .241-.16 2.61-.04 2.65a31.794 31.794 0 0 1 6.381 2.608c-.04.08-.12.201-.16.281 2.368 1.325 5.378 3.211 7.345 4.977 1.405-7.264 5.62-30.343 5.62-46.84 0-2.85-.081-5.74-.482-8.55-.402-2.809-1.004-6.541-3.372-8.428C63.816.29 63.053.048 62.21.008z" fill="url(#dps2ujaxvc)"/>
                    <path d="M36.563 34.004s7.264 6.342 3.09 25.889l-11.56 1.204s5.66-18.102-7.304-20.23c.04 0 2.528-11.72 15.774-6.863" fill="url(#6gkh6lkjjd)"/>
                    <path d="M36.563 34.004s-6.422-2.207-11.72 3.572c-7.306 7.948 1.846 23.24-14.57 23.962-10.958.482-15.895-18.302-.723-30.584 0 0 10.075-3.934 27.013 3.05z" fill="url(#1bcgnt0xce)"/>
                    <path d="M41.058 55.759h-.642c-1.606.04-3.211.2-4.737.521-2.408.482-4.736 1.204-6.903 2.208-9.914 4.495-16.778 13.767-17.62 20.911-1.004 8.349 6.502 15.333 18.342 18.865 3.211.963 6.784 1.646 10.556 2.047 2.328.24 4.576.361 6.744.361 1.605 0 3.17-.08 4.696-.2 12.04-1.044 20.75-6.182 21.634-14.771.682-6.302-3.452-14.89-10.516-21.233-1.927-1.726-4.094-3.331-6.462-4.615-2.168-1.205-4.496-2.208-6.944-2.89-1.646-.482-3.372-.803-5.138-1.004-1.043-.16-2.047-.2-3.01-.2" fill="#460FE1"/>
                    <path d="M56.35 89.675h-1.364c-.08 0-.161-.04-.241-.04-1.124-.12-2.168-.482-3.131-.924-1.244-.562-2.368-1.284-3.452-2.007-1.164-.802-2.328-1.645-3.492-2.448-.722-.482-1.485-.963-2.288-1.324-.963-.402-1.926-.522-2.93-.12-.722.28-1.364.601-1.966 1.003a167.353 167.353 0 0 0-3.332 2.328c-1.204.842-2.408 1.685-3.733 2.328-1.003.481-2.006.883-3.13 1.083-.281.04-.522.08-.803.12h-1.365c-.04 0-.08-.04-.12-.04-1.124-.08-2.167-.36-3.13-.883-1.205-.642-2.128-1.565-2.85-2.608-.803-1.164-1.325-2.449-1.686-3.773-.522-1.807-.763-3.613-.843-5.5-.04-1.324-.04-2.688.2-4.013.241-1.445.723-2.81 1.486-4.134 1.204-2.047 1.605-2.448 5.097-5.057 4.857-3.653 11.92-5.419 18.062-5.258 6.462.16 14.69 2.568 19.386 6.863 1.204 1.124 2.168 2.65 2.89 4.054a12.895 12.895 0 0 1 1.325 4.816c0 .201.04.362.04.562v1.887c0 .04-.04.04-.04.08-.04 1.124-.12 2.208-.321 3.291-.201 1.365-.562 2.73-1.084 4.054-.522 1.245-1.204 2.449-2.208 3.452-1.124 1.124-2.569 1.846-4.294 2.127-.201 0-.442.04-.683.08z" fill="#0C0B1E"/>
                    <circle fill="#000" cx="50.37" cy="79.319" r="1.164"/>
                </g>
                <g transform="translate(42.775 102.897)">
                    <path d="M.543 6.874C-.553 4.2.063 1.39 1.914.567c1.851-.822 4.319.686 5.416 3.36 1.096 2.673.48 5.483-1.371 6.306-1.851.822-4.319-.686-5.416-3.36" fill="#460FE1"/>
                    <circle fill="#0C0B1E" cx="3.817" cy="5.559" r="1.371"/>
                    <path d="M27.236 6.531c1.097-2.673.48-5.484-1.37-6.306-1.851-.823-4.319.685-5.416 3.358-1.097 2.674-.48 5.484 1.371 6.307 1.85.822 4.319-.686 5.415-3.359" fill="#460FE1"/>
                    <circle fill="#0C0B1E" cx="22.817" cy="5.559" r="1.371"/>
                </g>
            </g>
            <path d="M63.561 98.33c9.55-2.006 17.832-.6 24.847 4.217 1.802-6.31 3.138-11.041 4.008-14.193a.499.499 0 0 0-.74-.558l-6.05 3.657a.5.5 0 0 1-.738-.284l-2.128-7.093a.5.5 0 0 0-.867-.172l-4.266 5.248a.5.5 0 0 1-.818-.06l-3.69-6.228a.5.5 0 0 0-.847-.022l-4.218 6.34a.5.5 0 0 1-.782.064l-4.61-4.938a.5.5 0 0 0-.861.405l1.76 13.617z" stroke="#0C0B1E" stroke-width="2" fill="url(#ia1f7cmo0f)" transform="translate(-15.87 -11.88)"/>
        </g>
    </g>
</svg>
