<svg width="53" height="46" viewBox="0 0 53 46" xmlns="http://www.w3.org/2000/svg" xmlns:xlink="http://www.w3.org/1999/xlink">
    <defs>
        <path id="a" d="M0 0h52.541v45.045H0z"/>
    </defs>
    <g fill="none" fill-rule="evenodd">
        <g>
            <mask id="b" fill="#fff">
                <use xlink:href="#a"/>
            </mask>
            <path d="M43.16 7.515H38.88l-1.126-3.377A6.836 6.836 0 0 0 31.113.01H21.43a6.837 6.837 0 0 0-6.644 4.128l-1.125 3.377H9.383C4.202 7.517.002 11.717 0 16.898v18.765c.002 5.18 4.202 9.38 9.383 9.382h33.776a9.385 9.385 0 0 0 9.382-9.382V16.898a9.385 9.385 0 0 0-9.382-9.383M26.27 37.54a1.876 1.876 0 0 1 0-3.753 7.506 7.506 0 1 0-4.626-1.596 1.877 1.877 0 0 1-2.316 2.953c-4.896-3.833-5.755-10.91-1.921-15.806 3.833-4.895 10.91-5.754 15.806-1.92A11.26 11.26 0 0 1 26.27 37.54" fill="#0C0A1E" mask="url(#b)"/>
        </g>
        <g transform="translate(14 13)">
            <circle fill="#4F43FF" cx="12.5" cy="12.5" r="12.5"/>
            <g stroke="#0A081B" stroke-linecap="round" stroke-width="2">
                <path d="M12.45 5.082v14.737M5.082 12.45h14.737"/>
            </g>
        </g>
    </g>
</svg>
