<svg width="14" height="20" viewBox="0 0 14 20" xmlns="http://www.w3.org/2000/svg" xmlns:xlink="http://www.w3.org/1999/xlink">
    <defs>
        <path id="laj4jsr8ha" d="M0 0h13.294v19.01H0z"/>
    </defs>
    <g fill="none" fill-rule="evenodd">
        <g>
            <mask id="0o3eibm1ib" fill="#fff">
                <use xlink:href="#laj4jsr8ha"/>
            </mask>
            <path d="M13.294 6.647c0 3.671-6.647 12.362-6.647 12.362S0 10.32 0 6.647A6.646 6.646 0 0 1 6.647 0a6.646 6.646 0 0 1 6.647 6.647" fill="#4D14E0" mask="url(#0o3eibm1ib)"/>
        </g>
        <path d="M10.482 6.934a5.786 5.786 0 0 1-1.087-.594C8.34 5.579 7.472 4.4 6.93 2.898l-.06-.18a.234.234 0 0 0-.447-.002 8.994 8.994 0 0 1-.634 1.479C5.074 5.459 4.036 6.41 2.81 6.93a.242.242 0 0 0 .002.447c.38.156.74.354 1.079.589 1.018.73 1.86 1.85 2.407 3.271h.005c.042.116.084.235.122.355.07.221.373.224.446.003.163-.492.354-.943.57-1.355.715-1.326 1.78-2.323 3.045-2.86a.242.242 0 0 0-.003-.447" fill="#BEBEBE"/>
    </g>
</svg>
