<svg width="32" height="32" viewBox="0 0 32 32" xmlns="http://www.w3.org/2000/svg">
    <g stroke="#BEBEBE" stroke-width="1.5" fill="none" fill-rule="evenodd" stroke-linecap="round">
        <path d="M6.42 7.915a12.522 12.522 0 0 1 7.16-2.235c1.65 0 3.224.317 4.667.894M25.273 13.61c.573 1.439.888 3.008.888 4.65 0 6.948-5.633 12.58-12.58 12.58C6.631 30.84 1 25.209 1 18.26c0-2.7.85-5.2 2.298-7.25"/>
        <path d="M30.838 7.324a6.324 6.324 0 1 1-12.647 0 6.324 6.324 0 0 1 12.647 0zM17.432 16.652a3.852 3.852 0 1 1-7.703 0 3.852 3.852 0 0 1 7.703 0zM8.345 21.335a3.015 3.015 0 1 1 1.358-5.24"/>
        <path d="M17.404 16.142a3.015 3.015 0 1 1 1.593 5.225M10.75 19.373a4.58 4.58 0 0 0-3.07 4.324v5.614"/>
        <path d="M19.625 29.246v-5.548a4.58 4.58 0 0 0-3.247-4.382M5.469 20.491a3.663 3.663 0 0 0-2.637 3.517v.737M21.794 20.491a3.663 3.663 0 0 1 2.636 3.517v.607M21.571 7.324h5.886M24.514 10.267V4.381"/>
    </g>
</svg>
