<svg width="20" height="25" viewBox="0 0 20 25" xmlns="http://www.w3.org/2000/svg">
    <g stroke="#FFF" stroke-width="1.5" fill="none" fill-rule="evenodd" stroke-linecap="round" stroke-linejoin="round">
        <path d="M19 8.683H1V5.055c0-.716.58-1.295 1.295-1.295h15.41c.715 0 1.295.58 1.295 1.295v3.628zM15.698 23.704H4.302a1.249 1.249 0 0 1-1.245-1.155L2.012 8.683h15.976l-1.045 13.866a1.249 1.249 0 0 1-1.245 1.155zM11.272 1H8.728c-1.073 0-1.942.87-1.942 1.942v.786h6.428v-.786c0-1.073-.87-1.942-1.942-1.942zM7.962 11.881v8.122M12.038 11.881v8.122"/>
    </g>
</svg>
