<svg width="153" height="153" viewBox="0 0 153 153" xmlns="http://www.w3.org/2000/svg" xmlns:xlink="http://www.w3.org/1999/xlink">
    <defs>
        <linearGradient x1="12.982%" y1="39.144%" x2="77.085%" y2="65.41%" id="b">
            <stop stop-color="#F9A1AF" offset="0%"/>
            <stop stop-color="#B15ED4" offset="45.954%"/>
            <stop stop-color="#460FE1" offset="100%"/>
        </linearGradient>
        <path id="a" d="M0 0h152.904v137.414H0z"/>
    </defs>
    <g fill="none" fill-rule="evenodd">
        <g>
            <mask id="c" fill="#fff">
                <use xlink:href="#a"/>
            </mask>
            <path d="M75.031 22.17h1.834c.446 0 .807-.23.807-.514V5.407c0-.283-.361-.514-.807-.514h-1.834c-.445 0-.807.23-.807.514v16.249c0 .284.362.514.807.514zm.15 1.918c-11.124.239-17.645 4.06-19.345 9.039 6.14-2.437 12.893-3.785 19.984-3.785 7.091 0 13.845 1.348 19.984 3.785-1.14-5.09-8.093-8.92-20.623-9.039zM2.84 19.654c.347.144.678.324.989.54.933.67 1.705 1.695 2.206 2.999h.004c.04.106.077.214.112.325a.214.214 0 0 0 .41.002 8.24 8.24 0 0 1 .52-1.242c.658-1.215 1.632-2.13 2.792-2.621a.222.222 0 0 0-.002-.41 5.236 5.236 0 0 1-.996-.544c-.969-.697-1.764-1.777-2.26-3.155l-.055-.164a.214.214 0 0 0-.41-.003 8.155 8.155 0 0 1-.58 1.355c-.657 1.16-1.608 2.032-2.732 2.51a.222.222 0 0 0 .002.408zm17.557 30.413a14.936 14.936 0 0 1-2.834-1.55c-2.757-1.983-5.019-5.055-6.432-8.976-.053-.155-.105-.31-.156-.468a.608.608 0 0 0-1.164-.007 23.246 23.246 0 0 1-1.655 3.856C6.29 46.221 3.584 48.704.384 50.061a.632.632 0 0 0 .006 1.165c.988.408 1.929.921 2.813 1.535 2.656 1.907 4.852 4.824 6.277 8.534h.014c.11.303.217.61.317.925a.608.608 0 0 0 1.165.007c.424-1.283.921-2.46 1.484-3.536 1.869-3.457 4.642-6.058 7.943-7.46a.632.632 0 0 0-.006-1.164zm132.287 42.357a8.41 8.41 0 0 1-1.599-.875c-1.556-1.119-2.832-2.852-3.629-5.064a12.79 12.79 0 0 1-.088-.264.343.343 0 0 0-.657-.004 13.071 13.071 0 0 1-.933 2.176c-1.053 1.86-2.58 3.261-4.385 4.027a.356.356 0 0 0 .003.657c.558.23 1.088.52 1.587.866 1.499 1.076 2.738 2.722 3.542 4.815h.008c.062.171.122.345.179.522.104.326.55.329.657.004.24-.724.52-1.388.837-1.995 1.055-1.95 2.619-3.418 4.481-4.208a.356.356 0 0 0-.003-.657zm-6.103 28.085a14.196 14.196 0 0 1-2.694-1.474c-2.622-1.886-4.772-4.806-6.116-8.535-.05-.147-.1-.295-.148-.445a.578.578 0 0 0-1.107-.007 22.058 22.058 0 0 1-1.574 3.667c-1.774 3.136-4.347 5.497-7.39 6.788a.6.6 0 0 0 .006 1.107c.94.389 1.834.876 2.675 1.46 2.526 1.812 4.614 4.586 5.969 8.114h.012c.106.288.207.58.302.88a.578.578 0 0 0 1.108.006c.403-1.22.876-2.34 1.411-3.362 1.777-3.287 4.413-5.76 7.552-7.092a.6.6 0 0 0-.006-1.107zM28.926 36.363c.07.192.138.388.202.588.117.368.62.371.741.005.27-.817.586-1.567.945-2.25 1.189-2.201 2.954-3.857 5.055-4.748a.402.402 0 0 0-.004-.741 9.514 9.514 0 0 1-1.803-.987c-1.756-1.262-3.195-3.217-4.094-5.713a16.267 16.267 0 0 1-.1-.298.387.387 0 0 0-.74-.005c-.297.899-.65 1.717-1.054 2.455-1.187 2.099-2.91 3.68-4.946 4.543a.402.402 0 0 0 .003.742 9.5 9.5 0 0 1 1.79.977c1.691 1.213 3.089 3.07 3.996 5.432h.009zM59.157 97.52c4.856.601 9.988.934 15.257.977V82.265H58.18c.043 5.269.376 10.4.977 15.256zm48.104-43.063c1.586 3.787 2.819 7.837 3.679 12.065.384.13.765.264 1.139.4 5.51 1.999 9.673 4.4 12.327 7.055l-.016-.106c-2.402-7.75-8.578-14.544-17.129-19.414zM59.473 62.35a136.23 136.23 0 0 1 14.94-.922V46.601a70.75 70.75 0 0 0-11.68 1.147c-1.397 4.367-2.493 9.298-3.26 14.602zm17.242-.922c5.145.041 10.167.355 14.94.922-.766-5.304-1.862-10.235-3.26-14.602a70.744 70.744 0 0 0-11.68-1.147v14.827zm34.705 31.667c7.093-2.593 11.784-5.872 13.425-9.285.028-.513.048-1.028.06-1.545h-12.527a73.711 73.711 0 0 1-.958 10.83zm-1.342-10.83H95.25a136.175 136.175 0 0 1-.922 14.94c5.304-.767 10.235-1.863 14.602-3.26a70.725 70.725 0 0 0 1.148-11.68zM76.715 98.498c5.27-.043 10.4-.376 15.257-.977.601-4.856.934-9.987.976-15.256H76.715v16.233zm0 17.129a70.744 70.744 0 0 0 11.68-1.148c1.398-4.367 2.494-9.298 3.26-14.602-4.773.568-9.795.881-14.94.922v14.828zm31.69-49.918c-1.049-4.664-2.559-9.03-4.454-12.982-3.952-1.895-8.318-3.405-12.982-4.453 1.307 4.352 2.334 9.202 3.054 14.381 5.18.72 10.03 1.747 14.381 3.054zM26.282 78.417a50.491 50.491 0 0 0-.059 1.546h12.527c.055-3.688.38-7.313.958-10.83-7.092 2.592-11.784 5.871-13.426 9.284zm84.657 17.288c-.86 4.227-2.093 8.277-3.679 12.064 8.551-4.87 14.727-11.663 17.13-19.414l.015-.105c-2.654 2.654-6.818 5.056-12.327 7.055-.374.136-.755.269-1.139.4zm-2.536.813c-4.351 1.307-9.202 2.334-14.381 3.054-.72 5.18-1.747 10.03-3.054 14.382 4.664-1.049 9.03-2.559 12.982-4.454 1.895-3.952 3.405-8.318 4.453-12.982zM62.733 114.48a70.75 70.75 0 0 0 11.68 1.148v-14.828a136.175 136.175 0 0 1-14.94-.922c.767 5.304 1.863 10.235 3.26 14.602zM39.709 93.095a73.711 73.711 0 0 1-.958-10.83H26.224c.012.517.032 1.032.06 1.545 1.64 3.413 6.332 6.692 13.425 9.285zm4.16-38.637c-8.552 4.87-14.728 11.663-17.13 19.414l-.016.106c2.654-2.655 6.818-5.056 12.327-7.056.374-.135.755-.268 1.139-.4.86-4.227 2.093-8.277 3.68-12.064zm3.309-1.73c-1.895 3.951-3.405 8.317-4.453 12.981 4.351-1.307 9.201-2.334 14.381-3.054.72-5.18 1.747-10.03 3.054-14.381-4.664 1.048-9.03 2.558-12.982 4.453zm9.623 12.294c-5.304.767-10.235 1.863-14.602 3.26a70.747 70.747 0 0 0-1.147 11.681h14.827c.04-5.145.354-10.167.922-14.94zm0 32.183a136.174 136.174 0 0 1-.922-14.94H41.052a70.75 70.75 0 0 0 1.147 11.68c4.367 1.397 9.298 2.493 14.602 3.26zm3.359 16.749c-1.307-4.352-2.334-9.202-3.054-14.382-5.18-.72-10.03-1.747-14.381-3.054 1.048 4.665 2.558 9.03 4.453 12.982 3.952 1.895 8.318 3.405 12.982 4.454zm-16.292-6.185c-1.586-3.787-2.819-7.837-3.68-12.064a62.478 62.478 0 0 1-1.138-.4c-5.51-2-9.673-4.4-12.327-7.055l.016.105c2.402 7.75 8.578 14.545 17.13 19.414zm5.528 10.126a52.665 52.665 0 0 1-3.944-6.669 52.72 52.72 0 0 1-6.668-3.944c-3.864-2.698-7.064-5.758-9.55-9.122 4.985 13.545 15.74 24.3 29.284 29.284-3.364-2.486-6.424-5.686-9.122-9.55zm33.41-85.607-.105-.015c2.654 2.654 5.055 6.817 7.055 12.326.136.375.268.755.4 1.14 4.227.86 8.277 2.092 12.064 3.678-4.87-8.55-11.663-14.726-19.414-17.129zm-4.545-.455a49.797 49.797 0 0 0-1.546-.06V44.3c3.689.055 7.314.38 10.83.958-2.592-7.092-5.871-11.784-9.284-13.425zm23.472 12.5a52.665 52.665 0 0 1 3.944 6.668 52.717 52.717 0 0 1 6.668 3.945c3.864 2.697 7.064 5.757 9.55 9.122-4.985-13.545-15.74-24.3-29.284-29.285 3.364 2.487 6.424 5.687 9.122 9.55zm-38.15.925a73.711 73.711 0 0 1 10.83-.958V31.774c-.517.011-1.032.031-1.545.059-3.413 1.641-6.692 6.333-9.285 13.425zm-2.21-.659c2-5.51 4.401-9.672 7.055-12.326l-.105.015c-7.75 2.403-14.545 8.578-19.414 17.13 3.787-1.587 7.837-2.82 12.064-3.68.132-.384.264-.764.4-1.139zm-32.14 19.469c2.487-3.365 5.687-6.425 9.55-9.122A52.72 52.72 0 0 1 45.454 51a52.665 52.665 0 0 1 3.943-6.668c2.698-3.863 5.758-7.063 9.122-9.55-13.544 4.985-24.3 15.74-29.284 29.285zm82.187 5.065c.578 3.517.903 7.142.958 10.83h12.527a49.792 49.792 0 0 0-.06-1.546c-1.641-3.413-6.332-6.692-13.425-9.284zm-2.49-.85c-4.367-1.398-9.298-2.494-14.602-3.26.567 4.773.881 9.795.922 14.94h14.828a70.725 70.725 0 0 0-1.148-11.68zm-50.75 11.68h16.234V63.73c-5.27.042-10.4.375-15.257.976-.601 4.856-.934 9.988-.977 15.257zm2.793 36.526c-4.227-.86-8.277-2.093-12.064-3.679 4.87 8.551 11.663 14.727 19.414 17.13l.105.015c-2.654-2.654-5.055-6.817-7.055-12.327a63.582 63.582 0 0 1-.4-1.139zm51.372-9.207a52.718 52.718 0 0 1-6.668 3.944 52.691 52.691 0 0 1-3.944 6.669c-2.698 3.863-5.758 7.063-9.122 9.55 13.544-4.986 24.3-15.74 29.284-29.285-2.486 3.364-5.686 6.424-9.55 9.122zm-39.477 23.113c.513.027 1.028.047 1.546.059v-12.526a73.681 73.681 0 0 1-10.83-.959c2.592 7.093 5.87 11.784 9.284 13.426zm3.847-50.432h16.233c-.042-5.27-.375-10.4-.976-15.257-4.856-.6-9.987-.934-15.257-.976v16.233zm25.505 32.847c-3.787 1.586-7.837 2.82-12.064 3.68-.132.383-.264.764-.4 1.138-2 5.51-4.401 9.673-7.055 12.327l.105-.016c7.75-2.402 14.545-8.578 19.414-17.129zm-14.674 4.159c-2.593 7.093-5.872 11.784-9.285 13.426-.513.027-1.029.047-1.546.059v-12.526a73.676 73.676 0 0 0 10.83-.959z" fill="url(#b)" mask="url(#c)"/>
        </g>
        <path d="m83.643 85.418-.101-.034.101.034m1.3.493-.1-.04.1.04m1.243.549-.055-.026.055.026m11.405-32.626c0-2.284-.059-4.574-.371-6.84-.309-2.242-.799-5.234-2.691-6.742a3.175 3.175 0 0 0-1.828-.685c-3.565-.195-5.393 4.145-6.318 6.886-.533 1.58-.944 3.202-1.294 4.833a83.21 83.21 0 0 0-.986 5.606c-.289 2.01-.523 4.029-.72 6.05-.2 2.053-.364 4.108-.499 6.166-.13 1.982-.236 3.967-.32 5.952a327.838 327.838 0 0 0-.241 7.807c-.004.185-.12 2.097-.038 2.12a24.15 24.15 0 0 0-4.098-.796 22.975 22.975 0 0 0-2.893-.12c1.88-12.995-3.074-17.344-3.074-17.344-13.536-5.58-21.55-2.445-21.55-2.445-12.134 9.8-8.17 24.808.565 24.423 11.279-.496 7.476-9.58 9.874-16.149 6.313 2.074 5.627 9.876 4.88 13.678-7.908 3.599-13.377 10.974-14.06 16.678-.8 6.679 5.195 12.245 14.625 15.045a58.51 58.51 0 0 0-1.043 4.772c-.181.036-.384.076-.603.116-.702.128-1.58.256-2.498.256-2.459 0-5.207-.92-5.657-5.224.448-.142.948-.437.89-1.036-.068-.676-.247-.903-.471-.903-.316 0-.723.45-1.035.739-.102-.226-.156-.52-.07-.932.248-.526.475-1.252-.05-1.441a1.514 1.514 0 0 0-.502-.105c-.47 0-.61.394-.35 1.135l.048.08c-.085.02-.172.045-.262.081-.172-.385-.453-.827-.84-.827a.63.63 0 0 0-.331.103c-.731.449-.486 1.096.147 1.557-.044.06-.089.121-.132.188-.176-.174-.46-.412-.699-.412-.124 0-.236.064-.314.237-.252.561.097.902.596.978l-.023.053c-.612 1.499.548 10.301 6.04 10.301 1.544 0 2.442 1.749 4.727 0-.755 5.28-.018 8.308 0 12.875.012 2.96.136 5.54.309 7.439a41.697 41.697 0 0 0 .14 1.313c.138 1.088.291 1.794.438 2.012.54.8 1.765 1.117 2.826 1.117.725 0 1.374-.148 1.676-.393.746-.603-.306-1.197-.306-1.197.045-.58.29-1.409.603-2.267a28.192 28.192 0 0 1 .544-1.381c.54-1.292 1.067-2.36 1.067-2.36.966.256 1.917.348 2.78.348.475 0 .922-.028 1.331-.07 1.394-.145 2.335-.465 2.335-.465.517.432.95 1.084 1.31 1.81.118.237.228.483.33.732.123.298.234.6.334.896.529 1.564.76 2.993.76 2.993s-.742 1.354 1.808 1.489c.11.006.215.008.316.008 2.231 0 2.225-1.371 2.225-1.371a61.91 61.91 0 0 0 .494-3.972c.077-.823.14-1.65.19-2.477a91.74 91.74 0 0 0 .145-6.804c-.055-3.894.006-5.343-.335-8.58 1.759 2.425 3.643 4.301 4.796 8.448-.416.037-1.131.206-1.028.932.133.935.695.997 1.525.248.21.018.56.128.549.644-.119.7-.183 1.667.42 1.5.866-.242 1.128-.777.686-1.436.04-.026.077-.056.116-.087.217.433.58.868 1.087.526.778-.525.434-1.206-.3-1.608.019-.043.039-.084.057-.13.357.184 1.015.415 1.1-.322.099-.837-.382-1.063-.935-.874.486-10.127-4.61-12.659-8.934-14.444a115.374 115.374 0 0 0-.463-3.034c9.604-.831 16.55-4.923 17.27-11.778.525-4.988-2.687-11.763-8.261-16.826 1.144-5.909 4.464-24.18 4.464-37.293z" fill="#0C0B1E"/>
    </g>
</svg>
