<svg width="27" height="18" viewBox="0 0 27 18" xmlns="http://www.w3.org/2000/svg">
    <g stroke="#BEBEBE" stroke-width="1.5" fill="none" fill-rule="evenodd" stroke-linecap="round">
        <path d="M1 .836h14.105M1 7.553h10.747M1 14.941h14.105"/>
        <path d="M13.09 14.605a2.015 2.015 0 1 1-4.03 0 2.015 2.015 0 0 1 4.03 0zM8.388 7.888a2.015 2.015 0 1 1-4.03 0 2.015 2.015 0 0 1 4.03 0z" fill="#20123B"/>
        <path d="M25.549 8.07a4.991 4.991 0 1 1-9.982 0 4.991 4.991 0 0 1 9.982 0zM22.984 12.749l1.978 4.091"/>
    </g>
</svg>
