<svg width="56" height="86" viewBox="0 0 56 86" xmlns="http://www.w3.org/2000/svg" xmlns:xlink="http://www.w3.org/1999/xlink">
    <defs>
        <linearGradient x1="49.816%" y1="99.938%" x2="49.816%" y2="-.073%" id="c">
            <stop stop-color="#FFF" stop-opacity="0" offset="0%"/>
            <stop stop-color="#2A0987" stop-opacity=".5" offset="99.97%"/>
        </linearGradient>
        <linearGradient x1="51.357%" y1="-3.677%" x2="49.34%" y2="76.865%" id="d">
            <stop stop-color="#EFA4AE" offset="0%"/>
            <stop stop-color="#B15ED4" offset="19.843%"/>
            <stop stop-color="#460FE1" offset="100%"/>
        </linearGradient>
        <linearGradient x1="18.368%" y1="7.848%" x2="56.172%" y2="55.301%" id="e">
            <stop stop-color="#EFA4AE" offset="0%"/>
            <stop stop-color="#B15ED4" offset="52.18%"/>
            <stop stop-color="#460FE1" offset="100%"/>
        </linearGradient>
        <linearGradient x1="61.663%" y1="18.313%" x2="16.874%" y2="72.122%" id="f">
            <stop stop-color="#EFA4AE" offset="0%"/>
            <stop stop-color="#B15ED4" offset="49.11%"/>
            <stop stop-color="#460FE1" offset="98.09%"/>
        </linearGradient>
        <path d="M27.826 85.477c15.089 0 27.32-12.232 27.32-27.32C55.147 43.066 52.683 0 37.594 0S-3.984 12.682.505 58.156c0 15.09 12.232 27.321 27.321 27.321z" id="a"/>
    </defs>
    <g transform="translate(.853 .023)" fill="none" fill-rule="evenodd">
        <circle fill="#000" cx="27.826" cy="58.156" r="27.321"/>
        <mask id="b" fill="#fff">
            <use xlink:href="#a"/>
        </mask>
        <g mask="url(#b)">
            <g transform="translate(2.143 11.006)">
                <path d="M39.283 75.916c.429-8.692-4.46-10.179-7.977-11.666 0 0-.858.458-.172 2.145 1.087.372 4.26 5.175 5.604 9.978-.314.03-.886.172-.8.715.114.715.543.772 1.172.2.171 0 .429.086.429.515-.086.543-.143 1.287.314 1.172.686-.2.887-.6.543-1.115.029-.028.058-.057.086-.057.172.343.458.686.858.4.6-.4.343-.943-.229-1.258.029-.028.029-.057.057-.114.286.143.801.314.858-.257.057-.63-.314-.801-.743-.658zM9.719 58.046c-.372 0-.486.315-.286.886l.028.058c-.057.028-.143.028-.2.057-.143-.286-.343-.658-.657-.658a.461.461 0 0 0-.258.086c-.572.343-.371.858.115 1.2-.029.058-.058.087-.115.144-.143-.143-.371-.315-.543-.315-.086 0-.171.057-.257.172-.2.429.086.715.457.772 0 0 0 .028-.028.028-.486 1.173.428 8.006 4.689 8.006 1.2 0 2.659-.543 4.431-1.887.086-.658.2-1.315.315-1.944-.143.028-.286.057-.458.086-.543.085-1.229.2-1.944.2-1.915 0-4.06-.715-4.403-4.06.343-.115.743-.343.686-.8-.057-.516-.2-.716-.371-.716-.258 0-.572.343-.801.572-.086-.171-.114-.4-.057-.715.2-.4.372-.972-.029-1.115a1.028 1.028 0 0 0-.314-.057" fill="#460FE1" fill-rule="nonzero"/>
                <path d="M18.296 60.962c-.314 1.201-.572 2.43-.8 3.717a39.435 39.435 0 0 0-.315 1.945c-.6 4.117-.772 8.348-.772 11.922 0 2.316.115 4.318.229 5.776 0 .114.029.229.029.343l.085.686c.115.858.23 1.401.343 1.573.43.629 1.373.858 2.202.858.572 0 1.058-.115 1.315-.315.572-.457-.228-.943-.228-.943.028-.458.228-1.087.457-1.773.086-.229.172-.486.286-.715.057-.114.086-.229.143-.343.429-1 .829-1.83.829-1.83.743.2 1.487.257 2.173.257.372 0 .715-.028 1.03-.057 1.086-.114 1.83-.371 1.83-.371.4.343.743.829 1.029 1.4.085.172.171.372.257.572l.257.687c.4 1.23.6 2.316.6 2.316s-.571 1.057 1.402 1.172h.257c1.744 0 1.715-1.058 1.715-1.058.115-.686.2-1.372.286-2.059.029-.228.058-.429.058-.657 0-.115.028-.258.028-.372.057-.629.115-1.287.143-1.916.114-1.772.143-3.545.114-5.29-.085-5.775-.771-11.064-1.286-14.152-.944.086-1.916.114-2.917.114-1.343 0-2.744-.086-4.174-.229-2.402-.228-4.603-.657-6.605-1.258" fill="#460FE1" fill-rule="nonzero"/>
                <path d="M24.301 64.315h-.025c-2.836.051-5.182 5.955-5.208 10.157-.026 4.098 2.14 5.104 4.872 5.104h.207c2.835-.052 5.156-1.083 5.181-5.285.026-4.202-2.217-9.976-5.027-9.976" fill="url(#c)" fill-rule="nonzero" style="mix-blend-mode:multiply"/>
                <path d="M38.625.004c-2.773-.143-4.203 3.231-4.918 5.347-.429 1.23-.743 2.488-1 3.746-.315 1.43-.544 2.887-.772 4.346-.23 1.572-.4 3.145-.572 4.717-.143 1.601-.286 3.203-.4 4.804-.115 1.544-.172 3.088-.258 4.632-.057 1.4-.114 2.802-.143 4.203-.028.629-.028 1.23-.057 1.858 0 .143-.086 1.63-.029 1.658 1.401.4 2.717.944 3.975 1.602-.029.057-.086.114-.115.171 1.487.83 3.346 2.002 4.575 3.088.886-4.517 3.488-18.813 3.488-29.078 0-1.773-.057-3.545-.286-5.318-.228-1.744-.629-4.06-2.087-5.232a2.312 2.312 0 0 0-1.4-.544z" fill="url(#d)" fill-rule="nonzero"/>
                <path d="M38.454.004c-.286 0-.572.058-.83.143 1.087.172 3.489 1.344 3.174 8.406-.486 11.723-2.802 24.275-5.89 28.735 1.487.83 2.83 1.802 4.032 2.888.886-4.517 3.488-18.842 3.488-29.078 0-6.176-.944-10.893-3.803-11.094H38.454" fill="#000" fill-rule="nonzero" opacity=".14"/>
                <path d="M22.7 21.105s4.517 3.946 1.915 16.069l-7.148.743s3.517-11.236-4.517-12.552c-.029 0 1.544-7.262 9.75-4.26" fill="url(#e)" fill-rule="nonzero"/>
                <path d="M20.298 20.79h-.229s6.49.258 2.059 14.125a19.752 19.752 0 0 1 2.945-.314c.514-3.717.714-9.75-2.374-13.496 0 0-1.372-.314-2.401-.314" fill="#000" fill-rule="nonzero" opacity=".14"/>
                <path d="M22.7 21.105s-3.975-1.372-7.263 2.23c-4.517 4.918 1.144 14.41-9.064 14.868-6.804.286-9.864-11.38-.428-18.985 0 0 6.233-2.43 16.754 1.887z" fill="url(#f)" fill-rule="nonzero"/>
                <path d="M25.473 34.6h-.4c-1.001.03-1.973.144-2.945.315-1.516.286-2.945.772-4.29 1.373-6.146 2.802-10.407 8.52-10.921 12.98-.63 5.204 4.031 9.521 11.38 11.694 2 .6 4.202 1.03 6.547 1.287 1.43.143 2.83.229 4.174.229 1.001 0 1.973-.029 2.917-.115 7.462-.657 12.866-3.83 13.438-9.149.4-3.917-2.145-9.235-6.548-13.18a22.67 22.67 0 0 0-4.003-2.889c-1.343-.743-2.773-1.372-4.317-1.801a19.484 19.484 0 0 0-3.174-.629c-.6-.086-1.23-.114-1.858-.114" fill="#460FE1" fill-rule="nonzero"/>
                <path d="M34.994 55.673h-.83c-.056 0-.114-.029-.142-.029a6.372 6.372 0 0 1-1.944-.572c-.772-.343-1.487-.8-2.145-1.258-.715-.514-1.43-1.029-2.173-1.515-.457-.314-.915-.6-1.43-.83-.6-.256-1.2-.314-1.83-.085-.428.172-.857.372-1.229.63-.686.485-1.372.943-2.058 1.429-.744.514-1.487 1.03-2.316 1.458-.6.314-1.258.572-1.945.686-.171.029-.314.057-.486.086h-.829c-.028 0-.057 0-.086-.029a5.065 5.065 0 0 1-1.944-.543c-.772-.4-1.315-.972-1.772-1.601a8.223 8.223 0 0 1-1.058-2.345c-.315-1.115-.458-2.258-.515-3.402-.029-.83-.029-1.658.114-2.488a8.67 8.67 0 0 1 .915-2.573c.744-1.286 1.001-1.544 3.145-3.145 3.003-2.259 7.377-3.345 11.237-3.288 4.003.086 9.12 1.573 12.037 4.26.744.686 1.344 1.659 1.802 2.516.486.944.743 1.945.829 3.002 0 .115.028.23.028.344v1.172c0 .028-.028.028-.028.057a16.719 16.719 0 0 1-.2 2.059 13.048 13.048 0 0 1-.658 2.516c-.315.772-.743 1.515-1.372 2.144-.715.715-1.573 1.144-2.66 1.315-.171-.028-.314 0-.457.029z" fill="#000" fill-rule="nonzero"/>
                <path d="M25.57 56.091c-.683.214-.95.3-1.236.14-.541-.304-1.205-.814-1.11-1.45.158-1.055 2.39-1.427 3.441-.49 1.02.907-.343 1.565-1.096 1.8" fill="#2D08B4"/>
                <path d="M24.854 56.092s2.573 3.831 5.691.25M24.54 56.137s-1.368 3.198-4.565-.14" stroke="#2D08B4" stroke-width="1.5" stroke-linecap="round"/>
                <circle fill="#000" fill-rule="nonzero" cx="31.277" cy="49.24" r="1"/>
            </g>
            <g transform="translate(21.414 56.264)" fill-rule="nonzero">
                <path d="M.227 2.867C-.231 1.752.027.58.798.237c.772-.343 1.802.286 2.26 1.4.457 1.116.2 2.288-.573 2.631-.772.343-1.8-.286-2.258-1.4" fill="#460FE1"/>
                <circle fill="#000" cx=".741" cy="3.153" r="1"/>
                <path d="M12.178 2.724c.458-1.115.2-2.287-.572-2.63-.772-.343-1.801.286-2.259 1.4-.457 1.116-.2 2.288.572 2.631.772.343 1.802-.286 2.26-1.4" fill="#460FE1"/>
                <circle fill="#000" cx="9.519" cy="2.896" r="1"/>
            </g>
        </g>
    </g>
</svg>
