<svg width="246" height="98" viewBox="0 0 246 98" xmlns="http://www.w3.org/2000/svg">
    <defs>
        <linearGradient x1="50%" y1="42.904%" x2="51.543%" y2="57.78%" id="a">
            <stop stop-color="#F9A1AF" stop-opacity="0" offset=".087%"/>
            <stop stop-color="#F59EAF" offset="100%"/>
        </linearGradient>
        <linearGradient x1="5.689%" y1="29.941%" x2="101.036%" y2="75.842%" id="b">
            <stop stop-color="#EFA4AE" offset="0%"/>
            <stop stop-color="#B15ED4" offset="52.18%"/>
            <stop stop-color="#460FE1" offset="100%"/>
        </linearGradient>
        <linearGradient x1="14.32%" y1="118.962%" x2="60.551%" y2="-24.581%" id="c">
            <stop stop-color="#F9A1AF" offset="0%"/>
            <stop stop-color="#B15ED4" offset="45.954%"/>
            <stop stop-color="#460FE1" offset="100%"/>
        </linearGradient>
        <linearGradient x1="78.554%" y1="-30.94%" x2="63.927%" y2="65.964%" id="d">
            <stop stop-color="#F9A1AF" offset="0%"/>
            <stop stop-color="#B15ED4" offset="45.954%"/>
            <stop stop-color="#4D14E0" offset="100%"/>
        </linearGradient>
        <linearGradient x1="33.92%" y1="0%" x2="54.548%" y2="87.584%" id="e">
            <stop stop-color="#EFA4AE" offset="0%"/>
            <stop stop-color="#B15ED4" offset="41.974%"/>
            <stop stop-color="#4D14E0" offset="100%"/>
        </linearGradient>
    </defs>
    <g fill="none" fill-rule="evenodd">
        <path d="M0 0h244.133l-46.671 87.285c-2.947 2.842-10.674 4.907-23.18 6.195-12.505 1.288-28.115 2.187-46.83 2.697-19.034.473-36.466-.426-52.297-2.697-15.83-2.27-23.515-4.673-23.054-7.206L0 0z" fill="url(#a)" opacity=".284" transform="translate(.934 .75)"/>
        <g transform="translate(53.5 24.616)" fill-rule="nonzero">
            <ellipse fill="#0C0B1E" cx="72.681" cy="62.873" rx="72.681" ry="9.726"/>
            <path d="M73.983 32.634c-12.732-4.642-15.12 6.587-15.12 6.587.62.088 1.194.265 1.77.442.485-1.282 1.149-2.52 2.121-3.581 5.084-5.57 11.23-3.448 11.23-3.448z" fill="url(#b)" transform="translate(21.244)"/>
            <path d="M48.032 29.716c-14.589 11.804-9.814 29.841.664 29.355 13.572-.619 8.974-11.539 11.892-19.408.486-1.282 1.15-2.52 2.122-3.581 5.084-5.526 11.23-3.448 11.23-3.448-16.27-6.72-25.908-2.918-25.908-2.918z" fill="url(#c)" transform="translate(21.244)"/>
            <path d="m113.973 57.391-.53-.265a.925.925 0 0 1-.178.265c2.3 1.282 5.173 3.095 7.074 4.775 0-.045 0-.089.044-.133-.044-.044-.133-.088-.177-.177a32.706 32.706 0 0 0-6.233-4.465zM113.354 57.037c.044 0 .088.045.088.045-.044 0-.088-.045-.088-.045zM98.19 57.48c.31-1.415.53-2.742.707-3.98-1.547.045-3.05.222-4.553.487-2.344.442-4.554 1.194-6.632 2.122-.31 1.547-.619 2.52-.619 2.52l11.097-1.15z" fill="#460FE1"/>
            <path d="M99.095 61.989c0 .044 0 .088-.045.132l-.044-.044c.044-.088.089-.088.089-.088 1.37-7.118 5.349-29.09 5.349-44.829 0-2.74-.088-5.482-.442-8.223-.354-2.697-.973-6.278-3.227-8.09a3.808 3.808 0 0 0-2.21-.84c-4.29-.221-6.5 4.995-7.605 8.267-.663 1.901-1.15 3.846-1.547 5.791-.487 2.211-.84 4.466-1.194 6.72-.354 2.432-.619 4.863-.884 7.295-.221 2.476-.442 4.951-.62 7.427-.176 2.388-.264 4.775-.397 7.162-.088 2.166-.177 4.333-.221 6.499-.044.973-.044 1.901-.088 2.874 0 .132-.089 1.414-.089 2.52a28.675 28.675 0 0 0-4.863-.929 31.98 31.98 0 0 0-2.874-.132h-.574c2.254-15.606-3.67-20.867-3.67-20.867s-6.145-2.123-11.229 3.448c-.973 1.061-1.636 2.299-2.122 3.58 7.295 2.388 6.587 11.76 5.703 16.535-7.914 3.67-13.793 10.478-15.916 16.579h1.062c7.869 0 15.429-.177 22.502-.486 1.548-.089 3.05-.133 4.51-.221 3.625-.177 7.073-.442 10.389-.708 1.326-.088 2.653-.22 3.935-.353 4.642-.443 8.842-.929 12.6-1.504a33.979 33.979 0 0 0-6.278-7.515zm-32.76-5.173c.354.31 1.415 1.194 2.078 1.548l-2.564.265s.22-.707.486-1.813z" fill="url(#d)" transform="translate(21.244)"/>
            <path d="M47.57 63.315c.088 0 .176.044.265.044 1.326.31 2.652.708 4.023 1.282.973.398 1.857.752 2.697 1.15v-.31a24.412 24.412 0 0 0-3.316-1.856 18.913 18.913 0 0 0-4.819-1.46c-.928-.132-1.9-.22-2.873-.176l.132.796c1.282.088 2.564.265 3.89.53z" fill="#460FE1"/>
            <path d="m34.858 66.498-1.459-1.06c0-11.54-.796-38.507-7.383-40.895-.133-.044-.221-.088-.354-.088-.22-.044-.486-.089-.707-.044h-.044c-1.946.088-3.14 2.077-3.847 5.128-1.635 7.471-.176 22.503 1.238 32.45h-.398a24.91 24.91 0 0 0-1.9.22c-.133.045-.266.045-.398.09-1.017.22-1.99.574-2.918.972-.089.044-.221.088-.31.133-.044.044-.088.044-.132.088-1.813-12.777-5.748-35.103-11.804-36.473h-.089a2.155 2.155 0 0 0-1.06 0C1.7 27.284.772 28.787.33 31.042c-1.768 9.151 4.023 30.903 6.587 39.48 4.112.618 24.67 1.989 33.202 1.945-1.46-2.344-3.183-4.333-5.261-5.969zm-15.34 4.112c-.09-.133-.134-.266-.222-.398.044.132.133.265.221.398zm-.708-1.061c-.089-.133-.221-.221-.31-.31l.31.31zm.398.53c-.089-.177-.221-.31-.354-.442.133.133.221.31.354.442zm-6.013.575c.044-.177.089-.398.133-.575-.044.177-.089.398-.133.575zM16.6 68.09c.133.044.31.088.442.132-.176-.044-.31-.088-.442-.132zm1.769 1.017c-.089-.089-.221-.177-.31-.266.133.089.221.177.31.266zm-.398-.31-.398-.265c.133.044.265.177.398.265zm-.487-.354c-.088-.044-.22-.132-.309-.176a.713.713 0 0 0 .31.176z" fill="url(#e)" transform="translate(21.244)"/>
        </g>
    </g>
</svg>
