<svg width="19" height="24" viewBox="0 0 19 24" xmlns="http://www.w3.org/2000/svg">
    <g fill="none" fill-rule="evenodd">
        <path d="M2.282 23c-2.262-2.749-1.068-7.257 1.519-9.297a.643.643 0 0 0 .239-.597C2.775 5.801 3.855 2.524 3.855 2.524 3.975 1.711 4.791 1 5.606 1c.815 0 1.631.712 1.751 1.524.415 3.578.434 5.068.057 8.654a.642.642 0 0 0 .196.532.651.651 0 0 0 .543.172c.97-.141 1.981-.141 2.952 0a.651.651 0 0 0 .543-.172.643.643 0 0 0 .196-.532c-.377-3.587-.358-5.076.057-8.654.12-.813.936-1.524 1.75-1.524.816 0 1.632.711 1.752 1.524.49 4.227.428 6.365-.185 10.582a.643.643 0 0 0 .239.597c2.566 2.023 3.558 6.287 1.588 9.083" stroke="#BEBEBE" stroke-width="1.5" stroke-linecap="round"/>
        <path d="M8.086 19a1 1 0 1 1-2 0 1 1 0 0 1 2 0M13.086 19a1 1 0 1 1-2 0 1 1 0 0 1 2 0" fill="#BEBEBE"/>
    </g>
</svg>
