<svg width="42" height="75" viewBox="0 0 42 75" xmlns="http://www.w3.org/2000/svg">
    <defs>
        <linearGradient x1="46.073%" y1="0%" x2="51.787%" y2="67.001%" id="a">
            <stop stop-color="#EFA4AE" offset="0%"/>
            <stop stop-color="#B15ED4" offset="34.804%"/>
            <stop stop-color="#460FE1" offset="100%"/>
        </linearGradient>
        <linearGradient x1="46.952%" y1="0%" x2="51.387%" y2="67.001%" id="b">
            <stop stop-color="#EFA4AE" offset="0%"/>
            <stop stop-color="#B15ED4" offset="34.804%"/>
            <stop stop-color="#460FE1" offset="100%"/>
        </linearGradient>
    </defs>
    <g transform="rotate(-5 38.763 -8.915)" fill="none" fill-rule="evenodd">
        <path d="M3.531 2.132c-.035 0-.035 0 0 0h-.07a1.72 1.72 0 0 0-.847 0C1.344 2.344.602 3.544.25 5.343c-1.588 8.258 4.87 29.643 6.175 33.772.777-1.024 1.694-2.082 2.717-3.211.142-.142.283-.283.424-.46a17.442 17.442 0 0 1 3.705-2.752c-1.164-9.21-4.34-29.36-9.74-30.56z" fill="url(#a)" fill-rule="nonzero"/>
        <path d="M3.46 2.132a1.72 1.72 0 0 0-.846 0C1.344 2.344.602 3.544.25 5.343c-1.588 8.258 4.87 29.643 6.175 33.772.777-1.024 1.694-2.082 2.717-3.211.142-.142.283-.283.424-.46-3.211-3.81-6.529-14.891-8.081-25.407C.532 3.685 2.579 2.379 3.53 2.132h-.07" fill="#000" fill-rule="nonzero" opacity=".14"/>
        <path d="M20.823.156c-.106-.036-.176-.07-.282-.07-.177-.036-.388-.071-.565-.036h-.035c-1.553.07-2.506 1.658-3.07 4.093-1.412 6.352.035 18.668 1.2 26.538.988.07 2.011.212 3.07.423.07 0 .14.036.211.036a19.85 19.85 0 0 1 3.212 1.023c.776.318 1.482.6 2.152.917.036-8.54-.423-30.983-5.893-32.924z" fill="url(#b)" fill-rule="nonzero"/>
        <path d="M20.505.05c-.176-.035-.388-.07-.564-.035h-.035c-1.553.07-2.506 1.658-3.07 4.093-1.412 6.352.035 18.668 1.2 26.537.987.071 2.01.212 3.07.424.07 0 .14.035.211.035C19.341 25.776 18 16.46 17.788 7.708 17.612 1.285 19.835.262 20.823.12c-.106 0-.212-.035-.318-.07" fill="#000" fill-rule="nonzero" opacity=".14"/>
        <g transform="translate(3.73 30.068)">
            <path d="M18.18.154c.106.035.212.035.318.07.812.177 1.588.46 2.33.777 1.164.53 2.222 1.235 3.21 2.082 4.447 3.811 6.776 10.34 6.352 14.962-.423 4.517-4.375 7.835-8.328 9.81-2.011 1.024-3.74 2.012-5.999 2.083-2.364.07-4.411-.953-6.564-1.8-2.752-1.094-6.105-2.223-7.763-4.835-1.306-2.011-1.8-4.41-1.73-6.775.142-4.8 2.435-9.952 6.282-12.916 1.2-.917 2.47-1.694 3.811-2.294A15.097 15.097 0 0 1 13.946.154c.882-.141 1.8-.177 2.717-.141.53-.036 1.023.035 1.517.14" fill="#460FE1" fill-rule="nonzero"/>
            <path d="M16.209 20.463c.675.28.588.24.852.031.498-.393 1.088-1.014.89-1.642-.329-1.041-2.81-1.178-3.557.054-.633 1.043.771 1.123 1.815 1.557" fill="#2D08B4"/>
            <path d="M16.693 20.879s-.41 3.2-3.176 1.203M17.013 20.824s2.567 2.292 3.047-1.003" stroke="#2D08B4" stroke-width="1.3" stroke-linecap="round"/>
            <circle fill="#000" fill-rule="nonzero" cx="23.058" cy="10.952" r="1"/>
        </g>
        <path d="M10.942 39.574c-.811-1.941-.353-4.023 1.024-4.623 1.376-.6 3.14.494 3.952 2.47.812 1.94.353 4.023-1.023 4.623-1.341.6-3.141-.494-3.953-2.47" fill="#460FE1" fill-rule="nonzero"/>
        <circle fill="#000" fill-rule="nonzero" cx="14.259" cy="39.962" r="1"/>
        <path d="M2.19 39.044c.036-1.34 1.13-2.117 2.188-1.552 1.977 1.023 3.988 1.129 6.07.67 1.906-.423 3.811.353 5.54 1.73 1.589 1.234 1.977 1.128 2.718-.671.847-2.153 2.188-3.776 4.164-4.376 2.011-.6 3.635-1.73 4.8-3.529.634-.988 1.94-.812 2.646.282 2.047 3.282 2.54 8.223.917 11.681-1.976 4.235-6.352 5.434-10.163 2.823-2.4-1.659-2.364-1.623-3.635.882-1.482 3-3.776 4.482-6.881 4.023-3.317-.494-5.717-2.823-7.27-6.422-.776-1.835-1.164-3.67-1.094-5.54z" fill="#000" fill-rule="nonzero"/>
        <g transform="translate(8.792 37.837)" fill-rule="nonzero">
            <path d="M.552 6.85C.517 5.792 1.734 5.357 3.223 5.322c1.489-.034 2.68.407 2.715 1.465.034 1.058-1.16 1.902-2.649 1.936C1.8 8.758.586 7.908.552 6.85z" fill="#460FE1"/>
            <circle fill="#000" cx="5.279" cy="7.019" r="1"/>
            <path d="M18.135 1.475c-.612-.796-2.147-.728-3.137.314-.991 1.042-1.633 2.088-.991 2.903.642.816 2.08.765 3.201-.139 1.15-.884 1.569-2.262.927-3.078z" fill="#460FE1"/>
            <circle fill="#000" cx="18.088" cy="2.89" r="1"/>
        </g>
        <circle fill="#460FE1" fill-rule="nonzero" cx="6.672" cy="71.51" r="1"/>
    </g>
</svg>
