<svg width="55" height="75" viewBox="0 0 55 75" xmlns="http://www.w3.org/2000/svg">
    <defs>
        <linearGradient x1="51.357%" y1="-3.677%" x2="49.34%" y2="76.865%" id="a">
            <stop stop-color="#EFA4AE" offset="0%"/>
            <stop stop-color="#B15ED4" offset="19.843%"/>
            <stop stop-color="#460FE1" offset="100%"/>
        </linearGradient>
        <linearGradient x1="18.368%" y1="7.848%" x2="56.172%" y2="55.301%" id="b">
            <stop stop-color="#EFA4AE" offset="0%"/>
            <stop stop-color="#B15ED4" offset="52.18%"/>
            <stop stop-color="#460FE1" offset="100%"/>
        </linearGradient>
        <linearGradient x1="61.663%" y1="18.313%" x2="16.874%" y2="72.122%" id="c">
            <stop stop-color="#EFA4AE" offset="0%"/>
            <stop stop-color="#B15ED4" offset="49.11%"/>
            <stop stop-color="#460FE1" offset="98.09%"/>
        </linearGradient>
    </defs>
    <g fill="none" fill-rule="evenodd">
        <g transform="translate(.64)">
            <path d="M46.225.005c-3.32-.17-5.03 3.867-5.886 6.399-.513 1.471-.89 2.977-1.197 4.482-.377 1.711-.65 3.456-.924 5.201-.274 1.882-.48 3.764-.685 5.646a325.284 325.284 0 0 0-.479 5.749c-.136 1.848-.205 3.695-.308 5.543-.068 1.677-.136 3.353-.17 5.03-.035.753-.035 1.471-.07 2.224 0 .171-.102 1.95-.033 1.985 1.676.479 3.25 1.129 4.756 1.916-.034.068-.103.137-.137.205 1.78.993 4.004 2.395 5.475 3.696 1.06-5.407 4.174-22.515 4.174-34.8 0-2.12-.068-4.242-.342-6.364-.274-2.087-.753-4.859-2.498-6.262-.479-.41-1.06-.616-1.676-.65z" fill="url(#a)" fill-rule="nonzero"/>
            <path d="M46.02.005a3.18 3.18 0 0 0-.993.171c1.3.206 4.175 1.609 3.798 10.06-.581 14.03-3.353 29.05-7.049 34.389a26.192 26.192 0 0 1 4.825 3.456c1.06-5.407 4.175-22.55 4.175-34.8 0-7.39-1.13-13.036-4.551-13.276H46.02" fill="#000" fill-rule="nonzero" opacity=".14"/>
            <path d="M27.166 25.258s5.406 4.722 2.292 19.23l-8.554.89s4.209-13.448-5.407-15.022c-.034 0 1.848-8.691 11.669-5.098" fill="url(#b)" fill-rule="nonzero"/>
            <path d="M24.291 24.881h-.273s7.767.308 2.463 16.904a23.638 23.638 0 0 1 3.525-.377c.616-4.448.855-11.668-2.84-16.15 0 0-1.643-.377-2.875-.377" fill="#000" fill-rule="nonzero" opacity=".14"/>
            <path d="M27.166 25.258s-4.757-1.643-8.692 2.669c-5.406 5.885 1.37 17.245-10.847 17.793C-.516 46.062-4.178 32.1 7.114 23c0 0 7.46-2.91 20.052 2.258z" fill="url(#c)" fill-rule="nonzero"/>
            <path d="M30.485 41.408h-.479a24.134 24.134 0 0 0-3.525.377c-1.813.342-3.524.924-5.132 1.642C13.992 46.78 8.893 53.624 8.278 58.962c-.753 6.227 4.824 11.394 13.618 13.995 2.395.718 5.03 1.232 7.836 1.54 1.71.17 3.387.273 4.996.273 1.197 0 2.36-.034 3.49-.137 8.93-.787 15.398-4.585 16.082-10.95.479-4.687-2.566-11.051-7.836-15.773a27.131 27.131 0 0 0-4.79-3.456c-1.608-.89-3.32-1.643-5.167-2.156-1.232-.342-2.498-.616-3.798-.753a15.848 15.848 0 0 0-2.224-.137" fill="#460FE1" fill-rule="nonzero"/>
            <path d="M41.88 66.627h-.993c-.069 0-.137-.035-.171-.035a7.625 7.625 0 0 1-2.327-.684c-.924-.41-1.78-.958-2.566-1.506-.856-.615-1.711-1.231-2.6-1.813-.548-.376-1.096-.719-1.712-.992-.718-.308-1.437-.377-2.19-.103-.513.205-1.026.445-1.471.753-.821.581-1.643 1.129-2.464 1.71-.89.617-1.779 1.232-2.771 1.746-.719.376-1.506.684-2.327.82-.205.035-.377.07-.582.104h-.992c-.034 0-.069 0-.103-.035-.821-.068-1.608-.273-2.327-.65-.923-.479-1.574-1.163-2.121-1.916a9.84 9.84 0 0 1-1.266-2.806c-.376-1.334-.548-2.703-.616-4.072-.034-.992-.034-1.984.137-2.977.205-1.06.547-2.087 1.095-3.08.89-1.539 1.197-1.847 3.764-3.763 3.593-2.703 8.828-4.003 13.447-3.935 4.79.103 10.916 1.882 14.406 5.098.89.822 1.608 1.985 2.155 3.011.582 1.13.89 2.327.993 3.593 0 .137.034.274.034.41v1.404c0 .034-.034.034-.034.068a20.008 20.008 0 0 1-.24 2.464c-.17 1.026-.41 2.019-.787 3.011-.376.924-.89 1.814-1.642 2.566-.856.856-1.882 1.369-3.182 1.574-.206-.034-.377 0-.548.035z" fill="#000" fill-rule="nonzero"/>
            <path d="M30.6 67.127c-.816.256-1.135.36-1.478.167-.648-.364-1.442-.973-1.329-1.735.19-1.262 2.86-1.708 4.119-.587 1.22 1.086-.411 1.874-1.312 2.155" fill="#2D08B4"/>
            <path d="M29.744 67.128s3.079 4.585 6.81.3M29.367 67.182s-1.636 3.828-5.462-.167" stroke="#2D08B4" stroke-width="1.3" stroke-linecap="round"/>
            <circle fill="#000" fill-rule="nonzero" cx="37.431" cy="58.928" r="1"/>
        </g>
        <g transform="translate(23.702 54.162)" fill-rule="nonzero">
            <path d="M.271 3.431C-.276 2.097.031.694.956.283c.923-.41 2.155.342 2.703 1.677.547 1.334.24 2.737-.685 3.148C2.051 5.518.82 4.766.271 3.43" fill="#460FE1"/>
            <circle fill="#000" cx=".887" cy="3.773" r="1"/>
            <path d="M14.574 3.26c.548-1.334.24-2.737-.684-3.148-.924-.41-2.156.342-2.703 1.677-.548 1.334-.24 2.737.684 3.148.924.41 2.156-.342 2.703-1.677" fill="#460FE1"/>
            <circle fill="#000" cx="11.392" cy="3.465" r="1"/>
        </g>
    </g>
</svg>
