<svg width="89" height="105" viewBox="0 0 89 105" xmlns="http://www.w3.org/2000/svg">
    <defs>
        <linearGradient x1="46.073%" y1="0%" x2="51.787%" y2="67.001%" id="a">
            <stop stop-color="#EFA4AE" offset="0%"/>
            <stop stop-color="#B15ED4" offset="34.804%"/>
            <stop stop-color="#460FE1" offset="100%"/>
        </linearGradient>
        <linearGradient x1="46.952%" y1="0%" x2="51.387%" y2="67.001%" id="b">
            <stop stop-color="#EFA4AE" offset="0%"/>
            <stop stop-color="#B15ED4" offset="34.804%"/>
            <stop stop-color="#460FE1" offset="100%"/>
        </linearGradient>
        <linearGradient x1="51.357%" y1="-3.677%" x2="49.34%" y2="76.865%" id="c">
            <stop stop-color="#EFA4AE" offset="0%"/>
            <stop stop-color="#B15ED4" offset="19.843%"/>
            <stop stop-color="#460FE1" offset="100%"/>
        </linearGradient>
        <linearGradient x1="18.368%" y1="7.848%" x2="56.172%" y2="55.301%" id="d">
            <stop stop-color="#EFA4AE" offset="0%"/>
            <stop stop-color="#B15ED4" offset="52.18%"/>
            <stop stop-color="#460FE1" offset="100%"/>
        </linearGradient>
        <linearGradient x1="61.663%" y1="18.313%" x2="16.874%" y2="72.122%" id="e">
            <stop stop-color="#EFA4AE" offset="0%"/>
            <stop stop-color="#B15ED4" offset="49.11%"/>
            <stop stop-color="#460FE1" offset="98.09%"/>
        </linearGradient>
    </defs>
    <g fill="none" fill-rule="evenodd">
        <g transform="rotate(-5 382.319 6.085)">
            <path d="M3.531 2.132c-.035 0-.035 0 0 0h-.07a1.72 1.72 0 0 0-.847 0C1.344 2.344.602 3.544.25 5.343c-1.588 8.258 4.87 29.643 6.175 33.772.777-1.024 1.694-2.082 2.717-3.211.142-.142.283-.283.424-.46a17.442 17.442 0 0 1 3.705-2.752c-1.164-9.21-4.34-29.36-9.74-30.56z" fill="url(#a)" fill-rule="nonzero"/>
            <path d="M3.46 2.132a1.72 1.72 0 0 0-.846 0C1.344 2.344.602 3.544.25 5.343c-1.588 8.258 4.87 29.643 6.175 33.772.777-1.024 1.694-2.082 2.717-3.211.142-.142.283-.283.424-.46-3.211-3.81-6.529-14.891-8.081-25.407C.532 3.685 2.579 2.379 3.53 2.132h-.07" fill="#000" fill-rule="nonzero" opacity=".14"/>
            <path d="M20.823.156c-.106-.036-.176-.07-.282-.07-.177-.036-.388-.071-.565-.036h-.035c-1.553.07-2.506 1.658-3.07 4.093-1.412 6.352.035 18.668 1.2 26.538.988.07 2.011.212 3.07.423.07 0 .14.036.211.036a19.85 19.85 0 0 1 3.212 1.023c.776.318 1.482.6 2.152.917.036-8.54-.423-30.983-5.893-32.924z" fill="url(#b)" fill-rule="nonzero"/>
            <path d="M20.505.05c-.176-.035-.388-.07-.564-.035h-.035c-1.553.07-2.506 1.658-3.07 4.093-1.412 6.352.035 18.668 1.2 26.537.987.071 2.01.212 3.07.424.07 0 .14.035.211.035C19.341 25.776 18 16.46 17.788 7.708 17.612 1.285 19.835.262 20.823.12c-.106 0-.212-.035-.318-.07" fill="#000" fill-rule="nonzero" opacity=".14"/>
            <g transform="translate(3.73 30.068)">
                <path d="M18.18.154c.106.035.212.035.318.07.812.177 1.588.46 2.33.777 1.164.53 2.222 1.235 3.21 2.082 4.447 3.811 6.776 10.34 6.352 14.962-.423 4.517-4.375 7.835-8.328 9.81-2.011 1.024-3.74 2.012-5.999 2.083-2.364.07-4.411-.953-6.564-1.8-2.752-1.094-6.105-2.223-7.763-4.835-1.306-2.011-1.8-4.41-1.73-6.775.142-4.8 2.435-9.952 6.282-12.916 1.2-.917 2.47-1.694 3.811-2.294A15.097 15.097 0 0 1 13.946.154c.882-.141 1.8-.177 2.717-.141.53-.036 1.023.035 1.517.14" fill="#460FE1" fill-rule="nonzero"/>
                <path d="M16.209 20.463c.675.28.588.24.852.031.498-.393 1.088-1.014.89-1.642-.329-1.041-2.81-1.178-3.557.054-.633 1.043.771 1.123 1.815 1.557" fill="#2D08B4"/>
                <path d="M16.693 20.879s-.41 3.2-3.176 1.203M17.013 20.824s2.567 2.292 3.047-1.003" stroke="#2D08B4" stroke-width="1.3" stroke-linecap="round"/>
                <circle fill="#000" fill-rule="nonzero" cx="23.058" cy="10.952" r="1"/>
            </g>
            <path d="M10.942 39.574c-.811-1.941-.353-4.023 1.024-4.623 1.376-.6 3.14.494 3.952 2.47.812 1.94.353 4.023-1.023 4.623-1.341.6-3.141-.494-3.953-2.47" fill="#460FE1" fill-rule="nonzero"/>
            <circle fill="#000" fill-rule="nonzero" cx="14.259" cy="39.962" r="1"/>
            <path d="M2.19 39.044c.036-1.34 1.13-2.117 2.188-1.552 1.977 1.023 3.988 1.129 6.07.67 1.906-.423 3.811.353 5.54 1.73 1.589 1.234 1.977 1.128 2.718-.671.847-2.153 2.188-3.776 4.164-4.376 2.011-.6 3.635-1.73 4.8-3.529.634-.988 1.94-.812 2.646.282 2.047 3.282 2.54 8.223.917 11.681-1.976 4.235-6.352 5.434-10.163 2.823-2.4-1.659-2.364-1.623-3.635.882-1.482 3-3.776 4.482-6.881 4.023-3.317-.494-5.717-2.823-7.27-6.422-.776-1.835-1.164-3.67-1.094-5.54z" fill="#000" fill-rule="nonzero"/>
            <g transform="translate(8.792 37.837)" fill-rule="nonzero">
                <path d="M.552 6.85C.517 5.792 1.734 5.357 3.223 5.322c1.489-.034 2.68.407 2.715 1.465.034 1.058-1.16 1.902-2.649 1.936C1.8 8.758.586 7.908.552 6.85z" fill="#460FE1"/>
                <circle fill="#000" cx="5.279" cy="7.019" r="1"/>
                <path d="M18.135 1.475c-.612-.796-2.147-.728-3.137.314-.991 1.042-1.633 2.088-.991 2.903.642.816 2.08.765 3.201-.139 1.15-.884 1.569-2.262.927-3.078z" fill="#460FE1"/>
                <circle fill="#000" cx="18.088" cy="2.89" r="1"/>
            </g>
            <circle fill="#460FE1" fill-rule="nonzero" cx="6.672" cy="71.51" r="1"/>
        </g>
        <g transform="translate(34.64)">
            <path d="M46.225.005c-3.32-.17-5.03 3.867-5.886 6.399-.513 1.471-.89 2.977-1.197 4.482-.377 1.711-.65 3.456-.924 5.201-.274 1.882-.48 3.764-.685 5.646a325.284 325.284 0 0 0-.479 5.749c-.136 1.848-.205 3.695-.308 5.543-.068 1.677-.136 3.353-.17 5.03-.035.753-.035 1.471-.07 2.224 0 .171-.102 1.95-.033 1.985 1.676.479 3.25 1.129 4.756 1.916-.034.068-.103.137-.137.205 1.78.993 4.004 2.395 5.475 3.696 1.06-5.407 4.174-22.515 4.174-34.8 0-2.12-.068-4.242-.342-6.364-.274-2.087-.753-4.859-2.498-6.262-.479-.41-1.06-.616-1.676-.65z" fill="url(#c)" fill-rule="nonzero"/>
            <path d="M46.02.005a3.18 3.18 0 0 0-.993.171c1.3.206 4.175 1.609 3.798 10.06-.581 14.03-3.353 29.05-7.049 34.389a26.192 26.192 0 0 1 4.825 3.456c1.06-5.407 4.175-22.55 4.175-34.8 0-7.39-1.13-13.036-4.551-13.276H46.02" fill="#000" fill-rule="nonzero" opacity=".14"/>
            <path d="M27.166 25.258s5.406 4.722 2.292 19.23l-8.554.89s4.209-13.448-5.407-15.022c-.034 0 1.848-8.691 11.669-5.098" fill="url(#d)" fill-rule="nonzero"/>
            <path d="M24.291 24.881h-.273s7.767.308 2.463 16.904a23.638 23.638 0 0 1 3.525-.377c.616-4.448.855-11.668-2.84-16.15 0 0-1.643-.377-2.875-.377" fill="#000" fill-rule="nonzero" opacity=".14"/>
            <path d="M27.166 25.258s-4.757-1.643-8.692 2.669c-5.406 5.885 1.37 17.245-10.847 17.793C-.516 46.062-4.178 32.1 7.114 23c0 0 7.46-2.91 20.052 2.258z" fill="url(#e)" fill-rule="nonzero"/>
            <path d="M30.485 41.408h-.479a24.134 24.134 0 0 0-3.525.377c-1.813.342-3.524.924-5.132 1.642C13.992 46.78 8.893 53.624 8.278 58.962c-.753 6.227 4.824 11.394 13.618 13.995 2.395.718 5.03 1.232 7.836 1.54 1.71.17 3.387.273 4.996.273 1.197 0 2.36-.034 3.49-.137 8.93-.787 15.398-4.585 16.082-10.95.479-4.687-2.566-11.051-7.836-15.773a27.131 27.131 0 0 0-4.79-3.456c-1.608-.89-3.32-1.643-5.167-2.156-1.232-.342-2.498-.616-3.798-.753a15.848 15.848 0 0 0-2.224-.137" fill="#460FE1" fill-rule="nonzero"/>
            <path d="M41.88 66.627h-.993c-.069 0-.137-.035-.171-.035a7.625 7.625 0 0 1-2.327-.684c-.924-.41-1.78-.958-2.566-1.506-.856-.615-1.711-1.231-2.6-1.813-.548-.376-1.096-.719-1.712-.992-.718-.308-1.437-.377-2.19-.103-.513.205-1.026.445-1.471.753-.821.581-1.643 1.129-2.464 1.71-.89.617-1.779 1.232-2.771 1.746-.719.376-1.506.684-2.327.82-.205.035-.377.07-.582.104h-.992c-.034 0-.069 0-.103-.035-.821-.068-1.608-.273-2.327-.65-.923-.479-1.574-1.163-2.121-1.916a9.84 9.84 0 0 1-1.266-2.806c-.376-1.334-.548-2.703-.616-4.072-.034-.992-.034-1.984.137-2.977.205-1.06.547-2.087 1.095-3.08.89-1.539 1.197-1.847 3.764-3.763 3.593-2.703 8.828-4.003 13.447-3.935 4.79.103 10.916 1.882 14.406 5.098.89.822 1.608 1.985 2.155 3.011.582 1.13.89 2.327.993 3.593 0 .137.034.274.034.41v1.404c0 .034-.034.034-.034.068a20.008 20.008 0 0 1-.24 2.464c-.17 1.026-.41 2.019-.787 3.011-.376.924-.89 1.814-1.642 2.566-.856.856-1.882 1.369-3.182 1.574-.206-.034-.377 0-.548.035z" fill="#000" fill-rule="nonzero"/>
            <path d="M30.6 67.127c-.816.256-1.135.36-1.478.167-.648-.364-1.442-.973-1.329-1.735.19-1.262 2.86-1.708 4.119-.587 1.22 1.086-.411 1.874-1.312 2.155" fill="#2D08B4"/>
            <path d="M29.744 67.128s3.079 4.585 6.81.3M29.367 67.182s-1.636 3.828-5.462-.167" stroke="#2D08B4" stroke-width="1.3" stroke-linecap="round"/>
            <circle fill="#000" fill-rule="nonzero" cx="37.431" cy="58.928" r="1"/>
        </g>
        <g transform="translate(57.702 54.162)" fill-rule="nonzero">
            <path d="M.271 3.431C-.276 2.097.031.694.956.283c.923-.41 2.155.342 2.703 1.677.547 1.334.24 2.737-.685 3.148C2.051 5.518.82 4.766.271 3.43" fill="#460FE1"/>
            <circle fill="#000" cx=".887" cy="3.773" r="1"/>
            <path d="M14.574 3.26c.548-1.334.24-2.737-.684-3.148-.924-.41-2.156.342-2.703 1.677-.548 1.334-.24 2.737.684 3.148.924.41 2.156-.342 2.703-1.677" fill="#460FE1"/>
            <circle fill="#000" cx="11.392" cy="3.465" r="1"/>
        </g>
    </g>
</svg>
