<svg width="259" height="241" viewBox="0 0 259 241" xmlns="http://www.w3.org/2000/svg">
    <defs>
        <linearGradient x1="46.073%" y1="0%" x2="51.787%" y2="67.001%" id="d">
            <stop stop-color="#EFA4AE" offset="0%"/>
            <stop stop-color="#B15ED4" offset="34.804%"/>
            <stop stop-color="#460FE1" offset="100%"/>
        </linearGradient>
        <linearGradient x1="46.952%" y1="0%" x2="51.387%" y2="67.001%" id="e">
            <stop stop-color="#EFA4AE" offset="0%"/>
            <stop stop-color="#B15ED4" offset="34.804%"/>
            <stop stop-color="#460FE1" offset="100%"/>
        </linearGradient>
        <linearGradient x1="49.999%" y1="100.085%" x2="49.999%" y2=".026%" id="f">
            <stop stop-color="#FFF" stop-opacity="0" offset="0%"/>
            <stop stop-color="#2A0987" stop-opacity=".5" offset="99.97%"/>
        </linearGradient>
        <linearGradient x1="49.816%" y1="99.938%" x2="49.816%" y2="-.073%" id="g">
            <stop stop-color="#FFF" stop-opacity="0" offset="0%"/>
            <stop stop-color="#2A0987" stop-opacity=".5" offset="99.97%"/>
        </linearGradient>
        <linearGradient x1="51.357%" y1="-3.677%" x2="49.34%" y2="76.865%" id="h">
            <stop stop-color="#EFA4AE" offset="0%"/>
            <stop stop-color="#B15ED4" offset="19.843%"/>
            <stop stop-color="#460FE1" offset="100%"/>
        </linearGradient>
        <linearGradient x1="18.368%" y1="7.848%" x2="56.172%" y2="55.301%" id="i">
            <stop stop-color="#EFA4AE" offset="0%"/>
            <stop stop-color="#B15ED4" offset="52.18%"/>
            <stop stop-color="#460FE1" offset="100%"/>
        </linearGradient>
        <linearGradient x1="61.663%" y1="18.313%" x2="16.874%" y2="72.122%" id="j">
            <stop stop-color="#EFA4AE" offset="0%"/>
            <stop stop-color="#B15ED4" offset="49.11%"/>
            <stop stop-color="#460FE1" offset="98.09%"/>
        </linearGradient>
        <path id="a" d="M0 0h18.256v12.193H0z"/>
        <path id="b" d="M0 0h9.43v18.744H0z"/>
        <radialGradient cx="50%" cy="38.168%" fx="50%" fy="38.168%" r="30.954%" gradientTransform="matrix(0 1 -1.43451 0 1.048 -.118)" id="c">
            <stop stop-color="#2A2669" offset="0%"/>
            <stop stop-color="#0C0B1E" offset="100%"/>
        </radialGradient>
    </defs>
    <g transform="translate(.883)" fill="none" fill-rule="evenodd">
        <path d="M85.09 118.05a2.449 2.449 0 1 0-4.897-.001 2.449 2.449 0 0 0 4.898 0" fill="#EFA4AE"/>
        <path d="M87.658 39.046c-.774.232-1.592-.196-1.817-.948-.225-.753.224-1.559.999-1.79l12.83-3.834c.775-.231 1.593.195 1.818.949.224.752-.225 1.557-1 1.79l-12.83 3.833z" fill="#7F4DFF"/>
        <path d="M198.444 22.22c-.774.23-1.592-.197-1.817-.95-.226-.753.224-1.558.999-1.79l12.83-3.833c.774-.232 1.592.195 1.818.948.224.752-.226 1.558-1 1.79l-12.83 3.834z" fill="#EFA4AE"/>
        <path d="M197.53 76.505c-.774.231-1.592-.196-1.817-.949-.225-.753.225-1.558.999-1.79l12.83-3.833c.775-.232 1.592.195 1.817.948.225.752-.224 1.558-.999 1.79l-12.83 3.834z" fill="#7F4DFF"/>
        <path d="M1.875 43.83c-.774.23-1.592-.197-1.817-.95-.225-.753.225-1.558.999-1.79l12.83-3.833c.775-.232 1.593.195 1.818.948.224.752-.225 1.558-1 1.79L1.876 43.83z" fill="#A4FFF5" opacity=".585"/>
        <path d="M202.003 215.296c-.774.231-1.592-.197-1.818-.95-.225-.752.226-1.557 1-1.789l12.83-3.834c.774-.23 1.592.195 1.817.949.225.752-.224 1.558-.999 1.79l-12.83 3.834z" fill="#00FFE3"/>
        <path d="M56.476 163.157c-.774.232-1.592-.196-1.817-.948-.225-.754.224-1.56.999-1.79l12.83-3.834c.775-.232 1.592.195 1.818.948.224.753-.225 1.558-1 1.79l-12.83 3.834z" fill="#EFA4AE"/>
        <path d="M141.118 45.323c.327-.738 1.185-1.081 1.902-.762.718.32 1.038 1.184.71 1.923l-5.436 12.238c-.329.74-1.185 1.082-1.903.763-.718-.319-1.038-1.185-.71-1.924l5.437-12.238z" fill="#6CD6FE" opacity=".585"/>
        <path d="M136.394 154.517c-.265-.763.126-1.599.868-1.856.743-.258 1.567.156 1.832.92l4.39 12.651c.265.763-.126 1.6-.868 1.856-.742.259-1.567-.156-1.832-.92l-4.39-12.65zM99.175 80.639a2.45 2.45 0 1 0-4.899 0 2.45 2.45 0 0 0 4.9 0" fill="#7F4DFF"/>
        <path d="M4.997 124.518a2.45 2.45 0 1 0-4.899 0 2.45 2.45 0 0 0 4.899 0" fill="#6CD6FE"/>
        <path d="M180.78 56.252a2.45 2.45 0 1 0-4.9.001 2.45 2.45 0 0 0 4.9 0" fill="#00FFE3"/>
        <path d="M146.016 22.735a2.45 2.45 0 1 0-4.9 0 2.45 2.45 0 0 0 4.9 0M257.5 60.14a2.45 2.45 0 1 0-4.9 0 2.45 2.45 0 0 0 4.9 0" fill="#6CD6FE" opacity=".585"/>
        <path d="M239.813 92.777a1.427 1.427 0 0 1-1.376-2.23c.008-.011 1.24-1.85.726-3.488-.313-1-1.27-1.814-2.844-2.416-2.59-.994-4.13-2.48-4.575-4.42-.73-3.176 1.872-6.067 2.17-6.387a1.43 1.43 0 0 1 2.09 1.951c-.526.568-1.812 2.356-1.474 3.803.222.952 1.168 1.755 2.811 2.385 2.442.936 3.976 2.368 4.557 4.255.916 2.977-1.031 5.828-1.115 5.949a1.423 1.423 0 0 1-.97.598" fill="#EFA4AE"/>
        <path d="M220.329 49.158a1.428 1.428 0 0 1 1.605-2.071c.015.003 2.168.512 3.523-.544.826-.644 1.252-1.825 1.264-3.51.022-2.775.875-4.738 2.535-5.835 2.718-1.798 6.339-.375 6.742-.207a1.43 1.43 0 0 1-1.094 2.64c-.716-.293-2.841-.87-4.078-.045-.814.541-1.234 1.709-1.248 3.468-.02 2.616-.822 4.553-2.386 5.76-2.467 1.902-5.82 1.078-5.962 1.042a1.424 1.424 0 0 1-.901-.698" fill="#6CD6FE" opacity=".585"/>
        <path d="M39.04 41.287a1.429 1.429 0 0 1 1.91 1.793c-.003.014-.712 2.11.21 3.558.565.883 1.7 1.418 3.378 1.59 2.76.282 4.633 1.315 5.57 3.071 1.534 2.876-.224 6.346-.43 6.733a1.429 1.429 0 0 1-2.524-1.339c.358-.685 1.133-2.747.43-4.055-.464-.861-1.586-1.389-3.338-1.568-2.601-.266-4.455-1.248-5.51-2.918-1.66-2.635-.525-5.896-.475-6.034.139-.388.428-.68.78-.831" fill="#EFA4AE"/>
        <path d="M158.606.275a1.428 1.428 0 0 1 1.91 1.793c-.004.015-.713 2.11.21 3.558.565.884 1.7 1.418 3.378 1.59 2.759.282 4.633 1.316 5.57 3.072 1.533 2.876-.224 6.346-.429 6.732a1.429 1.429 0 0 1-2.525-1.338c.358-.685 1.133-2.747.429-4.056-.463-.86-1.586-1.388-3.336-1.568-2.602-.265-4.456-1.247-5.51-2.918-1.661-2.634-.525-5.895-.476-6.033.138-.39.429-.68.78-.832" fill="#7F4DFF"/>
        <path d="M95.698 162.809a1.428 1.428 0 0 1 2.44.955c.002.015.122 2.225 1.517 3.226.852.61 2.104.685 3.725.222 2.668-.763 4.791-.5 6.313.782 2.493 2.1 2.15 5.975 2.103 6.41a1.43 1.43 0 0 1-2.842-.305c.078-.768.032-2.97-1.108-3.924-.75-.627-1.988-.7-3.68-.216-2.514.719-4.6.496-6.2-.664-2.52-1.828-2.677-5.278-2.683-5.425-.015-.412.146-.79.415-1.061" fill="#6CD6FE"/>
        <path d="M140.946 200.829a1.429 1.429 0 0 1-2.39 1.076c-.01-.01-1.674-1.47-3.365-1.172-1.032.181-1.962 1.025-2.764 2.508-1.32 2.44-2.993 3.773-4.974 3.964-3.244.313-5.775-2.642-6.053-2.98a1.429 1.429 0 0 1 2.205-1.818c.495.594 2.102 2.101 3.58 1.953.973-.097 1.891-.93 2.729-2.48 1.244-2.3 2.862-3.635 4.81-3.967 3.07-.523 5.645 1.778 5.754 1.877.305.277.462.656.468 1.039" fill="#00FFE3"/>
        <path d="M222.475 145.472a1.428 1.428 0 0 1 .77 2.505c-.01.01-1.666 1.478-1.583 3.193.05 1.047.772 2.075 2.143 3.056 2.256 1.614 3.37 3.44 3.312 5.43-.095 3.258-3.342 5.4-3.712 5.633a1.43 1.43 0 0 1-1.528-2.415c.65-.418 2.347-1.824 2.384-3.309.026-.976-.687-1.992-2.12-3.015-2.126-1.522-3.248-3.295-3.334-5.268-.137-3.112 2.468-5.38 2.58-5.475a1.428 1.428 0 0 1 1.088-.335" fill="#7F4DFF"/>
        <path d="M158.44 134.591a1.427 1.427 0 0 1-.91-2.457c.01-.01 1.58-1.57 1.4-3.278-.11-1.042-.888-2.027-2.312-2.93-2.343-1.483-3.558-3.244-3.614-5.234-.089-3.259 3.033-5.58 3.389-5.834a1.43 1.43 0 0 1 1.662 2.325c-.626.453-2.24 1.954-2.193 3.438.029.977.799 1.95 2.286 2.892 2.21 1.398 3.43 3.105 3.627 5.07.312 3.1-2.161 5.511-2.267 5.612a1.422 1.422 0 0 1-1.068.396" fill="#00FFE3"/>
        <path d="M42.325 136.63a1.427 1.427 0 0 1-.681-2.53c.011-.01 1.717-1.419 1.694-3.136-.014-1.048-.699-2.1-2.035-3.13-2.197-1.691-3.247-3.555-3.12-5.542.21-3.253 3.53-5.279 3.908-5.5a1.429 1.429 0 0 1 1.443 2.468c-.665.393-2.41 1.74-2.5 3.222-.06.976.619 2.015 2.013 3.089 2.072 1.595 3.131 3.407 3.148 5.382.028 3.114-2.655 5.29-2.77 5.38a1.43 1.43 0 0 1-1.1.297" fill="#7F4DFF"/>
        <path d="M165.469 178.493a1.427 1.427 0 0 1 1.479-2.163c.014.002 2.193.381 3.483-.753.786-.693 1.14-1.898 1.052-3.582-.144-2.769.588-4.779 2.18-5.975 2.606-1.958 6.305-.754 6.718-.61.746.26 1.14 1.073.88 1.818a1.426 1.426 0 0 1-1.814.882c-.732-.249-2.89-.697-4.073.2-.78.588-1.129 1.779-1.037 3.536.137 2.612-.55 4.595-2.039 5.893-2.347 2.047-5.744 1.425-5.887 1.397a1.423 1.423 0 0 1-.942-.643" fill="#EFA4AE"/>
        <path d="M15.254 73.67a1.428 1.428 0 0 1 1.966 1.732c-.004.015-.647 2.132.321 3.55.592.865 1.744 1.364 3.426 1.483 2.767.195 4.673 1.169 5.664 2.894 1.623 2.827-.024 6.35-.217 6.744a1.43 1.43 0 0 1-2.566-1.26c.336-.695 1.046-2.78.302-4.066-.49-.846-1.629-1.339-3.385-1.462-2.608-.184-4.493-1.107-5.598-2.744-1.744-2.58-.71-5.876-.666-6.015.126-.393.407-.693.753-.856" fill="#6CD6FE" opacity=".585"/>
        <path d="M28.634 152.614a2.45 2.45 0 1 0-4.898 0 2.45 2.45 0 0 0 4.898 0" fill="#EFA4AE"/>
        <path d="M120.287 130.553a2.45 2.45 0 1 0-4.898 0 2.45 2.45 0 0 0 4.898 0" fill="#6CD6FE" opacity=".585"/>
        <path d="M186.698 133.513a2.45 2.45 0 1 0-4.898 0 2.45 2.45 0 0 0 4.898 0" fill="#7F4DFF"/>
        <path d="M212.908 104.241a2.45 2.45 0 1 0-4.9 0 2.45 2.45 0 0 0 4.9 0" fill="#EFA4AE"/>
        <path d="M61.549 86.396c-.124-.798.41-1.551 1.185-1.671.778-.122 1.514.433 1.64 1.231l2.063 13.231c.124.8-.409 1.551-1.186 1.673-.775.12-1.513-.434-1.638-1.232l-2.064-13.232z" fill="#A4FFF5" opacity=".585"/>
        <path d="M52.62 5.806c-.124-.798.41-1.552 1.186-1.672.777-.121 1.514.433 1.639 1.232l2.063 13.23c.124.8-.408 1.552-1.185 1.673-.776.12-1.514-.433-1.638-1.232L52.62 5.806z" fill="#6CD6FE" opacity=".585"/>
        <path d="M233.843 123.547c-.587-.556-.626-1.478-.087-2.048.54-.572 1.461-.585 2.05-.031l9.737 9.193c.587.555.627 1.476.087 2.048-.538.571-1.461.585-2.049.03l-9.738-9.192z" fill="#A4FFF5" opacity=".585"/>
        <path d="M53.772 191.159c.491-.641 1.405-.774 2.028-.297.625.479.732 1.394.24 2.036l-8.147 10.628c-.492.64-1.404.776-2.027.297-.624-.478-.732-1.394-.24-2.036l8.146-10.628z" fill="#00FFE3"/>
        <path d="M241.41 6.519a2.45 2.45 0 1 0-4.9.001 2.45 2.45 0 0 0 4.9-.001M105.735 14.267a1.429 1.429 0 0 1 1.78-1.923c.014.004 2.115.699 3.556-.234.88-.57 1.407-1.71 1.566-3.388.264-2.762 1.284-4.643 3.033-5.591 2.865-1.554 6.348.179 6.736.381a1.43 1.43 0 0 1-1.321 2.535c-.688-.354-2.755-1.114-4.058-.401-.858.47-1.378 1.595-1.545 3.347-.248 2.604-1.217 4.464-2.88 5.53-2.623 1.68-5.892.567-6.03.518a1.426 1.426 0 0 1-.837-.774" fill="#A4FFF5" opacity=".585"/>
        <ellipse fill="url(#c)" cx="127.15" cy="189.24" rx="114.033" ry="39.607"/>
        <path d="M146.492 221.165a80.769 80.769 0 0 1-1.367-6.347 67.346 67.346 0 0 1-.537-3.32c-1.025-7.032-1.318-14.258-1.318-20.362 0-3.955.195-7.373.39-9.863 0-.195.05-.39.05-.586l.146-1.172c.195-1.464.39-2.392.586-2.685.732-1.074 2.343-1.465 3.76-1.465.976 0 1.806.195 2.246.537.976.781-.391 1.611-.391 1.611.049.782.39 1.856.781 3.028.147.39.293.83.488 1.22.098.196.147.391.245.586.732 1.71 1.416 3.125 1.416 3.125 1.27-.341 2.539-.44 3.71-.44.635 0 1.221.05 1.758.099 1.856.195 3.125.634 3.125.634.684-.586 1.27-1.416 1.758-2.392.147-.293.293-.635.44-.977l.439-1.172a34.56 34.56 0 0 0 1.025-3.955s-.976-1.806 2.393-2.002h.44c2.978 0 2.929 1.807 2.929 1.807.195 1.172.342 2.344.488 3.516.05.39.098.732.098 1.123 0 .195.049.439.049.634.097 1.075.195 2.198.244 3.272.195 3.027.244 6.054.195 9.033-.146 9.863-1.318 18.896-2.197 24.17-1.611-.147-3.272-.196-4.98-.196-2.295 0-4.688.147-7.13.39-4.1.392-7.86 1.124-11.279 2.15" fill="#0C0B1E" fill-rule="nonzero"/>
        <g transform="translate(67.004 49.979)" fill-rule="nonzero">
            <path d="M21.254 169.465c-1.057-10.071-15.912-12.69-9.014-28.3 1.46-4.23-.201-3.374.151-7.856.303-3.676-.05-7.604 4.734-7.604 1.007 0 1.863.201 2.316.554 1.008.806-.402 1.662-.402 1.662.05.805.402 1.913.805 3.122.151.403.302.856.504 1.259.1.201.15.403.252.604a88.396 88.396 0 0 0 1.46 3.223c1.31-.353 2.619-.453 3.827-.453.655 0 1.259.05 1.813.1 1.913.202 3.223.655 3.223.655.705-.604 1.31-1.46 1.813-2.468.15-.302.302-.654.453-1.007l.453-1.208c.705-2.166 1.058-4.08 1.058-4.08s-1.008-1.862 2.467-2.064h.453c3.072 0 3.022 1.863 3.022 1.863 0 4.331-1.31 9.014-.101 13.244 3.827 13.496-5.64 19.337-8.158 29.409-1.662-.151 3.727.251 1.964.251-2.367 0-4.834.152-7.352.403-4.13.454-8.007 1.209-11.532 2.266" fill="#0C0B1E"/>
            <path d="M5.04 3.042c-.051 0-.051 0 0 0h-.101c-.403-.1-.806-.1-1.209 0C1.917 3.344.86 5.057.356 7.625c-2.266 11.783 6.95 42.3 8.813 48.191 1.107-1.46 2.417-2.97 3.877-4.582.202-.202.403-.403.604-.655 1.41-1.36 3.173-2.77 5.288-3.928C17.276 33.508 12.744 4.754 5.039 3.042z" fill="url(#d)"/>
            <path d="M4.939 3.042c-.403-.1-.806-.1-1.209 0C1.917 3.344.86 5.057.356 7.625c-2.266 11.783 6.95 42.3 8.813 48.191 1.107-1.46 2.417-2.97 3.877-4.582.202-.202.403-.403.604-.655C9.068 45.141 4.334 29.33 2.12 14.322c-1.36-9.064 1.56-10.927 2.92-11.28h-.1" fill="#000" opacity=".14"/>
            <path d="M29.714.222c-.15-.05-.252-.1-.403-.1-.251-.05-.554-.101-.805-.05h-.05c-2.216.1-3.576 2.366-4.382 5.84-2.014 9.065.05 26.64 1.712 37.869 1.41.1 2.87.302 4.381.604.101 0 .202.05.303.05 1.51.353 3.021.806 4.582 1.46 1.108.454 2.115.857 3.072 1.31.05-12.186-.604-44.213-8.41-46.983z" fill="url(#e)"/>
            <path d="M29.261.071c-.252-.05-.554-.1-.806-.05h-.05c-2.216.1-3.575 2.367-4.381 5.841-2.014 9.064.05 26.639 1.712 37.869 1.41.1 2.87.302 4.381.604.1 0 .201.05.302.05C27.6 36.781 25.686 23.487 25.384 11 25.132 1.834 28.304.373 29.714.172c-.15 0-.302-.05-.453-.1" fill="#000" opacity=".14"/>
            <g transform="translate(5.322 42.907)">
                <path d="M39.449 51.889c-2.768-10.646-9.227-10.654-14.019-11.1 0 0-.842.882.578 2.666 1.482.046 7.111 4.645 10.503 9.965-.385.156-.99.546-.7 1.166.375.863.967.729 1.496-.21.2-.028.555-.027.725.458.098.698.331 1.631.845 1.305.749-.461.814-1.08.238-1.56l.086-.113c.355.357.803.65 1.196.188.557-.74.074-1.282-.759-1.42-.007-.049-.014-.099.029-.156.363.051 1.082.102.927-.639-.169-.84-.688-.92-1.145-.55z" fill="#460FE1"/>
                <path d="M15.933 39.7C14.875 49.77.02 52.39 6.919 68c1.46 4.23-.202 3.374.15 7.856.303 3.676-.05 7.603 4.734 7.603 1.007 0 1.863-.201 2.317-.553 1.007-.806-.403-1.662-.403-1.662.05-.806.403-1.914.806-3.122.15-.403.302-.856.503-1.26.1-.2.151-.402.252-.604.755-1.762 1.46-3.222 1.46-3.222 1.31.352 2.619.453 3.827.453.655 0 1.26-.05 1.813-.1 1.914-.202 3.223-.656 3.223-.656.705.605 1.31 1.46 1.813 2.468.151.302.302.655.453 1.007l.453 1.209a35.643 35.643 0 0 1 1.058 4.079s-1.007 1.863 2.467 2.064h.454c3.071 0 3.02-1.863 3.02-1.863 0-4.33-1.308-9.014-.1-13.244 3.827-13.496-5.64-19.337-8.158-29.408-1.661.15 3.727-.252 1.964-.252-2.366 0-4.834-.151-7.352-.403-4.129-.453-8.007-1.208-11.531-2.266" fill="#460FE1"/>
                <path d="M25.943.22c.151.05.302.05.453.1 1.159.252 2.266.655 3.324 1.108 1.662.756 3.172 1.763 4.582 2.971 6.345 5.439 9.669 14.755 9.065 21.352-.605 6.445-6.245 11.179-11.885 13.999-2.87 1.46-5.337 2.87-8.56 2.97-3.374.101-6.295-1.359-9.367-2.567-3.927-1.561-8.711-3.173-11.078-6.9C.614 30.384-.091 26.96.009 23.586c.202-6.848 3.475-14.2 8.964-18.43 1.712-1.31 3.525-2.418 5.438-3.274A21.543 21.543 0 0 1 19.901.22c1.258-.202 2.568-.252 3.877-.202.755-.05 1.46.05 2.165.202" fill="#460FE1"/>
                <circle fill="#000" cx="32.903" cy="15.629" r="1.309"/>
            </g>
            <path d="M15.614 56.47c-1.158-2.769-.503-5.74 1.46-6.596 1.965-.856 4.482.705 5.64 3.525 1.159 2.77.504 5.74-1.46 6.597-1.913.856-4.481-.705-5.64-3.525" fill="#460FE1"/>
            <circle fill="#000" cx="20.348" cy="57.025" r="1.007"/>
            <path d="M3.126 55.716c.05-1.914 1.611-3.022 3.122-2.216 2.82 1.46 5.69 1.611 8.661.957 2.72-.605 5.439.503 7.906 2.467 2.266 1.763 2.82 1.612 3.878-.957 1.208-3.071 3.122-5.388 5.942-6.244 2.87-.856 5.187-2.467 6.848-5.036.907-1.41 2.77-1.158 3.777.403 2.92 4.683 3.626 11.733 1.31 16.668-2.82 6.043-9.065 7.755-14.503 4.029-3.425-2.367-3.374-2.317-5.187 1.259-2.115 4.28-5.388 6.395-9.82 5.74-4.733-.705-8.157-4.028-10.373-9.164-1.108-2.619-1.662-5.238-1.561-7.906z" fill="#000"/>
            <path d="M27.146 88.498h-.05c-4.482.1-8.209 9.417-8.259 16.064-.05 6.496 3.374 8.057 7.705 8.057h.352c4.482-.101 8.158-1.712 8.208-8.36.05-6.596-3.474-15.761-7.956-15.761" fill="url(#f)" style="mix-blend-mode:multiply"/>
            <g transform="translate(12.546 53.993)">
                <path d="M.787 9.774c-.05-1.51 1.688-2.13 3.812-2.18 2.125-.049 3.824.58 3.874 2.09.05 1.51-1.655 2.715-3.78 2.764-2.124.05-3.857-1.164-3.906-2.674z" fill="#460FE1"/>
                <circle fill="#000" cx="7.534" cy="10.017" r="1.007"/>
                <path d="M25.879 2.105c-.874-1.136-3.064-1.04-4.477.448-1.414 1.486-2.33 2.979-1.414 4.143.915 1.164 2.969 1.092 4.568-.199 1.64-1.262 2.238-3.228 1.323-4.392z" fill="#460FE1"/>
                <circle fill="#000" cx="25.812" cy="4.124" r="1"/>
            </g>
            <circle fill="#460FE1" cx="9.521" cy="102.044" r="1"/>
            <path d="M30.947 95.455c0-.15 0-.302-.05-.554-.1-.554-.907-.453-1.46-.302-.454 0-.705-.1-.957-.201.352-.252.856-.605.906-.957.05-.252-.15-.453-.856-.604-.604-.151-.957.302-1.208.755-4.331-1.158-4.835-4.079-4.432-6.597.151-.957.403-1.813.655-2.518.05-.201.15-.402.201-.604h-2.618c-2.166 2.065-3.173 3.878-3.374 5.439-.856 5.59 7.956 8.157 9.568 7.805h.05c0 .504.302.906.906.755.202-.05.252-.15.302-.302.05-.252-.15-.554-.302-.755.05-.05.151-.05.202-.1.352.704 1.007 1.057 1.56.402.102-.1.152-.201.152-.302.05-.403-.353-.755-.705-1.007.05-.101.1-.151.1-.252l.05.05c.807.403 1.21.302 1.31-.15" fill="#460FE1"/>
            <ellipse fill="#460FE1" cx="8.514" cy="101.037" rx="2.467" ry="3.021"/>
        </g>
        <g>
            <g transform="translate(115.247 26)">
                <path d="M67.085 129.645c.732-14.844-7.617-17.383-13.623-19.922 0 0-1.465.782-.293 3.662 1.855.635 7.275 8.838 9.57 17.041-.537.05-1.513.293-1.367 1.22.195 1.222.928 1.32 2.002.343.293 0 .732.146.732.879-.146.927-.244 2.197.538 2.002 1.171-.342 1.513-1.026.927-1.905.05-.049.098-.097.147-.097.293.586.781 1.171 1.465.683 1.025-.683.585-1.611-.391-2.148.049-.049.049-.098.098-.196.488.245 1.367.538 1.464-.439.098-1.074-.537-1.367-1.27-1.123zM16.597 99.128c-.635 0-.83.537-.488 1.513l.049.098c-.098.049-.245.049-.342.098-.244-.489-.586-1.123-1.123-1.123a.788.788 0 0 0-.44.146c-.976.586-.634 1.465.196 2.05-.05.099-.098.147-.196.245-.244-.244-.634-.537-.927-.537-.147 0-.293.098-.44.293-.342.732.147 1.22.781 1.318 0 0 0 .049-.048.049-.83 2.002.732 13.672 8.007 13.672 2.051 0 4.541-.928 7.569-3.223.146-1.123.341-2.246.537-3.32-.244.049-.489.098-.782.146-.927.147-2.1.342-3.32.342-3.271 0-6.933-1.22-7.52-6.933.587-.196 1.27-.586 1.173-1.368-.098-.878-.342-1.22-.635-1.22-.44 0-.977.586-1.367.976-.147-.293-.196-.683-.098-1.22.342-.684.635-1.66-.049-1.905a1.755 1.755 0 0 0-.537-.097" fill="#460FE1" fill-rule="nonzero"/>
                <path d="M31.245 104.108a80.768 80.768 0 0 0-1.367 6.348 67.345 67.345 0 0 0-.537 3.32c-1.025 7.031-1.318 14.258-1.318 20.361 0 3.955.195 7.373.39 9.863 0 .196.05.39.05.586l.146 1.172c.195 1.465.39 2.393.586 2.686.732 1.074 2.343 1.464 3.76 1.464.976 0 1.806-.195 2.245-.537.977-.78-.39-1.611-.39-1.611.049-.781.39-1.855.781-3.027.147-.39.293-.83.488-1.221.098-.195.147-.39.244-.586.733-1.709 1.416-3.125 1.416-3.125 1.27.342 2.54.44 3.711.44.635 0 1.221-.05 1.758-.098 1.856-.195 3.125-.635 3.125-.635.684.586 1.27 1.416 1.758 2.393.146.293.293.634.44.976l.439 1.172c.683 2.1 1.025 3.955 1.025 3.955s-.976 1.807 2.393 2.002h.44c2.978 0 2.929-1.807 2.929-1.807.195-1.171.342-2.343.488-3.515.049-.39.098-.733.098-1.123 0-.195.049-.44.049-.635.097-1.074.195-2.197.244-3.271.195-3.028.244-6.055.195-9.033-.146-9.864-1.318-18.897-2.197-24.17-1.611.146-3.272.195-4.98.195-2.295 0-4.688-.146-7.13-.39-4.101-.391-7.86-1.124-11.279-2.149" fill="#460FE1" fill-rule="nonzero"/>
                <path d="M41.5 109.833h-.043c-4.843.088-8.85 10.17-8.893 17.345-.044 7 3.654 8.717 8.32 8.717h.352c4.843-.088 8.805-1.85 8.85-9.025.043-7.176-3.787-17.037-8.585-17.037" fill="url(#g)" fill-rule="nonzero" style="mix-blend-mode:multiply"/>
                <path d="M65.962.008c-4.736-.245-7.178 5.517-8.399 9.13-.732 2.1-1.269 4.248-1.708 6.397-.538 2.441-.928 4.931-1.319 7.422-.39 2.685-.683 5.37-.976 8.056a464.172 464.172 0 0 0-.684 8.203c-.195 2.637-.293 5.274-.44 7.91-.097 2.393-.195 4.785-.244 7.178-.048 1.074-.048 2.1-.097 3.174 0 .244-.147 2.783-.049 2.832a35.869 35.869 0 0 1 6.787 2.734c-.049.098-.146.195-.195.293 2.539 1.416 5.713 3.418 7.812 5.273 1.514-7.714 5.957-32.128 5.957-49.657 0-3.028-.098-6.055-.488-9.082-.39-2.979-1.074-6.934-3.565-8.936-.683-.586-1.513-.879-2.392-.927z" fill="url(#h)" fill-rule="nonzero"/>
                <path d="M65.669.008c-.488 0-.977.097-1.416.244 1.855.293 5.957 2.295 5.42 14.355-.83 20.02-4.785 41.455-10.059 49.072A37.376 37.376 0 0 1 66.5 68.61c1.514-7.714 5.957-32.177 5.957-49.657 0-10.547-1.611-18.604-6.494-18.945h-.293" fill="#000" fill-rule="nonzero" opacity=".14"/>
                <path d="M38.765 36.042s7.715 6.739 3.271 27.441l-12.207 1.27s6.006-19.19-7.714-21.435c-.05 0 2.636-12.403 16.65-7.276" fill="url(#i)" fill-rule="nonzero"/>
                <path d="M34.663 35.505h-.39s11.084.44 3.515 24.121a33.731 33.731 0 0 1 5.03-.537c.878-6.348 1.22-16.65-4.053-23.047 0 0-2.344-.537-4.102-.537" fill="#000" fill-rule="nonzero" opacity=".14"/>
                <path d="M38.765 36.042s-6.787-2.343-12.402 3.809c-7.715 8.398 1.953 24.609-15.479 25.39-11.62.489-16.845-19.433-.732-32.421 0 0 10.644-4.15 28.613 3.222z" fill="url(#j)" fill-rule="nonzero"/>
                <path d="M43.501 59.089h-.683c-1.71.049-3.37.244-5.03.537-2.588.488-5.029 1.318-7.324 2.344-10.498 4.785-17.773 14.55-18.652 22.168-1.074 8.886 6.885 16.26 19.433 19.97 3.418 1.025 7.178 1.758 11.182 2.197 2.441.244 4.834.391 7.129.391 1.709 0 3.369-.049 4.98-.195 12.744-1.123 21.973-6.543 22.95-15.625.683-6.69-3.663-15.772-11.182-22.51a38.716 38.716 0 0 0-6.836-4.931c-2.295-1.27-4.737-2.344-7.373-3.076-1.758-.489-3.565-.88-5.42-1.075-1.025-.146-2.1-.195-3.174-.195" fill="#460FE1" fill-rule="nonzero"/>
                <path d="M59.76 95.075h-1.415c-.098 0-.196-.049-.244-.049a10.881 10.881 0 0 1-3.32-.976c-1.319-.586-2.54-1.368-3.663-2.149-1.22-.879-2.441-1.758-3.71-2.588-.782-.537-1.563-1.025-2.442-1.416-1.025-.44-2.05-.537-3.125-.146-.732.293-1.465.635-2.1 1.074-1.171.83-2.343 1.611-3.515 2.441-1.27.88-2.54 1.758-3.955 2.49-1.026.538-2.149.977-3.32 1.173-.293.048-.538.097-.83.146h-1.417c-.048 0-.097 0-.146-.049-1.172-.097-2.295-.39-3.32-.928-1.319-.683-2.246-1.66-3.028-2.734a14.043 14.043 0 0 1-1.806-4.004c-.537-1.904-.782-3.857-.88-5.81-.048-1.416-.048-2.832.196-4.248.293-1.514.781-2.979 1.563-4.395 1.27-2.197 1.709-2.636 5.37-5.37 5.128-3.858 12.598-5.714 19.19-5.616 6.836.146 15.576 2.686 20.556 7.275 1.27 1.172 2.295 2.832 3.077 4.297.83 1.611 1.269 3.32 1.416 5.127 0 .195.048.39.048.586v2.002c0 .049-.048.049-.048.098a28.551 28.551 0 0 1-.342 3.515c-.244 1.465-.586 2.881-1.123 4.297-.537 1.318-1.27 2.588-2.344 3.662-1.22 1.22-2.686 1.953-4.541 2.246-.293-.049-.537 0-.781.049z" fill="#000" fill-rule="nonzero"/>
                <path d="M43.666 95.79c-1.165.364-1.62.513-2.11.238-.924-.52-2.058-1.39-1.895-2.476.27-1.801 4.08-2.437 5.876-.838 1.742 1.55-.586 2.674-1.87 3.076" fill="#2D08B4"/>
                <path d="M42.444 95.791s4.394 6.542 9.72.427M41.907 95.868s-2.335 5.462-7.795-.24" stroke="#2D08B4" stroke-width="1.5" stroke-linecap="round"/>
                <circle fill="#000" fill-rule="nonzero" cx="53.413" cy="84.089" r="1.27"/>
            </g>
            <g transform="translate(148.156 103.288)" fill-rule="nonzero">
                <path d="M.387 4.896C-.394 2.992.045.99 1.364.404 2.682-.182 4.44.892 5.22 2.797c.781 1.904.342 3.906-.977 4.492C2.926 7.875 1.168 6.8.387 4.896" fill="#460FE1"/>
                <circle fill="#000" cx="1.266" cy="5.385" r="1"/>
                <path d="M20.797 4.652c.781-1.904.342-3.906-.977-4.492-1.318-.586-3.076.488-3.857 2.393-.781 1.904-.342 3.906.977 4.492 1.318.586 3.076-.489 3.857-2.393" fill="#460FE1"/>
                <circle fill="#000" cx="16.256" cy="4.945" r="1"/>
            </g>
        </g>
        <g>
            <path d="M95.456 122.085c.964.4.838.344 1.215.046.711-.562 1.552-1.448 1.27-2.344-.468-1.486-4.01-1.68-5.076.077-.902 1.488 1.101 1.603 2.59 2.221" fill="#2D08B4"/>
            <path d="M96.146 122.68s-.584 4.566-4.532 1.716M96.603 122.6s3.662 3.272 4.349-1.43" stroke="#2D08B4" stroke-width="1.5" stroke-linecap="round"/>
        </g>
    </g>
</svg>
