<svg width="18" height="18" viewBox="0 0 18 18" xmlns="http://www.w3.org/2000/svg" xmlns:xlink="http://www.w3.org/1999/xlink">
    <defs>
        <path id="a" d="M0 0h17.223v17.223H0z"/>
    </defs>
    <g fill="none" fill-rule="evenodd">
        <g>
            <mask id="b" fill="#fff">
                <use xlink:href="#a"/>
            </mask>
            <path d="m9.348 1.521 1.16-.594a.682.682 0 0 1 .885.237l.707 1.094c.12.185.32.3.54.312l1.3.065c.35.017.63.297.648.647l.066 1.302c.01.219.126.42.31.539l1.095.707c.295.19.397.573.237.885l-.594 1.16c-.1.195-.1.427 0 .622l.594 1.16a.682.682 0 0 1-.237.884l-1.094.708a.681.681 0 0 0-.311.538l-.066 1.302a.682.682 0 0 1-.647.647l-1.302.066a.683.683 0 0 0-.539.311l-.707 1.095a.682.682 0 0 1-.884.236l-1.16-.594a.681.681 0 0 0-.623 0l-1.16.594a.682.682 0 0 1-.884-.236l-.707-1.095a.683.683 0 0 0-.54-.311l-1.301-.066a.683.683 0 0 1-.648-.647l-.065-1.302a.681.681 0 0 0-.311-.538l-1.094-.708a.682.682 0 0 1-.237-.884l.594-1.16c.1-.195.1-.427 0-.623l-.594-1.16a.682.682 0 0 1 .237-.884l1.094-.707c.184-.12.3-.32.311-.539l.065-1.302a.682.682 0 0 1 .648-.647l1.301-.065a.683.683 0 0 0 .54-.312l.707-1.094a.683.683 0 0 1 .884-.237l1.16.594c.196.1.427.1.622 0" fill="#4F43FF" mask="url(#b)"/>
        </g>
        <path d="m6.87 8.85 1.473 2.216c.103.101.312.083.383-.032l2.844-5.016" stroke="#0C0B1E" stroke-linecap="round" stroke-width="2"/>
    </g>
</svg>
