<svg width="83" height="157" viewBox="0 0 83 157" xmlns="http://www.w3.org/2000/svg">
    <defs>
        <linearGradient x1="51.676%" y1="-23.161%" x2="49.671%" y2="77.78%" id="v17a0du1ka">
            <stop stop-color="#EFA4AE" offset="25.5%"/>
            <stop stop-color="#B15ED4" offset="59.39%"/>
            <stop stop-color="#460FE1" stop-opacity="0" offset="100%"/>
        </linearGradient>
        <linearGradient x1="52.527%" y1="-33.813%" x2="49.266%" y2="79.07%" id="vnux5gf2jb">
            <stop stop-color="#EFA4AE" offset="0%"/>
            <stop stop-color="#B15ED4" offset="59.39%"/>
            <stop stop-color="#460FE1" offset="98.09%"/>
        </linearGradient>
        <linearGradient x1="18.029%" y1="7.796%" x2="56.272%" y2="55.249%" id="k9minebhuc">
            <stop stop-color="#EFA4AE" offset="0%"/>
            <stop stop-color="#B15ED4" offset="52.18%"/>
            <stop stop-color="#460FE1" offset="100%"/>
        </linearGradient>
        <linearGradient x1="61.627%" y1="18.581%" x2="16.839%" y2="71.924%" id="m4uf5lovdd">
            <stop stop-color="#EFA4AE" offset="0%"/>
            <stop stop-color="#B15ED4" offset="49.11%"/>
            <stop stop-color="#460FE1" offset="98.09%"/>
        </linearGradient>
    </defs>
    <g fill="none" fill-rule="evenodd">
        <path d="M70.45 135.668c.77-15.528-8.005-18.184-14.316-20.84 0 0-1.54.818-.308 3.831 1.95.664 7.646 9.245 10.057 17.826-.564.051-1.59.306-1.436 1.277.205 1.277.975 1.379 2.103.357.308 0 .77.154.77.92-.154.97-.256 2.298.565 2.094 1.231-.358 1.59-1.073.975-1.992.051-.051.102-.102.154-.102.307.613.82 1.226 1.539.715 1.078-.715.616-1.686-.41-2.248.05-.05.05-.102.102-.204.513.256 1.437.562 1.54-.46.102-1.123-.565-1.43-1.335-1.174zM13.953 107.32a.282.282 0 0 1-.257-.153c-.102-.153 0-.409.206-.562.102-.051.205-.102.308-.102.102 0 .205.051.256.153.103.153 0 .409-.205.562-.154.051-.257.102-.308.102m5.747.664c-.308 0-.564-.255-.667-.613-.102-.408.103-.817.41-.92h.103c.308 0 .565.256.667.614.103.408-.102.817-.41.92H19.7m-3.079.919c-.872 0-1.54-.46-1.54-.97 0-.563.77-1.738 1.592-1.738.872 0 1.488 1.226 1.488 1.737.051.51-.667.97-1.54.97m-1.59-3.268c-.154 0-.308-.051-.36-.154-.154-.204 0-.51.257-.715.154-.102.257-.102.41-.102.154 0 .308.051.36.153.154.205 0 .511-.257.715-.154.103-.256.103-.41.103m2.72-.767c-.103 0-.206-.05-.36-.102-.308-.153-.462-.46-.36-.664.052-.153.257-.204.411-.204.103 0 .206.051.36.102.308.153.461.46.359.664-.103.102-.257.204-.41.204m-.309-1.174c-.667 0-.872.562-.513 1.583l.052.102c-.103.051-.257.051-.36.102-.256-.51-.615-1.174-1.18-1.174a.83.83 0 0 0-.462.153c-1.026.613-.667 1.532.206 2.145-.052.102-.103.153-.206.255-.256-.255-.667-.561-.975-.561-.154 0-.308.102-.461.306-.36.766.153 1.277.82 1.38 0 0 0 .05-.05.05-.873 2.094.769 14.302 8.415 14.302 2.155 0 4.772-.97 7.954-3.371.154-1.175.359-2.35.564-3.474-.257.051-.513.103-.821.154-.975.153-2.207.357-3.49.357-3.437 0-7.286-1.277-7.902-7.253.616-.204 1.334-.613 1.232-1.43-.103-.92-.36-1.277-.667-1.277-.462 0-1.027.613-1.437 1.022-.154-.307-.205-.715-.103-1.277.36-.715.667-1.737-.051-1.992a1.852 1.852 0 0 0-.565-.102" fill="#460FE1" fill-rule="nonzero"/>
        <path d="M16.673 106.145c-.873 0-1.591 1.226-1.591 1.737 0 .562.718.97 1.54.97.872 0 1.539-.46 1.539-.97.051-.51-.616-1.737-1.488-1.737M17.442 103.847c-.205 0-.359.102-.41.204-.103.205.051.511.36.664a.955.955 0 0 0 .358.102c.206 0 .36-.102.41-.204.103-.204-.05-.51-.358-.664-.154-.051-.257-.102-.36-.102M19.598 106.452h-.103c-.308.102-.513.46-.41.92.102.357.359.612.667.612h.102c.308-.102.513-.46.41-.92-.102-.357-.41-.612-.666-.612M15.339 104.613c-.154 0-.257.051-.411.102-.308.205-.41.511-.257.715.052.102.206.154.36.154s.256-.052.41-.103c.308-.204.41-.51.257-.715-.052-.102-.206-.153-.36-.153M14.21 106.503c-.103 0-.206.051-.308.102-.206.153-.308.409-.206.562a.282.282 0 0 0 .257.153c.103 0 .205-.05.308-.102.205-.153.308-.409.205-.562a.282.282 0 0 0-.256-.153" fill="#360CAE" fill-rule="nonzero"/>
        <path d="M32.837 108.904c-.565 2.145-1.026 4.341-1.437 6.64a70.145 70.145 0 0 0-.564 3.473c-1.078 7.355-1.386 14.914-1.386 21.299 0 4.137.205 7.712.41 10.317 0 .205.052.409.052.613l.154 1.226c.205 1.532.41 2.503.616 2.81.77 1.123 2.463 1.532 3.95 1.532 1.027 0 1.9-.205 2.361-.562 1.027-.818-.41-1.686-.41-1.686.051-.817.41-1.94.82-3.167.155-.408.309-.868.514-1.277.103-.204.154-.408.257-.612.77-1.788 1.488-3.27 1.488-3.27 1.334.358 2.668.46 3.9.46.667 0 1.282-.05 1.847-.102 1.95-.204 3.284-.664 3.284-.664.718.613 1.334 1.481 1.847 2.503.154.306.308.664.462 1.021l.462 1.226a36.015 36.015 0 0 1 1.078 4.138s-1.027 1.89 2.514 2.094h.462c3.13 0 3.079-1.89 3.079-1.89a90.44 90.44 0 0 0 .513-3.678c.051-.408.103-.766.103-1.174 0-.205.05-.46.05-.664.103-1.124.206-2.299.257-3.423.206-3.166.257-6.333.206-9.449-.154-10.317-1.386-19.767-2.31-25.283-1.693.153-3.438.205-5.234.205-2.411 0-4.926-.154-7.492-.41-4.31-.408-8.261-1.174-11.853-2.246" fill="#460FE1" fill-rule="nonzero"/>
        <path d="M44.69 141.95c-3.95 0-7.132-1.532-7.132-7.917-.052-6.435 3.13-15.425 7.132-15.425 3.952 0 7.236 8.939 7.287 15.374-.051 6.436-3.233 7.968-7.235 7.968h-.052m-.05-27.99h-.052c-5.645.102-10.314 11.799-10.366 20.124-.051 8.122 4.26 10.114 9.699 10.114h.41c5.645-.103 10.263-2.146 10.315-10.471.05-8.326-4.414-19.767-10.007-19.767" fill="url(#v17a0du1ka)" fill-rule="nonzero"/>
        <path d="M69.321.008c-4.977-.256-7.543 5.772-8.826 9.551-.77 2.197-1.334 4.444-1.796 6.691-.564 2.554-.975 5.159-1.385 7.764-.41 2.81-.719 5.618-1.026 8.428-.257 2.86-.514 5.72-.719 8.58-.205 2.759-.308 5.517-.462 8.275-.102 2.503-.205 5.005-.256 7.508-.052 1.124-.052 2.197-.103 3.32 0 .256-.154 2.912-.051 2.963a37.797 37.797 0 0 1 7.133 2.86c-.052.102-.154.204-.206.306 2.669 1.482 6.004 3.576 8.21 5.517 1.591-8.07 6.261-33.609 6.261-51.945 0-3.167-.103-6.334-.513-9.5-.41-3.116-1.13-7.254-3.746-9.348-.719-.613-1.59-.92-2.515-.97z" fill="url(#vnux5gf2jb)" fill-rule="nonzero"/>
        <path d="M69.014.059c-.514 0-1.027.102-1.489.255 1.95.307 6.26 2.4 5.696 15.017-.872 20.941-5.028 43.364-10.57 51.332a39.276 39.276 0 0 1 7.235 5.159c1.59-8.07 6.26-33.66 6.26-51.945 0-11.033-1.693-19.46-6.825-19.818h-.307" fill="#000" fill-rule="nonzero" opacity=".14"/>
        <path d="M40.74 37.754s8.107 7.048 3.437 28.705l-12.88 1.328s6.312-20.073-8.107-22.423c0 0 2.77-12.973 17.55-7.61" fill="url(#k9minebhuc)" fill-rule="nonzero"/>
        <path d="M36.429 37.192h-.41s11.648.46 3.694 25.232c1.693-.307 3.49-.511 5.285-.562.924-6.64 1.283-17.417-4.259-24.108 0 0-2.463-.562-4.31-.562" fill="#000" fill-rule="nonzero" opacity=".14"/>
        <path d="M40.74 37.754s-7.133-2.452-13.035 3.984c-8.107 8.785 2.053 25.742-16.266 26.56-12.213.51-17.704-20.33-.77-33.915 0 0 11.186-4.393 30.07 3.37z" fill="url(#m4uf5lovdd)" fill-rule="nonzero"/>
        <path d="M45.717 61.862H44.998c-1.796.05-3.54.255-5.285.562-2.72.51-5.285 1.379-7.697 2.451-11.033 5.006-18.679 15.221-19.602 23.19-1.13 9.295 7.235 17.008 20.423 20.89 3.592 1.072 7.543 1.838 11.75 2.298 2.567.255 5.081.409 7.493.409 1.796 0 3.54-.051 5.234-.205 13.393-1.174 23.091-6.844 24.118-16.344.718-6.998-3.849-16.498-11.751-23.547a40.683 40.683 0 0 0-7.184-5.158c-2.412-1.328-4.978-2.452-7.749-3.218-1.847-.511-3.746-.92-5.696-1.124a24.366 24.366 0 0 0-3.335-.204" fill="#460FE1" fill-rule="nonzero"/>
        <path d="M46.696 97.303c-1.548.484-2.153.681-2.804.316-1.228-.69-2.734-1.846-2.519-3.29.358-2.393 5.423-3.239 7.81-1.114 2.314 2.06-.78 3.554-2.487 4.088" fill="#2D08B4"/>
        <path d="M45.071 97.305s5.84 8.693 12.917.567M44.358 97.407s-3.103 7.258-10.358-.318" stroke="#2D08B4" stroke-width="1.5" stroke-linecap="round"/>
        <path d="M33.456 86.371c-1.19-2.778-.518-5.759 1.503-6.618 2.02-.859 4.61.707 5.801 3.537 1.192 2.778.518 5.76-1.502 6.618-2.02.808-4.61-.758-5.802-3.537" fill="#000" fill-rule="nonzero"/>
        <circle fill="#460FE1" fill-rule="nonzero" cx="38.169" cy="86.94" r="1.06"/>
        <path d="M57.724 86.357c1.192-2.773.518-5.747-1.502-6.604-2.02-.857-4.61.705-5.802 3.529-1.191 2.772-.518 5.747 1.503 6.604 2.02.857 4.61-.706 5.801-3.53" fill="#000" fill-rule="nonzero"/>
        <circle fill="#460FE1" fill-rule="nonzero" cx="53.012" cy="85.88" r="1.06"/>
        <path d="m79.206 140.789-62.341 4.457c-1.44.102-2.727-.962-2.83-2.38l-2.366-31.712a2.616 2.616 0 0 1 2.418-2.786l62.342-4.458c1.44-.101 2.726.963 2.829 2.381l2.366 31.711c.154 1.47-.926 2.685-2.418 2.787z" stroke="#0C0A1E" fill="#460FE1" fill-rule="nonzero"/>
        <g fill="#EFA4AE" fill-rule="nonzero">
            <path d="M33.6 126.721c-.308 0-1.487-.727-3.433-2.286-.717.311-1.435.52-2.152.571-1.434.104-2.715-.363-3.893-1.403-1.127-1.04-1.742-2.234-1.844-3.638-.103-1.663.41-3.066 1.588-4.313a6.183 6.183 0 0 1 4.2-1.975c1.793-.104 3.177.416 4.201 1.663.82 1.04 1.332 2.443 1.435 4.158.102 1.403-.513 2.702-1.793 3.793.307.208.717.572 1.28 1.04l.82.571c.307.26.512.52.512.78s-.051.468-.256.675c-.154.208-.41.312-.666.364zm-5.431-11.173c-1.178.104-2.152.52-2.92 1.351-.82.832-1.178 1.767-1.076 2.91.051.884.461 1.664 1.23 2.34.768.675 1.588.986 2.459.935.102 0 .256 0 .358-.052-.717-.572-1.076-1.092-1.076-1.508 0-.26.052-.52.257-.727.204-.208.41-.26.666-.312.307 0 .563.104.82.364.409.468.921.883 1.434 1.247 1.024-.727 1.536-1.61 1.434-2.546-.103-1.248-.41-2.235-.973-2.962-.666-.728-1.537-1.092-2.613-1.04zM40.72 119.238c0 .312.05.78.102 1.403.051.624.103 1.091.103 1.403 0 .104 0 .26.05.416.052.208.052.312.052.416 0 .26-.051.467-.205.675-.154.156-.41.26-.666.312-.358.052-.666-.104-.87-.468a5.105 5.105 0 0 1-1.742.468c-.615.052-1.179-.052-1.64-.312-.512-.26-.82-.727-.973-1.299-.256-1.143-.41-2.13-.461-3.014-.051-.572 0-1.247.051-2.027.051-.52.359-.78.871-.831.256 0 .512.052.666.208.154.155.307.363.307.623 0 .208 0 .52-.05.936-.052.415-.052.78-.052.987.051.624.102 1.195.154 1.663.05.468.153.883.256 1.195.102.052.205.052.358.104h.308a11.17 11.17 0 0 0 1.639-.312c0-.363-.051-.727-.103-1.195-.05-.52-.05-.935-.102-1.143-.051-.936-.051-1.767-.051-2.443.051-.571.307-.831.87-.883.257 0 .513.052.718.208a.744.744 0 0 1 .307.623c.103 1.611.103 2.39.103 2.287zM43.23 114.769c-.308 0-.564-.052-.769-.26-.205-.156-.358-.416-.358-.676 0-.26.051-.52.256-.727.205-.208.461-.312.717-.364.256-.052.564.052.769.26.204.156.358.416.358.675 0 .26-.051.52-.256.728-.205.208-.41.312-.717.364zm.922 4.937c0 .26.051.675.102 1.247.052.571.103.987.103 1.247 0 .26-.051.468-.205.676-.154.208-.359.26-.666.311-.256 0-.512-.052-.666-.207a.744.744 0 0 1-.307-.624c0-.26-.052-.676-.103-1.247-.051-.572-.102-.988-.102-1.247-.052-.416-.052-.936-.052-1.508 0-.623 0-1.143-.05-1.507 0-.26.05-.467.204-.675.154-.208.359-.26.666-.312a.705.705 0 0 1 .666.208.744.744 0 0 1 .307.623c.052.416.052.936.052 1.508 0 .623 0 1.143.05 1.507zM49.223 123.032c-.973.052-1.844-.156-2.561-.676-.768-.572-1.178-1.3-1.23-2.287-.05-.883.205-1.87.769-2.858.666-1.143 1.434-1.767 2.408-1.819.46-.052 1.024.052 1.639.26.768.26 1.178.572 1.23.988 0 .207-.052.415-.206.623a.727.727 0 0 1-.614.312c-.205 0-.41-.052-.717-.26-.308-.208-.718-.26-1.23-.208-.358 0-.717.416-1.076 1.092-.358.675-.512 1.299-.46 1.766.05.468.204.832.563 1.092.358.26.768.312 1.332.312.307 0 .666-.156 1.075-.416.41-.26.666-.416.82-.416.256 0 .461.052.666.208.205.156.307.364.307.572 0 .363-.358.727-1.075 1.143-.615.312-1.179.52-1.64.572zM58.905 122.2c-.358 0-.614-.104-.82-.468-.255-.415-.614-.883-1.075-1.403a27.299 27.299 0 0 0-1.178-1.299c-.359.312-.615.52-.871.676 0 .623 0 1.247.051 1.818 0 .26-.051.468-.205.676-.154.208-.358.312-.666.312-.615.052-.973-.312-1.024-1.091 0-.364-.052-.884-.052-1.611 0-.728 0-1.248-.05-1.611a28.755 28.755 0 0 1-.103-2.287c-.051-.832-.103-1.611-.103-2.235 0-.208-.05-.415-.102-.675-.051-.26-.051-.52-.103-.676 0-.26.052-.468.205-.675.154-.208.359-.26.666-.312a.705.705 0 0 1 .666.208.744.744 0 0 1 .308.623c0 .208.05.416.102.728.051.26.051.52.102.727.052.52.052 1.196.103 1.923 0 .728.051 1.351.102 1.923.564-.52 1.435-1.455 2.613-2.806.205-.208.41-.312.666-.364.256 0 .461.052.666.208.205.156.307.364.358.623 0 .208-.05.416-.204.624-.513.624-1.076 1.3-1.742 2.027l1.537 1.715c.717.883 1.127 1.455 1.127 1.767 0 .26-.052.467-.256.675-.257.156-.462.26-.718.26zM61.62 113.47c-.307 0-.563-.052-.768-.26-.205-.156-.359-.416-.359-.676 0-.26.052-.52.257-.727.204-.208.46-.312.717-.364.307 0 .563.052.768.26.205.155.359.415.359.675 0 .26-.052.52-.256.728a.892.892 0 0 1-.718.363zm.922 4.988c0 .26.052.676.103 1.248.051.571.102.987.102 1.247 0 .26-.05.468-.205.675-.153.208-.358.26-.665.312-.257 0-.513-.052-.666-.208a.744.744 0 0 1-.308-.623c0-.26-.051-.676-.102-1.247-.051-.572-.103-.988-.103-1.248-.05-.415-.05-.935-.05-1.507 0-.623 0-1.143-.052-1.507 0-.26.051-.468.205-.675.153-.208.358-.26.666-.312.256 0 .512.052.666.208a.744.744 0 0 1 .307.623c.051.416.051.936.051 1.507 0 .572.051 1.092.051 1.507zM68.946 116.172c-.461.052-.717-.156-.82-.52h-.563c-1.076.052-1.64.26-1.588.572 0 .156.358.416 1.024.623.922.364 1.537.624 1.896.832.666.416 1.024.935 1.075 1.559.052.78-.256 1.403-.973 1.87-.563.365-1.28.572-2.1.624-.615.052-1.127 0-1.64-.156-.665-.207-1.075-.571-1.075-1.039-.051-.468.205-.727.768-.727.205 0 .512.052.922.155.41.104.717.156.922.156.922-.052 1.332-.26 1.332-.675 0-.208-.358-.468-1.024-.728-.974-.364-1.588-.623-1.844-.78-.666-.415-1.025-.935-1.076-1.558-.051-.936.358-1.56 1.332-1.975.563-.208 1.383-.364 2.561-.468.461-.052.768 0 1.025.104.307.156.46.416.512.832-.051.831-.256 1.299-.666 1.299zM37.39 138.518h-.512c-.257 0-.41-.052-.513 0l-1.998.156c-.153 0-.41.052-.768.104-.359.052-.615.104-.768.104h-.41c-.41.052-.666-.104-.871-.416-.102-.208-.154-.52-.205-.935-.051-.832.103-1.56.41-2.183.256-.468.717-.936 1.28-1.403.564-.468 1.179-.884 1.742-1.351.666-.572.974-1.196.922-1.871 0-.156-.153-.312-.46-.468a1.789 1.789 0 0 0-.872-.208c-.46.052-.973.26-1.485.728-.512.467-.871.727-1.076.727-.256 0-.46-.052-.615-.156-.256-.156-.358-.311-.358-.571 0-.26.102-.52.307-.728.512-.52.973-.935 1.332-1.143a3.915 3.915 0 0 1 1.793-.624 3.856 3.856 0 0 1 2.152.468c.768.416 1.127 1.04 1.178 1.767.051.78-.103 1.455-.41 2.027-.256.467-.666.883-1.23 1.35-.512.417-1.075.78-1.588 1.196-.82.624-1.229 1.3-1.229 2.027.256-.052.615-.104 1.076-.208.973-.104 1.64-.208 2.049-.208.41-.052.768.052 1.178.156.461.156.717.416.769.78 0 .26-.052.467-.205.623a.842.842 0 0 1-.615.26zM43.179 138.414c-1.486.104-2.613-.468-3.381-1.715-.564-.935-.871-2.183-.974-3.69-.102-1.299.154-2.494.769-3.481.717-1.248 1.741-1.923 3.073-1.975 1.281-.104 2.306.364 3.074 1.35.666.832 1.024 1.924 1.127 3.17.154 2.028-.103 3.587-.717 4.626-.615 1.04-1.64 1.611-2.971 1.715zm-.41-9.146c-.717.052-1.28.467-1.69 1.247-.36.675-.462 1.403-.41 2.286.05 1.092.256 1.975.46 2.547.41.935 1.025 1.403 1.896 1.351.717-.052 1.28-.416 1.588-1.143.307-.728.461-1.767.359-3.118-.052-1.092-.308-1.871-.666-2.39-.359-.624-.871-.832-1.537-.78zM54.244 137.375h-.513c-.256 0-.41-.052-.512 0l-1.998.156c-.153 0-.41.052-.768.103-.359.052-.615.104-.769.104h-.409c-.41.052-.666-.104-.871-.415-.103-.208-.154-.52-.205-.936-.051-.831.102-1.559.41-2.182.256-.468.717-.936 1.28-1.404.564-.467 1.179-.883 1.742-1.35.666-.572.973-1.196.922-1.872 0-.155-.154-.311-.46-.467a1.789 1.789 0 0 0-.872-.208c-.46.052-.973.26-1.485.727-.513.468-.871.728-1.076.728-.256 0-.461-.052-.615-.156-.256-.156-.358-.312-.358-.572 0-.26.102-.52.307-.727.512-.52.973-.936 1.332-1.143a3.915 3.915 0 0 1 1.793-.624 3.856 3.856 0 0 1 2.151.468c.769.415 1.127 1.04 1.179 1.767.05.78-.103 1.455-.41 2.026-.256.468-.666.884-1.23 1.352-.512.415-1.075.779-1.588 1.195-.82.623-1.23 1.299-1.23 2.027.257-.052.616-.104 1.077-.208.973-.104 1.639-.208 2.049-.208.41-.052.768.052 1.178.156.46.156.717.415.768.78 0 .259-.05.467-.205.623a1.697 1.697 0 0 1-.614.26zM62.645 136.751h-.512c-.205 0-.41-.052-.513 0l-1.997.156c-.154 0-.41.052-.769.104-.358.052-.615.104-.768.104h-.41c-.41.052-.666-.104-.871-.416-.102-.208-.154-.52-.205-.935-.051-.832.103-1.56.41-2.183.256-.468.717-.935 1.28-1.403.564-.468 1.179-.884 1.742-1.351.666-.572.974-1.196.922-1.871 0-.156-.153-.312-.46-.468a1.789 1.789 0 0 0-.871-.208c-.462.052-.974.26-1.486.728-.512.468-.87.727-1.076.727-.256 0-.46-.052-.615-.156-.256-.155-.358-.311-.358-.571 0-.26.102-.52.307-.728.512-.52.974-.935 1.332-1.143a3.915 3.915 0 0 1 1.793-.624 3.856 3.856 0 0 1 2.152.468c.768.416 1.127 1.04 1.178 1.767.051.78-.103 1.455-.41 2.027-.256.467-.666.883-1.23 1.35-.512.417-1.075.78-1.587 1.196-.82.624-1.23 1.3-1.23 2.027.256-.052.615-.104 1.076-.208.973-.104 1.64-.208 2.049-.208.41-.052.768.052 1.178.156.461.156.717.416.769.78 0 .26-.052.467-.205.623-.103.156-.359.26-.615.26z"/>
        </g>
    </g>
</svg>
