<svg width="181" height="33" viewBox="0 0 181 33" xmlns="http://www.w3.org/2000/svg" xmlns:xlink="http://www.w3.org/1999/xlink">
    <defs>
        <linearGradient x1="0%" y1="50%" x2="89.808%" y2="50%" id="b">
            <stop stop-color="#F9A1AF" offset="0%"/>
            <stop stop-color="#B15ED4" offset="45.954%"/>
            <stop stop-color="#460FE1" offset="100%"/>
        </linearGradient>
        <path id="a" d="M0 0h180.069v33H0z"/>
    </defs>
    <g fill="none" fill-rule="evenodd">
        <mask id="c" fill="#fff">
            <use xlink:href="#a"/>
        </mask>
        <path d="M176.988 31.748c1.152-.835 1.955-1.968 2.405-3.4.45-1.431.676-3.061.676-4.89V9.343c0-1.828-.239-3.445-.716-4.85-.476-1.405-1.292-2.505-2.445-3.3C175.755.397 174.158 0 172.118 0c-2.042 0-3.639.397-4.792 1.193-1.153.795-1.968 1.895-2.445 3.3-.477 1.405-.715 3.022-.715 4.85v14.075c0 1.829.225 3.466.675 4.91.45 1.445 1.253 2.585 2.406 3.42 1.152.835 2.776 1.252 4.87 1.252 2.094 0 3.718-.417 4.87-1.252zm-8.43-1.451c-.834-.61-1.41-1.465-1.729-2.565-.318-1.1-.477-2.379-.477-3.837V9.025c0-1.458.16-2.73.477-3.817.318-1.087.895-1.928 1.73-2.524.835-.597 2.02-.895 3.558-.895 1.564 0 2.757.298 3.578.895.822.596 1.392 1.437 1.71 2.524.318 1.087.477 2.36.477 3.817v14.87c0 1.458-.159 2.737-.476 3.837-.319 1.1-.896 1.955-1.73 2.565-.835.609-2.022.914-3.559.914-1.537 0-2.723-.305-3.558-.914zm-13.776 2.265V2.107h6.282V.357h-14.87v1.75h6.441v30.455h2.147zm-18.329 0v-1.71h-9.065V16.7h7.355v-1.67h-7.355V2.107h8.946V.357H125.2v32.205h11.252zm-34.869 0 .796-26.956 6.48 26.956h1.591l6.56-26.996.795 26.996h1.869L118.76.358h-2.227l-6.917 29.064-6.8-29.064h-2.146l-.955 32.204h1.87zm-9.84-.814c1.153-.835 1.955-1.968 2.406-3.4.45-1.431.675-3.061.675-4.89V9.343c0-1.828-.238-3.445-.715-4.85-.478-1.405-1.292-2.505-2.446-3.3C90.512.397 88.914 0 86.874 0c-2.041 0-3.638.397-4.791 1.193-1.153.795-1.969 1.895-2.446 3.3-.477 1.405-.715 3.022-.715 4.85v14.075c0 1.829.225 3.466.676 4.91.45 1.445 1.252 2.585 2.405 3.42 1.153.835 2.777 1.252 4.87 1.252 2.095 0 3.718-.417 4.871-1.252zm-8.429-1.451c-.835-.61-1.411-1.465-1.73-2.565-.318-1.1-.476-2.379-.476-3.837V9.025c0-1.458.158-2.73.476-3.817.319-1.087.895-1.928 1.73-2.524.835-.597 2.021-.895 3.559-.895 1.563 0 2.756.298 3.578.895.822.596 1.392 1.437 1.71 2.524.318 1.087.476 2.36.476 3.817v14.87c0 1.458-.158 2.737-.477 3.837-.317 1.1-.894 1.955-1.73 2.565-.834.609-2.02.914-3.557.914-1.538 0-2.724-.305-3.559-.914zm-11.51 1.49c1.06-.808 1.802-1.928 2.226-3.359.425-1.432.637-3.062.637-4.89v-1.591H72.6v1.948c0 1.458-.139 2.737-.418 3.837-.278 1.1-.801 1.955-1.57 2.565-.768.609-1.869.914-3.3.914-1.484 0-2.638-.305-3.459-.914-.822-.61-1.392-1.478-1.71-2.605-.318-1.126-.477-2.485-.477-4.075V9.383c0-1.511.146-2.836.437-3.976.292-1.14.849-2.027 1.67-2.664.822-.636 2.002-.954 3.539-.954 1.405 0 2.491.291 3.26.875.769.583 1.299 1.41 1.59 2.484.292 1.074.438 2.38.438 3.917v1.63h2.068v-1.63c0-1.83-.226-3.426-.677-4.791-.45-1.365-1.205-2.419-2.266-3.161C70.665.37 69.194 0 67.312 0c-2.04 0-3.631.417-4.771 1.252-1.14.835-1.935 1.975-2.385 3.42-.452 1.445-.677 3.094-.677 4.95v13.677c0 1.776.213 3.399.636 4.87.425 1.471 1.2 2.644 2.326 3.519 1.127.874 2.75 1.312 4.87 1.312 1.936 0 3.434-.404 4.494-1.213zm-14.592.775v-1.71h-9.741V.359h-2.147v32.204h11.888zm-16.301 0v-1.71h-9.065V16.7h7.355v-1.67h-7.355V2.107h8.945V.357H29.66v32.205h11.252zm-35.306 0L0 .358h1.908l4.731 27.95 5.169-27.234h2.068l5.327 27.234L23.497.358h1.87l-5.21 32.204H18.33L12.842 4.373l-5.368 28.19H5.606z" fill="url(#b)" mask="url(#c)"/>
    </g>
</svg>
