<svg width="23" height="23" viewBox="0 0 23 23" xmlns="http://www.w3.org/2000/svg">
    <g fill="none" fill-rule="evenodd">
        <path d="M6.884 1.549 4.94 1 2.893 5.889s-1.896 4.54 3.093 6.485c0 0 5.388.998 6.086-3.791l.599-5.488-1.597-.498M5.986 12.374l-.698 3.21M1.328 17.268l3.966-1.805 2.329 3.802a.607.607 0 0 1-.722.858l-5.477-1.737a.607.607 0 0 1-.096-1.118z" stroke="#4F43FF" stroke-width="1.5" stroke-linecap="round"/>
        <path d="M11.114 10.944c.338 1.202 1.62 4.223 5.873 3.507 0 0 5.138-1.907 3.281-6.376l-2.3-5.018-5.447 1.485M16.987 14.451l.905 2.728M15.563 20.606l2.24-3.565 3.9 1.828a.586.586 0 0 1-.126 1.077l-5.342 1.51a.587.587 0 0 1-.672-.85z" stroke="#4F43FF" stroke-width="1.5" stroke-linecap="round"/>
        <path d="M9.353 2.048a.574.574 0 1 1-1.147 0 .574.574 0 0 1 1.147 0" fill="#4F43FF"/>
    </g>
</svg>
