<svg width="23" height="23" viewBox="0 0 23 23" xmlns="http://www.w3.org/2000/svg">
    <g fill="none" fill-rule="evenodd">
        <path d="m6.884 1.592-1.945-.55-2.046 4.89s-1.896 4.54 3.093 6.485c0 0 5.388.997 6.086-3.792l.599-5.487-1.597-.499M5.986 12.417l-.698 3.21M1.328 17.311l3.966-1.805 2.329 3.801a.607.607 0 0 1-.722.858L1.424 18.43a.607.607 0 0 1-.096-1.118z" stroke="#BEBEBE" stroke-width="1.5" stroke-linecap="round"/>
        <path d="M11.114 10.987c.338 1.202 1.62 4.222 5.873 3.506 0 0 5.138-1.906 3.281-6.375l-2.3-5.018-5.447 1.485M16.987 14.494l.905 2.728M15.563 20.648l2.24-3.565 3.9 1.829a.586.586 0 0 1-.126 1.076L16.235 21.5a.587.587 0 0 1-.672-.85z" stroke="#BEBEBE" stroke-width="1.5" stroke-linecap="round"/>
        <path d="M9.353 2.09a.574.574 0 1 1-1.147 0 .574.574 0 0 1 1.147 0" fill="#BEBEBE"/>
    </g>
</svg>
