<svg width="304" height="270" viewBox="0 0 304 270" xmlns="http://www.w3.org/2000/svg">
    <defs>
        <linearGradient x1="46.073%" y1="0%" x2="51.787%" y2="67.001%" id="b">
            <stop stop-color="#EFA4AE" offset="0%"/>
            <stop stop-color="#B15ED4" offset="34.804%"/>
            <stop stop-color="#460FE1" offset="100%"/>
        </linearGradient>
        <linearGradient x1="46.952%" y1="0%" x2="51.387%" y2="67.001%" id="c">
            <stop stop-color="#EFA4AE" offset="0%"/>
            <stop stop-color="#B15ED4" offset="34.804%"/>
            <stop stop-color="#460FE1" offset="100%"/>
        </linearGradient>
        <linearGradient x1="49.999%" y1="100.085%" x2="49.999%" y2=".026%" id="d">
            <stop stop-color="#FFF" stop-opacity="0" offset="0%"/>
            <stop stop-color="#2A0987" stop-opacity=".5" offset="99.97%"/>
        </linearGradient>
        <linearGradient x1="49.816%" y1="99.938%" x2="49.816%" y2="-.073%" id="e">
            <stop stop-color="#FFF" stop-opacity="0" offset="0%"/>
            <stop stop-color="#2A0987" stop-opacity=".5" offset="99.97%"/>
        </linearGradient>
        <linearGradient x1="51.357%" y1="-3.677%" x2="49.34%" y2="76.865%" id="f">
            <stop stop-color="#EFA4AE" offset="0%"/>
            <stop stop-color="#B15ED4" offset="19.843%"/>
            <stop stop-color="#460FE1" offset="100%"/>
        </linearGradient>
        <linearGradient x1="18.368%" y1="7.848%" x2="56.172%" y2="55.301%" id="g">
            <stop stop-color="#EFA4AE" offset="0%"/>
            <stop stop-color="#B15ED4" offset="52.18%"/>
            <stop stop-color="#460FE1" offset="100%"/>
        </linearGradient>
        <linearGradient x1="61.663%" y1="18.313%" x2="16.874%" y2="72.122%" id="h">
            <stop stop-color="#EFA4AE" offset="0%"/>
            <stop stop-color="#B15ED4" offset="49.11%"/>
            <stop stop-color="#460FE1" offset="98.09%"/>
        </linearGradient>
        <radialGradient cx="50%" cy="38.168%" fx="50%" fy="38.168%" r="30.954%" gradientTransform="matrix(0 1 -1.43451 0 1.048 -.118)" id="a">
            <stop stop-color="#2A2669" offset="0%"/>
            <stop stop-color="#0C0B1E" offset="100%"/>
        </radialGradient>
    </defs>
    <g fill="none" fill-rule="evenodd">
        <ellipse fill="url(#a)" cx="151.533" cy="216.921" rx="151.533" ry="52.632"/>
        <path d="M177.237 259.346c-.714-2.725-1.298-5.515-1.817-8.435-.26-1.428-.519-2.92-.714-4.412-1.362-9.344-1.752-18.947-1.752-27.057 0-5.256.26-9.798.52-13.107 0-.26.064-.519.064-.779l.195-1.557c.26-1.946.52-3.18.779-3.568.973-1.428 3.114-1.947 4.996-1.947 1.297 0 2.4.26 2.985.714 1.297 1.038-.52 2.141-.52 2.141.065 1.038.52 2.466 1.039 4.023.194.519.389 1.103.648 1.622.13.26.195.519.325.779.973 2.27 1.882 4.152 1.882 4.152 1.687-.454 3.374-.584 4.93-.584.844 0 1.623.065 2.337.13 2.465.26 4.152.843 4.152.843.909-.778 1.687-1.881 2.336-3.179.195-.39.39-.843.584-1.298l.584-1.557c.908-2.79 1.363-5.255 1.363-5.255s-1.298-2.401 3.179-2.66h.584c3.958 0 3.893 2.4 3.893 2.4.26 1.557.454 3.114.649 4.672.065.519.13.973.13 1.492 0 .26.064.584.064.844.13 1.427.26 2.92.325 4.347.26 4.023.324 8.046.26 12.004-.195 13.106-1.752 25.11-2.92 32.117-2.142-.194-4.348-.26-6.619-.26-3.05 0-6.229.196-9.473.52-5.45.52-10.446 1.492-14.988 2.855" fill="#0C0B1E" fill-rule="nonzero"/>
        <g transform="translate(71.608 31.864)" fill-rule="nonzero">
            <path d="M28.244 225.194c-1.405-13.383-21.146-16.863-11.978-37.607 1.94-5.621-.268-4.484.2-10.44.402-4.884-.066-10.104 6.29-10.104 1.339 0 2.477.268 3.079.736 1.338 1.071-.536 2.209-.536 2.209.067 1.07.536 2.543 1.071 4.149.2.535.402 1.137.67 1.672.133.268.2.536.334.803a117.466 117.466 0 0 0 1.94 4.283c1.74-.468 3.48-.602 5.086-.602.87 0 1.673.067 2.41.134 2.542.267 4.282.87 4.282.87.937-.803 1.74-1.941 2.409-3.28.2-.4.401-.87.602-1.338l.602-1.606a47.365 47.365 0 0 0 1.406-5.42s-1.339-2.476 3.278-2.743h.603c4.082 0 4.015 2.475 4.015 2.475 0 5.755-1.74 11.979-.134 17.6 5.086 17.933-7.495 25.696-10.84 39.079-2.209-.2 4.951.335 2.61.335-3.146 0-6.425.2-9.77.535-5.488.602-10.64 1.606-15.325 3.011" fill="#0C0B1E"/>
            <path d="M6.697 4.043c-.067 0-.067 0 0 0h-.134a3.262 3.262 0 0 0-1.606 0c-2.41.401-3.815 2.676-4.484 6.09-3.011 15.658 9.235 56.21 11.71 64.039 1.473-1.941 3.213-3.949 5.153-6.09.268-.268.536-.535.803-.87 1.874-1.807 4.216-3.68 7.027-5.22-2.209-17.465-8.231-55.674-18.47-57.95z" fill="url(#b)"/>
            <path d="M6.563 4.043a3.262 3.262 0 0 0-1.606 0c-2.41.401-3.815 2.676-4.484 6.09-3.011 15.658 9.235 56.21 11.71 64.039 1.473-1.941 3.213-3.949 5.153-6.09.268-.268.536-.535.803-.87-6.09-7.227-12.38-28.239-15.324-48.18C1.01 6.987 4.89 4.512 6.697 4.042h-.134" fill="#000" opacity=".14"/>
            <path d="M39.486.295c-.201-.067-.335-.133-.536-.133-.334-.067-.736-.134-1.07-.067h-.067c-2.944.133-4.751 3.145-5.822 7.762-2.677 12.045.067 35.399 2.275 50.321 1.874.134 3.815.402 5.822.803.134 0 .268.067.402.067 2.007.469 4.015 1.071 6.089 1.94 1.472.603 2.81 1.139 4.082 1.74.067-16.193-.803-58.752-11.175-62.433z" fill="url(#c)"/>
            <path d="M38.884.095c-.335-.067-.737-.134-1.071-.067h-.067c-2.944.134-4.751 3.145-5.822 7.762-2.676 12.045.067 35.4 2.275 50.322 1.874.133 3.815.401 5.822.803.134 0 .268.066.402.066-3.748-10.104-6.29-27.77-6.692-44.365C33.396 2.436 37.612.496 39.486.228c-.201 0-.402-.066-.602-.133" fill="#000" opacity=".14"/>
            <g transform="translate(7.072 57.017)">
                <path d="M52.422 68.952C48.744 54.805 40.16 54.795 33.793 54.204c0 0-1.119 1.17.768 3.54 1.969.062 9.45 6.173 13.957 13.243-.511.207-1.317.726-.93 1.55.498 1.147 1.284.968 1.987-.28.265-.036.739-.035.964.609.13.927.44 2.168 1.122 1.734.995-.613 1.082-1.436.317-2.072l.114-.15c.472.473 1.068.863 1.59.249.74-.983.098-1.703-1.009-1.886-.009-.066-.018-.132.039-.208.482.068 1.438.136 1.232-.849-.225-1.117-.915-1.223-1.522-.732z" fill="#460FE1"/>
                <path d="M21.172 52.755C19.767 66.138.026 69.618 9.194 90.362c1.94 5.62-.268 4.483.2 10.439.402 4.885-.066 10.104 6.29 10.104 1.34 0 2.477-.267 3.079-.736 1.338-1.07-.535-2.208-.535-2.208.067-1.07.535-2.543 1.07-4.149.201-.535.402-1.137.67-1.673.133-.267.2-.535.334-.803a117.466 117.466 0 0 1 1.94-4.283c1.74.469 3.48.603 5.086.603.87 0 1.673-.067 2.41-.134 2.542-.268 4.282-.87 4.282-.87.937.803 1.74 1.94 2.409 3.279.2.401.402.87.602 1.338l.603 1.606a47.365 47.365 0 0 1 1.405 5.42s-1.339 2.476 3.279 2.744h.602c4.082 0 4.015-2.476 4.015-2.476 0-5.755-1.74-11.978-.134-17.599 5.086-17.934-7.495-25.696-10.84-39.08-2.209.201 4.951-.334 2.61-.334-3.146 0-6.425-.2-9.77-.535-5.488-.603-10.64-1.606-15.324-3.012" fill="#460FE1"/>
                <path d="M34.475.292c.2.067.401.067.602.134 1.539.334 3.011.87 4.416 1.472 2.209 1.004 4.216 2.342 6.09 3.948 8.431 7.227 12.848 19.607 12.045 28.373-.803 8.565-8.298 14.855-15.793 18.602-3.814 1.941-7.093 3.815-11.375 3.949-4.484.133-8.365-1.807-12.447-3.413-5.22-2.075-11.577-4.216-14.722-9.168C.815 40.375-.12 35.825.012 31.341c.268-9.1 4.618-18.87 11.912-24.491 2.275-1.74 4.684-3.212 7.227-4.35A28.628 28.628 0 0 1 26.445.292c1.672-.268 3.412-.335 5.152-.268 1.004-.067 1.94.067 2.878.268" fill="#460FE1"/>
                <circle fill="#000" cx="43.723" cy="20.768" r="1.74"/>
            </g>
            <path d="M20.75 75.041c-1.54-3.68-.67-7.628 1.94-8.766 2.61-1.137 5.955.937 7.494 4.685 1.54 3.68.67 7.628-1.94 8.766-2.543 1.137-5.956-.937-7.495-4.685" fill="#460FE1"/>
            <circle fill="#000" cx="27.039" cy="75.778" r="1.338"/>
            <path d="M4.154 74.038c.067-2.543 2.141-4.015 4.149-2.945 3.747 1.94 7.561 2.142 11.51 1.272 3.613-.803 7.226.669 10.505 3.279 3.011 2.342 3.748 2.141 5.153-1.272 1.606-4.082 4.149-7.16 7.896-8.297 3.814-1.138 6.892-3.28 9.1-6.692 1.205-1.874 3.681-1.54 5.02.535 3.88 6.224 4.817 15.592 1.74 22.15-3.748 8.03-12.046 10.305-19.273 5.353-4.55-3.145-4.483-3.078-6.892 1.673-2.81 5.688-7.16 8.498-13.049 7.628-6.29-.936-10.84-5.353-13.785-12.178-1.472-3.48-2.208-6.96-2.074-10.506z" fill="#000"/>
            <path d="M36.073 117.6h-.067c-5.955.134-10.907 12.514-10.974 21.347-.067 8.632 4.483 10.707 10.238 10.707h.468c5.956-.134 10.841-2.275 10.908-11.109.067-8.766-4.617-20.944-10.573-20.944" fill="url(#d)" style="mix-blend-mode:multiply"/>
            <g transform="translate(16.672 71.748)">
                <path d="M1.046 12.989c-.065-2.007 2.243-2.832 5.066-2.897 2.823-.065 5.082.771 5.147 2.777.066 2.007-2.199 3.607-5.022 3.673-2.823.065-5.125-1.547-5.191-3.553z" fill="#460FE1"/>
                <circle fill="#000" cx="10.011" cy="13.311" r="1.338"/>
                <path d="M34.389 2.797c-1.161-1.51-4.07-1.38-5.95.595-1.878 1.975-3.095 3.96-1.878 5.506 1.216 1.547 3.945 1.45 6.07-.264 2.18-1.677 2.974-4.29 1.758-5.837z" fill="#460FE1"/>
                <circle fill="#000" cx="34.3" cy="5.48" r="1.271"/>
            </g>
            <ellipse fill="#460FE1" cx="12.652" cy="135.601" rx="1.071" ry="1"/>
            <path d="M41.124 126.846c0-.2 0-.402-.067-.736-.133-.736-1.204-.602-1.94-.402-.602 0-.937-.134-1.272-.267.469-.335 1.138-.803 1.205-1.272.067-.334-.2-.602-1.138-.803-.803-.2-1.271.402-1.606 1.004-5.755-1.54-6.424-5.42-5.888-8.766.2-1.272.535-2.41.87-3.346.066-.268.2-.535.267-.803h-3.48c-2.877 2.744-4.215 5.153-4.483 7.227-1.138 7.428 10.573 10.84 12.714 10.372h.067c0 .67.402 1.205 1.205 1.004.267-.067.334-.2.401-.402.067-.334-.2-.736-.401-1.003.067-.067.2-.067.267-.134.469.937 1.339 1.405 2.075.535.134-.134.2-.268.2-.401.067-.536-.468-1.004-.936-1.339.067-.134.134-.2.134-.334l.066.067c1.071.535 1.606.401 1.74-.201" fill="#460FE1"/>
            <ellipse fill="#460FE1" cx="11.314" cy="134.263" rx="3.279" ry="4.015"/>
        </g>
        <g transform="translate(135.716)">
            <path d="M89.146 172.279c.973-19.725-10.122-23.099-18.103-26.473 0 0-1.946 1.038-.39 4.866 2.466.844 9.669 11.745 12.718 22.645-.714.065-2.011.39-1.817 1.622.26 1.622 1.233 1.752 2.66.454.39 0 .974.195.974 1.168-.195 1.233-.324 2.92.714 2.66 1.557-.453 2.011-1.362 1.232-2.53.065-.065.13-.13.195-.13.39.779 1.038 1.558 1.947.909 1.362-.909.778-2.141-.52-2.855.065-.065.065-.13.13-.26.65.325 1.817.714 1.947-.584.13-1.427-.714-1.816-1.687-1.492zM22.055 131.726c-.843 0-1.103.714-.649 2.011l.065.13c-.13.065-.324.065-.454.13-.325-.649-.779-1.492-1.492-1.492-.195 0-.39.065-.584.194-1.298.779-.844 1.947.26 2.725-.066.13-.13.195-.26.325-.325-.325-.844-.714-1.233-.714-.195 0-.39.13-.584.39-.454.973.194 1.622 1.038 1.751 0 0 0 .065-.065.065-1.103 2.66.973 18.168 10.641 18.168 2.725 0 6.034-1.233 10.057-4.282.195-1.493.455-2.985.714-4.413-.324.065-.649.13-1.038.195-1.233.195-2.79.454-4.412.454-4.348 0-9.214-1.622-9.993-9.213.78-.26 1.687-.779 1.558-1.817-.13-1.168-.454-1.622-.844-1.622-.584 0-1.297.778-1.817 1.297-.194-.389-.26-.908-.13-1.622.455-.908.844-2.206-.064-2.53a2.333 2.333 0 0 0-.714-.13" fill="#460FE1" fill-rule="nonzero"/>
            <path d="M41.52 138.344c-.713 2.725-1.297 5.516-1.816 8.435-.26 1.428-.52 2.92-.714 4.412-1.363 9.344-1.752 18.947-1.752 27.057 0 5.256.26 9.798.52 13.107 0 .26.064.52.064.779l.195 1.557c.26 1.947.519 3.18.778 3.569.974 1.427 3.115 1.946 4.996 1.946 1.298 0 2.401-.26 2.985-.714 1.298-1.038-.519-2.14-.519-2.14.065-1.039.52-2.466 1.038-4.024.195-.519.39-1.103.65-1.622.129-.26.194-.519.324-.778.973-2.271 1.881-4.153 1.881-4.153 1.687.454 3.374.584 4.931.584.844 0 1.623-.065 2.336-.13 2.466-.26 4.153-.843 4.153-.843.908.778 1.687 1.881 2.336 3.18.194.388.389.843.584 1.297l.584 1.557a45.926 45.926 0 0 1 1.362 5.256s-1.297 2.4 3.18 2.66h.584c3.958 0 3.893-2.4 3.893-2.4.26-1.558.454-3.115.648-4.672.065-.52.13-.974.13-1.493 0-.26.065-.584.065-.843.13-1.428.26-2.92.325-4.348.26-4.022.324-8.045.26-12.003-.196-13.107-1.753-25.11-2.92-32.118-2.142.194-4.348.26-6.619.26-3.05 0-6.229-.195-9.473-.52-5.45-.519-10.447-1.492-14.989-2.855" fill="#460FE1" fill-rule="nonzero"/>
            <path d="M55.148 145.952h-.058c-6.436.117-11.76 13.513-11.818 23.049-.058 9.302 4.856 11.583 11.057 11.583h.468c6.435-.117 11.7-2.457 11.759-11.992.058-9.536-5.031-22.64-11.408-22.64" fill="url(#e)" fill-rule="nonzero" style="mix-blend-mode:multiply"/>
            <path d="M87.654.01c-6.294-.324-9.539 7.332-11.16 12.133-.974 2.79-1.688 5.645-2.272 8.5-.713 3.245-1.232 6.554-1.751 9.863-.52 3.568-.909 7.137-1.298 10.706-.325 3.633-.649 7.267-.909 10.9-.26 3.504-.389 7.008-.584 10.512-.13 3.18-.26 6.358-.324 9.538-.065 1.427-.065 2.79-.13 4.217 0 .325-.194 3.699-.065 3.764 3.18.908 6.164 2.14 9.02 3.633-.066.13-.195.26-.26.39 3.374 1.881 7.591 4.541 10.381 7.007 2.012-10.252 7.916-42.694 7.916-65.988 0-4.023-.13-8.045-.649-12.068-.519-3.958-1.427-9.214-4.736-11.874C89.925.464 88.82.075 87.653.01z" fill="url(#f)" fill-rule="nonzero"/>
            <path d="M87.264.01c-.649 0-1.297.13-1.881.324 2.465.39 7.916 3.05 7.202 19.077-1.103 26.602-6.359 55.087-13.366 65.209a49.667 49.667 0 0 1 9.148 6.553c2.012-10.252 7.916-42.759 7.916-65.988 0-14.015-2.141-24.72-8.63-25.175h-.389" fill="#000" fill-rule="nonzero" opacity=".14"/>
            <path d="M51.513 47.895s10.252 8.954 4.347 36.465l-16.221 1.687s7.98-25.5-10.252-28.484c-.065 0 3.504-16.481 22.126-9.668" fill="url(#g)" fill-rule="nonzero"/>
            <path d="M46.062 47.181h-.519s14.73.584 4.672 32.053a44.824 44.824 0 0 1 6.683-.713c1.168-8.435 1.622-22.126-5.385-30.626 0 0-3.115-.714-5.45-.714" fill="#000" fill-rule="nonzero" opacity=".14"/>
            <path d="M51.513 47.895s-9.02-3.115-16.481 5.061c-10.252 11.16 2.595 32.702-20.568 33.74-15.443.649-22.386-25.824-.974-43.083 0 0 14.145-5.516 38.023 4.282z" fill="url(#h)" fill-rule="nonzero"/>
            <path d="M57.807 78.52h-.909c-2.27.065-4.477.325-6.683.714-3.439.65-6.683 1.752-9.733 3.115-13.95 6.358-23.618 19.335-24.786 29.457-1.427 11.81 9.15 21.607 25.824 26.538 4.542 1.363 9.539 2.336 14.86 2.92 3.243.325 6.423.52 9.472.52 2.271 0 4.477-.066 6.619-.26 16.934-1.493 29.198-8.695 30.495-20.763.909-8.89-4.866-20.958-14.858-29.912a51.448 51.448 0 0 0-9.084-6.554c-3.05-1.687-6.294-3.114-9.798-4.087-2.336-.65-4.736-1.168-7.202-1.428-1.363-.195-2.79-.26-4.217-.26" fill="#460FE1" fill-rule="nonzero"/>
            <path d="M79.413 126.34h-1.881c-.13 0-.26-.064-.325-.064a14.46 14.46 0 0 1-4.412-1.298c-1.752-.779-3.374-1.817-4.866-2.855-1.623-1.168-3.245-2.336-4.932-3.439-1.038-.714-2.076-1.362-3.244-1.881-1.362-.584-2.725-.714-4.153-.195-.973.39-1.946.843-2.79 1.427-1.557 1.103-3.114 2.142-4.671 3.245-1.687 1.168-3.374 2.335-5.256 3.309-1.363.713-2.855 1.297-4.412 1.557-.39.065-.714.13-1.103.195h-1.882c-.065 0-.13 0-.194-.065-1.558-.13-3.05-.52-4.413-1.233-1.752-.908-2.984-2.206-4.022-3.634a18.66 18.66 0 0 1-2.401-5.32c-.714-2.53-1.038-5.126-1.168-7.721-.065-1.882-.065-3.764.26-5.645.389-2.012 1.038-3.958 2.076-5.84 1.687-2.92 2.27-3.504 7.137-7.137 6.813-5.126 16.74-7.592 25.5-7.462 9.084.195 20.698 3.569 27.316 9.668 1.687 1.557 3.05 3.763 4.088 5.71 1.103 2.14 1.687 4.412 1.882 6.812 0 .26.065.52.065.78v2.66c0 .064-.065.064-.065.13-.065 1.556-.195 3.114-.455 4.67-.324 1.947-.778 3.829-1.492 5.71-.714 1.753-1.687 3.44-3.114 4.867-1.622 1.622-3.569 2.595-6.035 2.985-.389-.065-.713 0-1.038.065z" fill="#000" fill-rule="nonzero"/>
            <path d="M58.026 127.29c-1.548.484-2.153.682-2.804.317-1.228-.69-2.734-1.846-2.519-3.29.358-2.394 5.423-3.24 7.81-1.114 2.314 2.06-.78 3.553-2.487 4.087" fill="#2D08B4"/>
            <path d="M56.401 127.292s5.84 8.693 12.916.567M55.688 127.394s-3.103 7.258-10.358-.317" stroke="#2D08B4" stroke-width="1.5" stroke-linecap="round"/>
            <circle fill="#000" fill-rule="nonzero" cx="70.978" cy="111.742" r="1.687"/>
        </g>
        <g transform="translate(179.448 102.705)" fill-rule="nonzero">
            <path d="M.514 6.506C-.524 3.976.06 1.316 1.812.537c1.752-.779 4.088.649 5.126 3.18 1.038 2.53.454 5.19-1.298 5.969-1.752.778-4.088-.65-5.126-3.18" fill="#460FE1"/>
            <circle fill="#000" cx="1.682" cy="7.155" r="1.298"/>
            <path d="M27.636 6.182c1.038-2.53.454-5.19-1.298-5.97-1.751-.778-4.087.65-5.125 3.18-1.039 2.53-.455 5.19 1.297 5.97 1.752.778 4.088-.65 5.126-3.18" fill="#460FE1"/>
            <circle fill="#000" cx="21.602" cy="6.571" r="1.298"/>
        </g>
        <g>
            <path d="M109.416 127.683c1.281.532 1.115.457 1.616.06.945-.746 2.062-1.924 1.687-3.114-.622-1.974-5.328-2.233-6.745.103-1.199 1.977 1.463 2.13 3.442 2.951" fill="#2D08B4"/>
            <path d="M110.334 128.473s-.776 6.067-6.022 2.28M110.94 128.368s4.868 4.347 5.78-1.902" stroke="#2D08B4" stroke-width="1.5" stroke-linecap="round"/>
        </g>
    </g>
</svg>
