<svg width="28" height="25" viewBox="0 0 28 25" xmlns="http://www.w3.org/2000/svg">
    <path d="m1.328 12.704 7.806 2.927c.213 1.697.972 7.78.978 7.813.07.409.57.559.856.271l.003-.002 4.615-4.699 6.976 2.79a.506.506 0 0 0 .685-.377l3.642-19.83a.506.506 0 0 0-.697-.556L1.305 11.766a.506.506 0 0 0 .023.938zm10.924 4.252a.526.526 0 0 0-.1.177l-1.317 3.95-.7-5.603 11.877-9.725-9.76 11.201zm-.47 4.488 1.161-3.487 1.625.65-2.787 2.837zm10.582-.808-8.881-3.552L25.563 3.22l-3.2 17.415zm.948-17.252L9.503 14.689 2.86 12.198l20.453-8.814z" fill="#BEBEBE" fill-rule="nonzero" stroke="#BEBEBE" stroke-width=".5"/>
</svg>
