<svg width="46" height="46" viewBox="0 0 46 46" xmlns="http://www.w3.org/2000/svg" xmlns:xlink="http://www.w3.org/1999/xlink">
    <defs>
        <linearGradient x1="0%" y1="13.315%" x2="71.196%" y2="72.378%" id="hz0kpsb1fb">
            <stop stop-color="#F9A1AF" offset="0%"/>
            <stop stop-color="#B15ED4" offset="45.954%"/>
            <stop stop-color="#460FE1" offset="100%"/>
        </linearGradient>
        <linearGradient x1="52.474%" y1="-33.839%" x2="49.25%" y2="78.935%" id="3kvqx0qfcd">
            <stop stop-color="#EFA4AE" offset="0%"/>
            <stop stop-color="#B15ED4" offset="59.39%"/>
            <stop stop-color="#460FE1" offset="98.09%"/>
        </linearGradient>
        <linearGradient x1="18.365%" y1="7.841%" x2="56.249%" y2="55.269%" id="vwj336xkxe">
            <stop stop-color="#EFA4AE" offset="0%"/>
            <stop stop-color="#B15ED4" offset="52.18%"/>
            <stop stop-color="#460FE1" offset="100%"/>
        </linearGradient>
        <linearGradient x1="61.632%" y1="18.306%" x2="16.845%" y2="72.158%" id="31p8c74eaf">
            <stop stop-color="#EFA4AE" offset="0%"/>
            <stop stop-color="#B15ED4" offset="49.11%"/>
            <stop stop-color="#460FE1" offset="98.09%"/>
        </linearGradient>
        <linearGradient x1="52.958%" y1="-12.368%" x2="52.958%" y2="73.87%" id="1y1bdbsvgg">
            <stop stop-color="#F9A1AF" offset="0%"/>
            <stop stop-color="#B15ED4" offset="45.954%"/>
            <stop stop-color="#460FE1" offset="100%"/>
        </linearGradient>
        <rect id="xdps4ozpda" x="0" y="0" width="46" height="46" rx="7"/>
    </defs>
    <g fill="none" fill-rule="evenodd">
        <g>
            <mask id="roaul802kc" fill="#fff">
                <use xlink:href="#xdps4ozpda"/>
            </mask>
            <use fill="url(#hz0kpsb1fb)" xlink:href="#xdps4ozpda"/>
            <g fill-rule="nonzero" mask="url(#roaul802kc)">
                <path d="M40.402 48.123H4.824a7.693 7.693 0 0 1-7.7-7.7v-35.6c0-4.258 3.443-7.7 7.7-7.7h35.578c4.257 0 7.7 3.442 7.7 7.7V40.4c.022 4.257-3.443 7.722-7.7 7.722z" fill="#0C0B1E"/>
                <g transform="translate(4.057 5.915)">
                    <path d="M31.744.004c-2.273-.123-3.44 2.642-4.035 4.403-.348 1.004-.594 2.048-.819 3.093a68.94 68.94 0 0 0-.635 3.584 82.958 82.958 0 0 0-.45 3.871c-.123 1.31-.226 2.622-.328 3.932-.082 1.27-.143 2.54-.205 3.81l-.123 3.461c-.02.512-.02 1.024-.04 1.536 0 .123-.083 1.331-.021 1.352 1.147.328 2.232.778 3.256 1.331-.02.041-.061.103-.082.144 1.209.675 2.745 1.638 3.748 2.54.717-3.708 2.868-15.484 2.868-23.902 0-1.454-.041-2.929-.246-4.362-.205-1.434-.512-3.339-1.72-4.301-.349-.349-.738-.472-1.168-.492z" fill="url(#3kvqx0qfcd)"/>
                    <path d="M18.657 17.351s3.707 3.236 1.577 13.21l-5.899.615s2.888-9.237-3.727-10.322c.02 0 1.29-5.98 8.049-3.503" fill="url(#vwj336xkxe)"/>
                    <path d="M18.657 17.351s-3.277-1.126-5.98 1.823c-3.728 4.055.941 11.859-7.435 12.227-5.592.246-8.11-9.34-.369-15.606 0 0 5.14-2.007 13.784 1.556z" fill="url(#31p8c74eaf)"/>
                    <path d="M20.95 28.452h-.327c-.82.02-1.638.102-2.417.266a15.72 15.72 0 0 0-3.522 1.127c-5.06 2.294-8.562 7.025-8.992 10.67-.512 4.26 3.318 7.824 9.36 9.626 1.639.492 3.461.84 5.387 1.045 1.188.123 2.334.184 3.44.184.82 0 1.618-.04 2.397-.102 6.144-.533 10.588-3.154 11.039-7.537.348-3.216-1.761-7.599-5.366-10.835-.983-.88-2.09-1.7-3.297-2.355a16.372 16.372 0 0 0-3.544-1.475c-.84-.245-1.72-.41-2.621-.512a10.008 10.008 0 0 0-1.536-.102" fill="#460FE1"/>
                    <path d="M28.754 45.758h-.696c-.041 0-.082-.02-.123-.02-.574-.062-1.106-.246-1.598-.471-.635-.287-1.208-.656-1.761-1.024-.594-.41-1.188-.84-1.782-1.25a8.244 8.244 0 0 0-1.167-.675c-.492-.205-.984-.267-1.496-.062a5.133 5.133 0 0 0-1.003.512c-.574.39-1.127.778-1.7 1.188-.614.43-1.229.86-1.905 1.188-.512.246-1.024.45-1.597.553-.144.02-.267.04-.41.061h-.696c-.02 0-.041-.02-.062-.02a3.886 3.886 0 0 1-1.597-.45c-.615-.328-1.086-.8-1.454-1.332-.41-.594-.676-1.25-.86-1.925-.267-.922-.39-1.843-.43-2.806-.021-.676-.021-1.372.102-2.048a6.222 6.222 0 0 1 .758-2.11c.614-1.044.819-1.249 2.6-2.58 2.479-1.864 6.083-2.765 9.217-2.683 3.297.082 7.496 1.31 9.892 3.502.615.573 1.106 1.352 1.475 2.069a6.58 6.58 0 0 1 .676 2.457c0 .103.02.185.02.287v.963c0 .02-.02.02-.02.04-.02.574-.062 1.127-.164 1.68a9.373 9.373 0 0 1-.553 2.069c-.266.634-.614 1.249-1.126 1.761-.574.573-1.311.942-2.192 1.085-.102 0-.225.02-.348.041z" fill="#0C0B1E"/>
                    <circle fill="#000" cx="25.702" cy="40.474" r="1"/>
                </g>
                <g fill="#460FE1">
                    <path d="M18.655 46.44c-.56-1.363-.245-2.797.7-3.217.944-.42 2.203.35 2.763 1.714.56 1.364.245 2.798-.7 3.218-.944.42-2.203-.35-2.763-1.714M32.276 46.266c.56-1.364.245-2.798-.7-3.218-.944-.42-2.203.35-2.763 1.714-.56 1.364-.245 2.798.7 3.218.944.42 2.203-.35 2.763-1.714"/>
                </g>
            </g>
        </g>
        <path d="M20.886 34.541c4.873-1.023 9.099-.306 12.679 2.152.812-2.843 1.439-5.059 1.88-6.645a.5.5 0 0 0-.74-.563l-2.29 1.384a.5.5 0 0 1-.737-.285l-.862-2.873a.5.5 0 0 0-.867-.172l-1.664 2.046a.5.5 0 0 1-.818-.06l-1.505-2.54a.5.5 0 0 0-.847-.022l-1.765 2.653a.5.5 0 0 1-.782.064l-1.621-1.737a.5.5 0 0 0-.861.405l.8 6.193z" stroke="#0C0B1E" fill="url(#1y1bdbsvgg)"/>
    </g>
</svg>
