<svg width="217" height="49" viewBox="0 0 217 49" xmlns="http://www.w3.org/2000/svg">
    <defs>
        <linearGradient x1="0%" y1="50%" x2="89.808%" y2="50%" id="a">
            <stop stop-color="#F9A1AF" offset="0%"/>
            <stop stop-color="#B15ED4" offset="45.954%"/>
            <stop stop-color="#460FE1" offset="100%"/>
        </linearGradient>
    </defs>
    <path d="M210.957 47.533c1.605-.744 2.856-1.887 3.756-3.433.901-1.545 1.35-3.512 1.35-5.898 0-2.542-.694-4.88-2.084-7.011a35.61 35.61 0 0 0-4.958-6.016l-8.567-8.45c-1.331-1.33-2.24-2.562-2.73-3.697a8.812 8.812 0 0 1-.734-3.521c0-2.426.724-4.186 2.172-5.282 1.448-1.094 3.248-1.643 5.4-1.643 1.916 0 3.442.362 4.577 1.086 1.134.724 1.994 1.829 2.581 3.316.588 1.486.958 3.344 1.116 5.574l2.698-.645c-.156-2.23-.507-4.108-1.056-5.634-.548-1.526-1.3-2.748-2.258-3.667a8.553 8.553 0 0 0-3.374-1.996C207.554.206 206.108 0 204.502 0c-3.09 0-5.603.842-7.54 2.524-1.937 1.681-2.905 4.087-2.905 7.218 0 1.564.332 3.09.998 4.577.665 1.486 1.721 2.973 3.169 4.459l8.685 8.627c1.955 1.917 3.471 3.707 4.548 5.369 1.075 1.663 1.613 3.531 1.613 5.604 0 2.738-.674 4.695-2.025 5.869-1.35 1.173-3.198 1.76-5.545 1.76-2.074 0-3.696-.44-4.87-1.32-1.175-.88-2.045-2.123-2.612-3.726-.567-1.605-.987-3.443-1.262-5.516l-2.759.88c.196 2.503.716 4.674 1.556 6.514.842 1.838 2.073 3.266 3.698 4.284 1.623 1.017 3.687 1.525 6.19 1.525 2.074 0 3.912-.372 5.516-1.115zm-40.598.528V24.118h8.862l7.394 23.943h3.169l-7.63-24.53c1.917-.312 3.374-1.026 4.371-2.141.999-1.116 1.683-2.474 2.055-4.078.372-1.604.557-3.287.557-5.048 0-2.19-.284-4.175-.85-5.955-.567-1.78-1.604-3.189-3.11-4.225-1.505-1.037-3.669-1.556-6.484-1.556H167.19v47.533h3.17zm0-45.01h8.156c3.014 0 5.018.784 6.016 2.349.997 1.564 1.496 3.853 1.496 6.864 0 1.918-.205 3.58-.616 4.989-.41 1.408-1.144 2.493-2.2 3.257-1.057.763-2.602 1.144-4.637 1.144h-8.215V3.052zm-9.682 45.01v-2.524h-13.38v-20.89h10.856v-2.465h-10.856V3.111h13.205V.528h-16.433v47.533h16.608zm-29.243-.968c1.35-1.076 2.317-2.533 2.905-4.371l.469 5.339h2.054V25.41h-10.564v2.465h7.572v6.982c0 2.309-.226 4.303-.676 5.986-.45 1.683-1.252 2.974-2.406 3.873-1.154.9-2.787 1.35-4.9 1.35-2.23 0-3.951-.47-5.164-1.408-1.213-.94-2.054-2.26-2.524-3.96-.469-1.703-.703-3.708-.703-6.017V13.967c0-2.23.205-4.196.615-5.898.413-1.701 1.223-3.032 2.437-3.991 1.212-.958 2.972-1.437 5.28-1.437 2.074 0 3.678.41 4.812 1.232 1.135.822 1.936 2.025 2.407 3.609.47 1.584.703 3.55.703 5.898v1.82h3.052v-1.644c0-2.778-.343-5.184-1.027-7.218-.685-2.034-1.818-3.599-3.403-4.695C130.788.548 128.608 0 125.83 0c-3.052 0-5.419.596-7.1 1.79-1.682 1.194-2.846 2.846-3.491 4.959-.647 2.112-.969 4.557-.969 7.335V34.27c0 2.779.322 5.263.969 7.453.645 2.19 1.79 3.903 3.432 5.135 1.643 1.232 3.97 1.85 6.983 1.85 2.504 0 4.43-.54 5.78-1.615zm-44.572.968V7.864l16.139 40.197h2.522V.528h-2.817v40.139L86.568.528h-2.524v47.533h2.818zm-16.846 0h3.168V.528h-3.168v47.533zm-32.93 0L45.01 6.456l8.098 41.605h2.7L63.493.528h-2.758l-6.338 41.254-7.863-40.198h-3.051l-7.628 40.198L28.87.528h-2.816l8.274 47.533h2.758zm-31.835-.938c-1.623-1.018-2.856-2.446-3.697-4.284-.84-1.84-1.36-4.011-1.554-6.514l2.758-.88c.273 2.073.695 3.91 1.261 5.516.567 1.603 1.437 2.846 2.612 3.726 1.173.88 2.797 1.32 4.87 1.32 2.348 0 4.196-.587 5.545-1.76 1.35-1.174 2.025-3.13 2.025-5.869 0-2.073-.537-3.941-1.613-5.604-1.076-1.662-2.592-3.452-4.549-5.369l-8.684-8.627c-1.448-1.486-2.504-2.973-3.169-4.46a11.089 11.089 0 0 1-.998-4.576c0-3.131.968-5.537 2.905-7.218C4.899.842 7.413 0 10.503 0c1.605 0 3.053.206 4.343.616a8.545 8.545 0 0 1 3.374 1.996c.959.92 1.712 2.141 2.26 3.667.547 1.526.9 3.404 1.056 5.634l-2.7.645c-.156-2.23-.527-4.088-1.114-5.574-.587-1.487-1.448-2.592-2.583-3.316-1.134-.724-2.66-1.086-4.576-1.086-2.152 0-3.952.549-5.4 1.643-1.446 1.096-2.17 2.856-2.17 5.282a8.79 8.79 0 0 0 .733 3.52c.489 1.136 1.398 2.368 2.729 3.698l8.567 8.45a35.728 35.728 0 0 1 4.96 6.016 12.585 12.585 0 0 1 2.082 7.011c0 2.386-.45 4.353-1.35 5.898-.9 1.546-2.151 2.69-3.756 3.433-1.604.743-3.443 1.115-5.516 1.115-2.503 0-4.567-.508-6.19-1.525z" fill="url(#a)" fill-rule="evenodd"/>
</svg>
