<svg width="22" height="22" viewBox="0 0 22 22" xmlns="http://www.w3.org/2000/svg">
    <g stroke="#BEBEBE" stroke-width="1.5" fill="none" fill-rule="evenodd">
        <path d="M11 .75c2.83 0 5.393 1.147 7.248 3.002A10.218 10.218 0 0 1 21.25 11c0 2.83-1.147 5.393-3.002 7.248A10.218 10.218 0 0 1 11 21.25c-2.83 0-5.393-1.147-7.248-3.002A10.218 10.218 0 0 1 .75 11c0-2.83 1.147-5.393 3.002-7.248A10.218 10.218 0 0 1 11 .75z" fill="#0C0B1E"/>
        <path d="m9.582 14.582-2.167.382a.66.66 0 0 1-.764-.764l.382-2.167c.066-.375.246-.72.515-.99l9.501-9.364a2.153 2.153 0 0 1 3.034.01 2.122 2.122 0 0 1-.01 3.013l-9.502 9.365c-.269.269-.614.449-.989.515z" fill="#0C0B1E"/>
        <path stroke-linecap="square" d="m16.5 3.5 2 2"/>
    </g>
</svg>
