<svg width="24" height="17" viewBox="0 0 24 17" xmlns="http://www.w3.org/2000/svg">
    <path d="M21.188 0H2.813C1.262 0 0 1.271 0 2.833v11.334C0 15.729 1.262 17 2.813 17h18.375C22.738 17 24 15.729 24 14.167V2.833C24 1.271 22.738 0 21.187 0zM21 2l-8.317 8.706A.95.95 0 0 1 12 11a.95.95 0 0 1-.683-.294L3 2h18zm1 12.125c0 .482-.415.875-.926.875H2.926c-.51 0-.926-.393-.926-.875V4l8.019 7.716c.518.5 1.24.786 1.981.786.74 0 1.463-.287 1.981-.786L22 4v10.125z" fill="#4F43FF" fill-rule="nonzero"/>
</svg>
