<svg width="271" height="119" viewBox="0 0 271 119" xmlns="http://www.w3.org/2000/svg" xmlns:xlink="http://www.w3.org/1999/xlink">
    <defs>
        <linearGradient x1="11.412%" y1="38.635%" x2="87.968%" y2="56.464%" id="7ikmokuj1b">
            <stop stop-color="#EFA4AE" offset="0%"/>
            <stop stop-color="#B15ED4" offset="29.278%"/>
            <stop stop-color="#460FE1" offset="100%"/>
        </linearGradient>
        <path d="M270.1 67.67h-8.101V4.025h-43.632L194.54 45.22C188.239 19.274 164.835 0 136.93 0c-27.27 0-50.197 18.374-57.134 43.42V4.023H36.112L0 66.56V96.74h42.043v17.792h37.753V97.535h11.861c10.855 12.867 27.11 21.02 45.273 21.02 18.532 0 35.106-8.524 45.96-21.815h41.355v17.792h37.754V97.535h8.101V67.67z" id="vd1ansqlpa"/>
    </defs>
    <g fill="none" fill-rule="evenodd">
        <mask id="2qsfzzhpvc" fill="#fff">
            <use xlink:href="#vd1ansqlpa"/>
        </mask>
        <use fill="url(#7ikmokuj1b)" fill-rule="nonzero" xlink:href="#vd1ansqlpa"/>
        <g mask="url(#2qsfzzhpvc)">
            <g transform="translate(142.404 34.153)" fill-rule="nonzero">
                <path d="M3.945 2.382c-.04 0-.04 0 0 0h-.079a1.922 1.922 0 0 0-.946 0C1.5 2.618.673 3.958.279 5.969c-1.774 9.224 5.44 33.113 6.898 37.725.868-1.143 1.893-2.326 3.036-3.587.157-.158.315-.316.473-.513 1.104-1.064 2.483-2.168 4.139-3.075C13.524 26.231 9.976 3.722 3.945 2.382z" fill="#0C0A1E"/>
                <path d="M3.866 2.382a1.922 1.922 0 0 0-.946 0C1.5 2.618.673 3.958.279 5.969c-1.774 9.224 5.44 33.113 6.898 37.725.868-1.143 1.893-2.326 3.036-3.587.157-.158.315-.316.473-.513-3.587-4.257-7.293-16.635-9.027-28.382C.594 4.116 2.88 2.657 3.945 2.382h-.079" fill="#000" opacity=".14"/>
                <path d="M23.26.174c-.117-.04-.196-.079-.315-.079-.197-.04-.433-.079-.63-.04h-.04c-1.734.08-2.799 1.853-3.43 4.573-1.576 7.096.04 20.854 1.341 29.644 1.104.08 2.247.237 3.43.473.078 0 .157.04.236.04 1.183.276 2.365.63 3.587 1.143.868.355 1.656.67 2.405 1.025.04-9.54-.473-34.61-6.583-36.779z" fill="#0C0A1E"/>
                <path d="M22.906.056c-.197-.04-.434-.08-.63-.04h-.04c-1.735.08-2.799 1.853-3.43 4.573-1.577 7.096.04 20.853 1.34 29.644 1.104.079 2.248.237 3.43.473.079 0 .158.04.237.04-2.208-5.953-3.706-16.36-3.942-26.136-.197-7.175 2.286-8.318 3.39-8.475-.118 0-.237-.04-.355-.08" fill="#000" opacity=".14"/>
                <g transform="translate(4.166 33.588)">
                    <path d="M20.309.172c.118.04.236.04.354.079.907.197 1.774.512 2.602.867 1.301.591 2.484 1.38 3.587 2.326 4.967 4.257 7.57 11.55 7.096 16.714-.473 5.046-4.888 8.751-9.303 10.959-2.247 1.143-4.179 2.247-6.702 2.325-2.64.08-4.927-1.064-7.332-2.01-3.074-1.222-6.82-2.483-8.672-5.4-1.459-2.247-2.01-4.928-1.932-7.57.158-5.36 2.72-11.116 7.017-14.427a21.433 21.433 0 0 1 4.257-2.562A16.864 16.864 0 0 1 15.578.172a15.52 15.52 0 0 1 3.036-.158c.59-.04 1.143.04 1.695.158" fill="#0C0A1E"/>
                    <circle fill="#000" cx="25.757" cy="12.234" r="1.025"/>
                </g>
                <circle fill="#000" cx="15.929" cy="44.64" r="1"/>
                <path d="M2.447 43.615c.04-1.498 1.261-2.365 2.444-1.734 2.208 1.143 4.454 1.261 6.78.749 2.129-.474 4.258.394 6.19 1.931 1.773 1.38 2.207 1.262 3.035-.749.946-2.405 2.444-4.218 4.651-4.888 2.247-.67 4.06-1.932 5.361-3.942.71-1.104 2.168-.907 2.957.315 2.286 3.666 2.838 9.185 1.025 13.048-2.208 4.73-7.096 6.071-11.353 3.154-2.68-1.853-2.641-1.813-4.06.986-1.656 3.35-4.219 5.006-7.687 4.493-3.706-.551-6.387-3.153-8.121-7.174-.867-2.05-1.3-4.1-1.222-6.189z" fill="#000"/>
            </g>
        </g>
        <g fill-rule="nonzero" mask="url(#2qsfzzhpvc)">
            <path d="M133.04 23.006c-3.593-.186-5.445 4.185-6.371 6.926-.556 1.593-.963 3.223-1.297 4.853-.407 1.852-.703 3.741-1 5.63-.296 2.038-.518 4.075-.74 6.112-.186 2.074-.371 4.149-.52 6.223-.147 2-.221 4-.333 6-.074 1.816-.148 3.63-.185 5.446-.037.815-.037 1.593-.074 2.408 0 .185-.111 2.111-.037 2.148a27.21 27.21 0 0 1 5.149 2.074c-.037.074-.111.149-.148.223 1.926 1.074 4.334 2.593 5.926 4 1.149-5.852 4.52-24.373 4.52-37.671 0-2.297-.075-4.593-.371-6.89-.296-2.26-.815-5.26-2.704-6.779-.519-.444-1.148-.666-1.815-.703z" fill="#0C0A1E"/>
            <path d="M132.818 23.043c-.37 0-.741.074-1.075.185 1.408.222 4.52 1.74 4.112 10.89-.63 15.187-3.63 31.449-7.63 37.227a28.354 28.354 0 0 1 5.222 3.741c1.149-5.852 4.52-24.41 4.52-37.671 0-8.001-1.223-14.113-4.927-14.372h-.222" fill="#0C0A1E" opacity=".14"/>
            <path d="M112.408 50.38s5.852 5.111 2.482 20.817l-9.298.963s4.556-14.557-5.852-16.261c0 0 2.037-9.409 12.668-5.52" fill="#0C0A1E"/>
            <path d="M109.296 49.972H109s8.408.333 2.667 18.299a25.59 25.59 0 0 1 3.815-.408c.667-4.815.926-12.631-3.074-17.484 0 0-1.778-.407-3.112-.407" fill="#0C0A1E" opacity=".14"/>
            <path d="M112.408 50.38s-5.149-1.779-9.409 2.889c-5.852 6.37 1.482 18.669-11.742 19.261-8.816.37-12.78-14.742-.556-24.595 0 0 8.075-3.186 21.707 2.444zM116 67.863h-.518a26.125 26.125 0 0 0-3.815.408c-1.963.37-3.815 1-5.556 1.778-7.964 3.63-13.483 11.038-14.15 16.816-.815 6.742 5.223 12.335 14.742 15.15 2.593.778 5.445 1.334 8.483 1.667 1.852.186 3.667.297 5.408.297 1.296 0 2.556-.037 3.778-.149 9.668-.851 16.669-4.963 17.41-11.853.518-5.075-2.778-11.964-8.483-17.076a29.37 29.37 0 0 0-5.186-3.741c-1.74-.963-3.593-1.778-5.593-2.334-1.333-.37-2.704-.667-4.112-.815a17.156 17.156 0 0 0-2.407-.148" fill="#0C0A1E"/>
            <path d="M128.336 95.126h-1.075c-.074 0-.148-.037-.185-.037a7.449 7.449 0 0 1-2.519-.815c-1-.482-1.926-1.111-2.778-1.778-.926-.704-1.852-1.445-2.815-2.149-.593-.444-1.185-.852-1.852-1.148-.778-.37-1.556-.444-2.37-.111a6.733 6.733 0 0 0-1.593.889 127.55 127.55 0 0 0-2.667 2.037c-.963.741-1.927 1.445-3 2.038a8.652 8.652 0 0 1-2.52.963c-.222.037-.407.074-.63.11h-1.074c-.037 0-.074 0-.11-.036a6.063 6.063 0 0 1-2.52-.778c-1-.556-1.703-1.37-2.296-2.26a12.188 12.188 0 0 1-1.37-3.296c-.408-1.593-.593-3.186-.667-4.816-.037-1.185-.037-2.333.148-3.519.222-1.26.592-2.482 1.185-3.63.963-1.815 1.297-2.148 4.075-4.445 3.89-3.185 9.556-4.741 14.557-4.63 5.186.111 11.816 2.222 15.595 6 .963.964 1.74 2.334 2.333 3.557.63 1.333.963 2.74 1.074 4.222 0 .149.037.334.037.482v1.63c0 .037-.037.037-.037.074a25.364 25.364 0 0 1-.259 2.89c-.185 1.184-.444 2.37-.852 3.518-.407 1.111-.963 2.148-1.778 3-.926 1-2.037 1.63-3.445 1.852a1.002 1.002 0 0 1-.592.186z" fill="#000"/>
        </g>
        <path d="M125.006 102.618c5.37 5.697 7.246 11.948 5.627 18.753-2.429 10.207-25.077 8.817-30.262 0-3.457-5.878-1.513-12.663 5.832-20.357l18.803 1.604z" fill="#0C0A1E" mask="url(#2qsfzzhpvc)"/>
        <path d="M174.584 98.79c4.463 5.261 6.022 11.034 4.676 17.318-2.018 9.427-20.843 8.142-25.153 0-2.873-5.428-1.257-11.694 4.848-18.8l15.629 1.482z" fill="#0C0A1E" mask="url(#2qsfzzhpvc)" transform="rotate(-8 166.228 110.007)"/>
    </g>
</svg>
