<svg width="22" height="27" viewBox="0 0 22 27" xmlns="http://www.w3.org/2000/svg">
    <g fill="#BEBEBE" fill-rule="evenodd">
        <path d="M10.838 0a6.9 6.9 0 0 1 6.689 4.897.974.974 0 1 1-1.865.564 4.952 4.952 0 0 0-9.688 1.346v2.809a.974.974 0 0 1-1.949 0V6.782A6.899 6.899 0 0 1 10.838.001zM10.923 14.814c.538 0 .974.437.974.975v2.884a.974.974 0 0 1-1.948 0V15.79c0-.538.436-.975.974-.975z"/>
        <path d="M2.533 9.891c1.838-1.504 4.633-2.002 8.39-2.002 3.758 0 6.554.498 8.391 2.002 1.898 1.554 2.534 3.966 2.534 7.117 0 3.152-.636 5.565-2.534 7.118-1.837 1.505-4.633 2.003-8.39 2.003-3.758 0-6.553-.498-8.39-2.003C.635 22.573 0 20.16 0 17.008c0-3.15.636-5.563 2.533-7.117zM3.768 11.4c-1.212.992-1.82 2.652-1.82 5.61 0 2.957.608 4.618 1.82 5.61 1.272 1.041 3.45 1.561 7.155 1.561 3.706 0 5.885-.52 7.157-1.561 1.212-.992 1.82-2.653 1.82-5.61 0-2.958-.608-4.618-1.82-5.61-1.272-1.042-3.451-1.562-7.157-1.562-3.705 0-5.883.52-7.155 1.562z"/>
    </g>
</svg>
