<svg width="30" height="27" viewBox="0 0 30 27" xmlns="http://www.w3.org/2000/svg">
    <g fill="#BEBEBE" fill-rule="nonzero" stroke="#BEBEBE" stroke-width=".5">
        <path d="M22.58 13.416a.55.55 0 0 1-.546-.547.55.55 0 0 1 .547-.546.55.55 0 0 1 .547.546.55.55 0 0 1-.547.547z"/>
        <path d="M26.642 25.873H3.358a2.33 2.33 0 0 1-2.039-1.177 2.33 2.33 0 0 1 0-2.354L12.961 2.177A2.33 2.33 0 0 1 15 1c.851 0 1.613.44 2.039 1.177l4.827 8.361a.547.547 0 0 1-.947.547l-4.827-8.361A1.248 1.248 0 0 0 15 2.094c-.456 0-.864.235-1.092.63L2.266 22.888a1.248 1.248 0 0 0 0 1.261c.228.395.636.63 1.092.63h23.284c.456 0 .864-.235 1.092-.63a1.248 1.248 0 0 0 0-1.26l-4.667-8.084a.547.547 0 1 1 .947-.546l4.667 8.083a2.33 2.33 0 0 1 0 2.354 2.33 2.33 0 0 1-2.04 1.177z"/>
        <path d="M15 17.544c-.965 0-1.75-.785-1.75-1.75V10.86c0-.965.785-1.75 1.75-1.75s1.75.785 1.75 1.75v4.935c0 .964-.785 1.75-1.75 1.75zm0-7.34a.657.657 0 0 0-.656.656v4.935a.657.657 0 0 0 1.312 0V10.86a.657.657 0 0 0-.656-.656zM15 22.357c-.965 0-1.75-.785-1.75-1.75s.785-1.75 1.75-1.75a1.752 1.752 0 0 1 1.237 2.987c-.33.33-.77.513-1.237.513zm0-2.407a.657.657 0 1 0 .001 1.314A.657.657 0 0 0 15 19.95z"/>
    </g>
</svg>
