<svg width="28" height="28" viewBox="0 0 28 28" xmlns="http://www.w3.org/2000/svg">
    <g fill="#BEBEBE" fill-rule="nonzero">
        <path d="M24.992 4.375h-.82V2.461A2.464 2.464 0 0 0 21.71 0a2.464 2.464 0 0 0-2.461 2.46v.673c0 .85-.57 1.607-1.388 1.84l-.8.229v-.007a.82.82 0 0 0-.82-.82h-3.281a.82.82 0 0 0-.82.82V8.86H2.46A2.464 2.464 0 0 0 0 11.32v15.86a.82.82 0 0 0 1.275.682l3.075-2.05h15.61a2.464 2.464 0 0 0 2.462-2.46v-8.586h2.57A3.011 3.011 0 0 0 28 11.758V7.383a3.011 3.011 0 0 0-3.008-3.008zm-11.21 1.64h1.64v7.11h-1.64v-7.11zm7 17.337c0 .452-.369.82-.821.82H4.1a.82.82 0 0 0-.454.138L1.64 25.647V11.32c0-.452.368-.82.82-.82h9.68v3.445c0 .453.367.82.82.82h3.281a.82.82 0 0 0 .815-.726 4.62 4.62 0 0 0 2.483.727h1.241v8.586zm5.577-11.594c0 .754-.613 1.367-1.367 1.367H19.54a2.986 2.986 0 0 1-2.477-1.326V6.908l1.25-.357a3.57 3.57 0 0 0 2.578-3.418V2.46a.821.821 0 0 1 1.64 0v2.734c0 .453.368.82.82.82h1.641c.754 0 1.367.614 1.367 1.368v4.375z"/>
        <path d="M4.102 15.422H9.57a.82.82 0 0 0 0-1.64H4.102a.82.82 0 0 0 0 1.64zM18.32 17.063H4.102a.82.82 0 0 0 0 1.64H18.32a.82.82 0 0 0 0-1.64zM18.32 20.344H4.102a.82.82 0 0 0 0 1.64H18.32a.82.82 0 0 0 0-1.64z"/>
    </g>
</svg>
