<svg width="24" height="24" viewBox="0 0 24 24" xmlns="http://www.w3.org/2000/svg">
    <path d="M23 9.5a.5.5 0 0 0-.194-.395s-1.23-.954-2.822-2.203V5c0-1.103-.897-2-2-2h-2.896a62.542 62.542 0 0 1-1.744-1.462C12.947 1.186 12.474 1 12 1c-.474 0-.947.186-1.344.538-.413.366-1.03.88-1.744 1.462H5.984c-1.103 0-2 .897-2 2v1.926c-1.576 1.238-2.79 2.179-2.79 2.179A.5.5 0 0 0 1 9.5V21c0 1.103.897 2 2 2h18c1.103 0 2-.897 2-2V9.5zm-3.016-1.328c.707.554 1.306 1.02 1.7 1.328-.393.305-.994.772-1.7 1.324V8.172zM11.32 2.286c.429-.38.932-.38 1.362 0 .225.2.509.441.835.714h-3.032c.326-.273.61-.515.835-.714zM4.984 5c0-.551.45-1 1-1h12c.552 0 1 .449 1 1v6.608c-2.235 1.756-5.033 3.98-6.303 5.105-.12.107-.372.287-.697.287-.237 0-.466-.096-.68-.287-1.285-1.136-4.088-3.37-6.32-5.125V5zm-1 3.197v2.606A617.767 617.767 0 0 0 2.315 9.5c.388-.302.977-.76 1.67-1.303zM22 21c0 .551-.449 1-1 1H3c-.551 0-1-.449-1-1V10.52c2.085 1.624 6.91 5.41 8.64 6.942.398.352.862.538 1.344.538.486 0 .969-.19 1.36-.538 1.798-1.591 6.718-5.436 8.656-6.941V21z" fill="#4F43FF" fill-rule="nonzero" stroke="#4F43FF" stroke-width=".8"/>
</svg>
