<svg width="36" height="36" viewBox="0 0 26 26" xmlns="http://www.w3.org/2000/svg">
    <defs>
        <linearGradient x1="8.473%" y1="28.015%" x2="96.876%" y2="74.805%" id="6s64kpkhya">
            <stop stop-color="#EFA4AE" offset="0%"/>
            <stop stop-color="#B15ED4" offset="44.78%"/>
            <stop stop-color="#460FE1" offset="98.09%"/>
        </linearGradient>
    </defs>
    <g fill-rule="nonzero" fill="none">
        <circle fill="#0C0B1E" opacity=".7" cx="13" cy="12.783" r="12.012"/>
        <path d="M14.846 5.876c0 .997-.806 1.803-1.803 1.803a1.801 1.801 0 0 1-1.802-1.803c0-.997.806-1.803 1.802-1.803a1.812 1.812 0 0 1 1.803 1.803zM26 13a12.977 12.977 0 0 1-3.805 9.195 12.828 12.828 0 0 1-4.134 2.782A12.977 12.977 0 0 1 13 26a12.977 12.977 0 0 1-9.195-3.805 12.828 12.828 0 0 1-2.782-4.134A12.977 12.977 0 0 1 0 13a12.977 12.977 0 0 1 3.805-9.195 12.828 12.828 0 0 1 4.134-2.782A12.977 12.977 0 0 1 13 0a12.977 12.977 0 0 1 9.195 3.805 12.828 12.828 0 0 1 2.782 4.134A12.945 12.945 0 0 1 26 13zM11.7 24.24v-7.565H9.005l1.672-5.01-6.153-6.153A11.248 11.248 0 0 0 1.69 13c-.009 5.807 4.368 10.6 10.01 11.24zm8.788-2.755-4.801-4.81h-1.283v7.557a11.258 11.258 0 0 0 6.084-2.747zM24.318 13c0-6.249-5.07-11.319-11.318-11.319-2.86 0-5.469 1.058-7.462 2.808l5.65 5.651.113-.33a1.79 1.79 0 0 1 1.708-1.23h.104c.771 0 1.464.494 1.707 1.23l1.976 5.929 4.723 4.723A11.299 11.299 0 0 0 24.32 13z" fill="url(#6s64kpkhya)"/>
    </g>
</svg>
