<svg width="17" height="17" viewBox="0 0 17 17" xmlns="http://www.w3.org/2000/svg">
    <path d="M15.527 12.933A7.804 7.804 0 0 0 16.68 8.84a7.804 7.804 0 0 0-1.153-4.093l-.004-.007a7.84 7.84 0 0 0-13.366 0l-.004.007a7.842 7.842 0 0 0 0 8.186l.004.007a7.84 7.84 0 0 0 13.366 0l.004-.007zm-5.685 2.404c-.15.144-.321.262-.509.351a1.149 1.149 0 0 1-.986 0 2.4 2.4 0 0 1-.89-.783 7.008 7.008 0 0 1-1.012-2.197 38.29 38.29 0 0 1 4.79 0c-.115.404-.258.8-.43 1.183a4.546 4.546 0 0 1-.963 1.446zM1.896 9.28H5.06c.02.882.116 1.761.285 2.627-.864.076-1.726.18-2.586.314a6.912 6.912 0 0 1-.862-2.941zm.862-3.822c.86.133 1.722.237 2.587.313A15.53 15.53 0 0 0 5.06 8.4H1.896a6.912 6.912 0 0 1 .862-2.941zm5.08-3.115c.15-.144.321-.263.509-.352.312-.148.674-.148.986 0a2.4 2.4 0 0 1 .89.783 7.008 7.008 0 0 1 1.012 2.197 38.294 38.294 0 0 1-4.79 0c.115-.404.258-.8.43-1.183.225-.54.552-1.03.963-1.445zM15.784 8.4h-3.162a15.559 15.559 0 0 0-.286-2.628c.864-.076 1.726-.18 2.586-.313.504.903.799 1.908.862 2.94zM6.23 11.84a14.57 14.57 0 0 1-.29-2.56h5.8c-.02.86-.117 1.717-.29 2.56a39.07 39.07 0 0 0-5.22 0zm5.22-6c.172.843.27 1.7.29 2.56h-5.8c.02-.86.118-1.717.29-2.56a39.084 39.084 0 0 0 5.22 0zm1.171 3.44h3.163a6.912 6.912 0 0 1-.862 2.942 39.236 39.236 0 0 0-2.587-.314c.17-.866.266-1.745.286-2.627zm1.773-4.632c-.751.108-1.505.194-2.261.257-.136-.506-.312-1-.525-1.479a6.251 6.251 0 0 0-.729-1.241 6.958 6.958 0 0 1 3.515 2.463zM3.92 3.919a6.957 6.957 0 0 1 2.882-1.734l-.05.064a8.042 8.042 0 0 0-1.202 2.657c-.756-.065-1.51-.15-2.263-.258.194-.257.406-.5.633-.729zm-.633 9.113a38.039 38.039 0 0 1 2.262-.257c.135.506.31 1 .524 1.479.194.44.44.857.73 1.241a6.958 6.958 0 0 1-3.516-2.463zm10.475.729a6.957 6.957 0 0 1-2.882 1.734l.05-.063a8.042 8.042 0 0 0 1.202-2.657c.756.064 1.51.15 2.263.257-.194.258-.405.501-.633.729z" fill="#BEBEBE" fill-rule="nonzero" stroke="#BEBEBE" stroke-width=".3"/>
</svg>
