<svg width="29" height="17" viewBox="0 0 29 17" xmlns="http://www.w3.org/2000/svg">
    <defs>
        <linearGradient x1="0%" y1="39.167%" x2="92.815%" y2="60.833%" id="78r16d1lva">
            <stop stop-color="#F9A1AF" offset="0%"/>
            <stop stop-color="#B15ED4" offset="45.954%"/>
            <stop stop-color="#460FE1" offset="100%"/>
        </linearGradient>
    </defs>
    <g fill="none" fill-rule="evenodd">
        <path d="M0 0h27a2 2 0 0 1 2 2v13a2 2 0 0 1-2 2H0V0z" fill="#0C0B1E" opacity=".722"/>
        <path d="m8.461 0-3.41 9.513H3.398L0 0h1.856L4.22 7.403 6.599 0h1.862zm1.157 9.513V0h1.685v9.513H9.618zM16.962 0c.718 0 1.34.13 1.865.389.525.259.924.618 1.199 1.078.274.46.412.983.412 1.571 0 .614-.137 1.144-.409 1.588-.272.444-.668.784-1.189 1.02-.52.234-1.147.352-1.878.352h-1.96v3.515h-1.693V0h3.653zm0 4.639c.605 0 1.053-.142 1.342-.425.29-.283.435-.67.435-1.163 0-.305-.063-.585-.19-.84a1.45 1.45 0 0 0-.588-.614c-.265-.154-.599-.231-1-.231h-1.96v3.273h1.96z" transform="translate(3.984 3.625)" fill="url(#78r16d1lva)" fill-rule="nonzero"/>
    </g>
</svg>
